SplineFontDB: 3.2
FontName: GaramondMono-Bold
FullName: Garamond Mono Bold
FamilyName: Garamond Mono
Weight: Bold
Copyright: Copyright 2017 The EB Garamond Project Authors (https://github.com/octaviopardo/EBGaramond12)
Version: 0.003
ItalicAngle: 0
UnderlinePosition: -125
UnderlineWidth: 50
Ascent: 800
Descent: 200
InvalidEm: 0
LayerCount: 2
Layer: 0 0 "+gMyXYgAA" 1
Layer: 1 0 "+Uk2XYgAA" 0
XUID: [1021 501 934139072 12164424]
StyleMap: 0x0020
FSType: 0
OS2Version: 4
OS2_WeightWidthSlopeOnly: 0
OS2_UseTypoMetrics: 1
CreationTime: 1508950587
ModificationTime: 1713097209
PfmFamily: 49
TTFWeight: 700
TTFWidth: 5
LineGap: 0
VLineGap: 0
OS2TypoAscent: 1007
OS2TypoAOffset: 0
OS2TypoDescent: -298
OS2TypoDOffset: 0
OS2TypoLinegap: 0
OS2WinAscent: 1047
OS2WinAOffset: 0
OS2WinDescent: 390
OS2WinDOffset: 0
HheadAscent: 1007
HheadAOffset: 0
HheadDescent: -298
HheadDOffset: 0
OS2SubXSize: 650
OS2SubYSize: 600
OS2SubXOff: 0
OS2SubYOff: 75
OS2SupXSize: 650
OS2SupYSize: 600
OS2SupXOff: 0
OS2SupYOff: 350
OS2StrikeYSize: 50
OS2StrikeYPos: 240
OS2CapHeight: 650
OS2XHeight: 400
OS2FamilyClass: 258
OS2Vendor: 'PfEd'
Lookup: 1 0 0 "'locl' Romanian comma accent" { "'locl' Romanian comma accent-1"  } ['locl' ('latn' <'MOL ' 'ROM ' > ) ]
Lookup: 1 0 0 "'ss01' Original glyphs" { "'ss01' Original glyphs-1" ("ss01") } ['ss01' ('DFLT' <'dflt' > 'latn' <'MOL ' 'ROM ' 'dflt' > ) ]
MarkAttachClasses: 1
DEI: 91125
TtTable: prep
PUSHW_1
 511
SCANCTRL
PUSHB_1
 4
SCANTYPE
EndTTInstrs
ShortTable: maxp 16
  1
  0
  3080
  580
  23
  580
  7
  1
  0
  0
  0
  0
  0
  0
  7
  1
EndShort
LangName: 1033 "" "" "" "" "" "" "" "" "Georg Duffner" "Georg Duffner and Octavio Pardo" "" "http://georgduffner.at/" "http://georgduffner.at/" "This Font Software is licensed under the SIL Open Font License, Version 1.1. This license is available with a FAQ at: http://scripts.sil.org/OFL" "http://scripts.sil.org/OFL"
GaspTable: 1 65535 15 1
OtfFeatName: 'ss01' 1033 "Original glyphs"
Encoding: UnicodeBmp
Compacted: 1

StartChar: A
Encoding: 65 65 0
Width: 600
GlyphClass: 2
Flags: W
LayerCount: 2
Fore
SplineSet
17 -5 m 0
 11 -5 6 -4 2 -2 c 128
 -2 0 -4 5 -4 12 c 256
 -4 19 -3 23 1 26 c 128
 5 29 9 32 14 34 c 0
 31 39 45 48 57 59 c 128
 69 70 77 83 83 98 c 0
 96 135 109 171 121 207 c 128
 133 243 144 278 156 314 c 128
 168 350 179 386 190 422 c 128
 201 458 213 495 224 532 c 0
 233 563 239 585 241 598 c 128
 243 611 245 617 247 618 c 0
 258 621 269 625 278 628 c 128
 287 631 297 634 309 639 c 0
 319 644 329 649 337 656 c 128
 345 663 351 669 355 674 c 0
 358 676 360 677 362 678 c 128
 364 679 367 676 369 671 c 0
 371 666 374 662 375 658 c 128
 376 654 378 648 379 643 c 0
 390 599 401 555 413 510 c 128
 425 465 437 420 449 374 c 128
 461 328 474 283 486 237 c 128
 498 191 510 145 522 98 c 0
 525 87 530 78 536 70 c 128
 542 62 550 54 559 48 c 128
 568 42 577 38 588 34 c 0
 593 32 597 30 601 27 c 128
 605 24 607 20 607 13 c 0
 607 8 605 5 602 2 c 128
 599 -1 595 -2 591 -2 c 0
 579 -2 565 -2 548 -1 c 128
 523 0 523 0 498 1 c 128
 481 2 467 2 454 2 c 0
 443 2 429 2 413 1 c 128
 397 0 381 -1 364 -2 c 128
 347 -3 333 -3 321 -3 c 0
 317 -3 314 -2 310 1 c 128
 306 4 304 7 304 12 c 0
 304 18 306 22 310 26 c 128
 314 30 317 33 322 34 c 0
 343 39 359 46 369 55 c 128
 379 64 381 78 377 97 c 0
 374 110 371 123 368 136 c 128
 365 149 363 161 360 174 c 128
 357 187 354 200 351 213 c 0
 350 218 349 223 347 226 c 128
 345 229 342 230 338 230 c 2
 194 230 l 2
 190 230 187 229 185 226 c 128
 183 223 181 218 180 213 c 0
 178 203 175 194 173 186 c 128
 171 178 168 169 166 161 c 128
 164 153 162 144 160 136 c 128
 158 128 155 119 153 109 c 0
 148 88 148 72 155 61 c 128
 162 50 178 41 204 34 c 0
 216 31 222 23 222 12 c 0
 222 7 221 4 218 2 c 128
 215 0 211 -2 205 -2 c 0
 187 -2 171 -1 157 -0 c 128
 143 1 129 1 112 1 c 0
 96 1 81 0 66 -2 c 128
 51 -4 35 -5 17 -5 c 0
217 288 m 2
 321 288 l 2
 329 288 333 290 333 295 c 0
 333 298 333 299 333 300 c 128
 333 301 332 303 331 306 c 2
 279 527 l 2
 277 534 276 537 274 537 c 0
 273 537 271 534 269 527 c 2
 205 306 l 2
 204 303 203 301 203 298 c 0
 203 295 205 292 208 290 c 128
 211 288 214 288 217 288 c 2
EndSplineSet
EndChar

StartChar: B
Encoding: 66 66 1
Width: 600
GlyphClass: 2
Flags: W
LayerCount: 2
Fore
SplineSet
35 -5 m 0
 29 -5 26 -3 22 -0 c 128
 18 3 16 6 16 10 c 0
 16 20 23 27 37 31 c 0
 59 37 75 44 84 52 c 128
 93 60 98 75 98 96 c 2
 98 551 l 2
 98 572 93 588 85 598 c 128
 77 608 61 614 39 619 c 0
 31 621 25 624 22 628 c 128
 19 632 17 635 17 640 c 0
 17 644 19 647 23 650 c 128
 27 653 31 655 37 655 c 0
 57 655 75 654 88 653 c 128
 101 652 114 651 126 650 c 128
 138 649 152 648 168 648 c 0
 183 648 196 648 208 650 c 128
 220 652 234 654 249 655 c 128
 264 656 282 657 304 657 c 0
 380 657 438 646 477 624 c 128
 516 602 536 563 536 508 c 0
 536 487 531 468 522 450 c 128
 513 432 502 416 488 404 c 0
 478 395 467 387 456 381 c 128
 445 375 432 370 418 366 c 0
 415 365 414 364 414 361 c 128
 414 358 415 357 418 356 c 0
 435 352 452 346 470 340 c 128
 488 334 504 325 520 313 c 128
 536 301 548 285 557 266 c 128
 566 247 571 223 571 194 c 0
 571 157 565 128 554 106 c 128
 543 84 530 67 514 56 c 128
 498 45 484 35 471 28 c 0
 450 17 426 9 399 4 c 128
 372 -1 340 -4 303 -4 c 0
 282 -4 260 -3 239 -2 c 128
 218 -1 196 0 172 0 c 0
 159 0 143 0 127 -1 c 128
 111 -2 96 -3 80 -4 c 128
 64 -5 49 -5 35 -5 c 0
304 51 m 0
 323 51 341 57 358 69 c 128
 375 81 388 98 398 118 c 128
 408 138 413 161 413 187 c 0
 413 210 410 229 405 244 c 128
 400 259 393 272 386 281 c 128
 379 290 371 297 365 302 c 0
 360 307 351 311 338 316 c 128
 325 321 308 324 289 324 c 0
 278 324 268 322 259 316 c 128
 250 310 245 302 245 291 c 2
 245 115 l 2
 245 93 251 76 261 66 c 128
 271 56 285 51 304 51 c 0
284 369 m 0
 299 369 313 370 326 374 c 128
 339 378 352 385 365 396 c 0
 369 401 376 410 384 424 c 128
 392 438 396 460 396 487 c 0
 396 515 392 538 385 557 c 128
 378 576 367 590 353 599 c 128
 339 608 320 613 296 613 c 0
 278 613 265 609 257 602 c 128
 249 595 245 585 245 571 c 2
 245 404 l 2
 245 391 250 381 259 376 c 128
 268 371 276 369 284 369 c 0
EndSplineSet
EndChar

StartChar: C
Encoding: 67 67 2
Width: 600
GlyphClass: 2
Flags: W
LayerCount: 2
Fore
SplineSet
342 -14 m 0
 297 -14 256 -6 217 10 c 128
 178 26 143 47 114 76 c 128
 85 105 62 140 46 180 c 128
 30 220 21 266 21 315 c 0
 21 360 29 404 44 446 c 128
 59 488 81 524 111 557 c 128
 141 590 177 616 220 635 c 128
 263 654 311 664 366 664 c 0
 383 664 402 662 421 659 c 128
 440 656 458 651 476 646 c 128
 494 641 509 635 522 628 c 0
 527 625 530 622 534 618 c 128
 538 614 540 608 541 601 c 0
 544 577 545 555 546 534 c 128
 547 513 548 495 548 480 c 0
 548 472 545 467 540 464 c 128
 535 461 530 461 525 464 c 128
 520 467 516 472 514 480 c 0
 510 493 506 507 501 522 c 128
 496 537 489 549 479 560 c 0
 468 574 452 586 432 595 c 128
 412 604 388 609 359 609 c 0
 331 609 306 602 283 588 c 128
 260 574 241 553 225 528 c 128
 209 503 197 476 189 444 c 128
 181 412 176 379 176 344 c 0
 176 299 180 259 187 222 c 128
 194 185 206 153 221 126 c 128
 236 99 255 78 278 64 c 128
 301 50 328 43 359 43 c 0
 401 43 435 53 461 74 c 128
 487 95 509 127 526 172 c 0
 531 184 537 190 545 189 c 128
 553 188 558 183 558 172 c 0
 558 163 557 152 556 140 c 128
 555 128 553 114 550 100 c 128
 547 86 544 70 540 54 c 0
 538 47 535 41 531 36 c 128
 527 31 523 27 518 24 c 0
 497 13 471 3 442 -4 c 128
 413 -11 379 -14 342 -14 c 0
EndSplineSet
EndChar

StartChar: D
Encoding: 68 68 3
Width: 600
GlyphClass: 2
Flags: W
LayerCount: 2
Fore
SplineSet
300 -7 m 0
 279 -7 259 -6 237 -5 c 128
 215 -4 196 -3 179 -2 c 128
 162 -1 150 0 143 0 c 0
 133 0 121 0 107 -0 c 128
 93 0 78 -1 64 -2 c 128
 50 -3 37 -3 26 -3 c 0
 23 -3 19 -2 16 1 c 128
 13 4 12 7 12 12 c 0
 12 18 13 22 16 26 c 128
 19 30 22 33 27 34 c 0
 47 39 60 46 67 54 c 128
 74 62 78 76 78 97 c 2
 78 551 l 2
 78 572 75 587 68 596 c 128
 61 605 48 612 27 618 c 0
 22 619 19 622 16 626 c 128
 13 630 12 634 12 640 c 0
 12 645 13 648 16 651 c 128
 19 654 23 655 26 655 c 0
 37 655 50 655 64 654 c 128
 78 653 93 653 107 652 c 128
 121 651 133 650 143 650 c 0
 151 650 161 651 175 652 c 128
 189 653 204 653 220 654 c 128
 236 655 252 657 268 658 c 128
 284 659 297 659 307 659 c 0
 343 659 378 652 411 636 c 128
 444 620 474 598 499 569 c 128
 524 540 544 506 559 466 c 128
 574 426 580 383 580 335 c 0
 580 291 575 249 563 208 c 128
 551 167 533 130 509 98 c 128
 485 66 456 41 421 22 c 128
 386 3 346 -7 300 -7 c 0
288 48 m 0
 322 48 351 59 373 80 c 128
 395 101 411 131 422 170 c 128
 433 209 438 254 438 306 c 0
 438 350 435 390 428 426 c 128
 421 462 412 493 399 519 c 128
 386 545 370 566 350 580 c 128
 330 594 307 601 280 601 c 0
 264 601 251 600 241 599 c 128
 231 598 223 594 218 590 c 128
 213 586 211 579 211 568 c 2
 211 134 l 2
 211 113 214 97 219 84 c 128
 224 71 233 62 244 56 c 128
 255 50 270 48 288 48 c 0
EndSplineSet
EndChar

StartChar: E
Encoding: 69 69 4
Width: 600
GlyphClass: 2
Flags: W
LayerCount: 2
Fore
SplineSet
53 -5 m 0
 46 -5 42 -3 38 -0 c 128
 34 3 32 6 32 10 c 0
 32 20 39 27 54 31 c 0
 77 37 92 44 102 52 c 128
 112 60 117 75 117 96 c 2
 117 551 l 2
 117 572 113 588 104 597 c 128
 95 606 79 614 55 619 c 0
 46 621 40 624 37 628 c 128
 34 632 32 635 32 640 c 0
 32 644 34 647 38 650 c 128
 42 653 47 655 54 655 c 0
 71 655 88 655 105 654 c 128
 122 653 139 653 156 652 c 128
 173 651 189 650 204 650 c 0
 239 650 276 650 315 651 c 128
 354 652 389 652 420 653 c 0
 441 653 459 654 473 656 c 128
 487 658 495 660 498 660 c 0
 503 660 508 659 514 656 c 128
 520 653 522 648 523 641 c 0
 526 617 529 594 533 571 c 128
 537 548 539 528 539 511 c 0
 539 505 538 500 535 497 c 128
 532 494 529 492 526 492 c 256
 523 492 520 493 516 496 c 128
 512 499 509 503 507 508 c 0
 500 525 494 539 489 551 c 128
 484 563 478 573 471 580 c 0
 463 587 453 594 442 601 c 128
 431 608 416 611 399 611 c 2
 324 611 l 2
 309 611 297 608 286 600 c 128
 275 592 270 581 270 567 c 2
 270 378 l 2
 270 370 272 364 277 360 c 128
 282 356 288 354 295 354 c 2
 383 354 l 2
 400 354 412 360 420 372 c 128
 428 384 435 397 441 414 c 0
 446 427 452 433 461 433 c 0
 464 433 467 432 470 428 c 128
 473 424 474 418 473 411 c 0
 472 403 472 394 471 385 c 128
 470 376 470 366 470 357 c 128
 470 348 469 339 469 330 c 0
 469 322 470 313 470 304 c 128
 470 290 470 290 470 276 c 128
 470 267 471 258 472 249 c 0
 473 240 473 232 471 228 c 128
 469 224 466 222 462 222 c 0
 451 222 444 231 439 248 c 0
 433 268 426 283 419 294 c 128
 412 305 401 310 388 310 c 2
 295 310 l 2
 287 310 280 308 276 304 c 128
 272 300 270 295 270 287 c 2
 270 97 l 2
 270 77 274 63 283 55 c 128
 292 47 305 43 323 43 c 2
 409 43 l 2
 424 43 438 45 451 48 c 128
 464 51 476 57 485 65 c 0
 496 74 507 86 516 100 c 128
 525 114 534 129 542 145 c 0
 545 150 547 152 550 154 c 128
 553 156 557 157 561 157 c 0
 564 157 566 155 568 151 c 128
 570 147 571 143 571 138 c 0
 571 127 569 114 566 100 c 128
 563 86 559 72 554 56 c 128
 549 40 544 24 539 9 c 0
 538 4 534 1 530 -1 c 128
 526 -3 522 -4 517 -4 c 0
 508 -4 492 -4 468 -4 c 128
 444 -4 417 -3 385 -2 c 128
 353 -1 320 0 286 -0 c 128
 252 0 220 0 191 0 c 0
 178 0 163 0 147 -1 c 128
 131 -2 114 -3 98 -4 c 128
 82 -5 67 -5 53 -5 c 0
EndSplineSet
EndChar

StartChar: F
Encoding: 70 70 5
Width: 600
GlyphClass: 2
Flags: W
LayerCount: 2
Fore
SplineSet
65 -3 m 0
 60 -3 55 -2 51 0 c 128
 47 2 45 6 45 11 c 0
 45 22 52 29 66 32 c 0
 91 37 109 44 118 52 c 128
 127 60 132 76 132 98 c 2
 132 546 l 2
 132 569 128 586 120 596 c 128
 112 606 96 614 72 619 c 0
 63 621 57 624 54 628 c 128
 51 632 49 635 49 640 c 0
 49 644 51 647 55 650 c 128
 59 653 64 655 71 655 c 0
 87 655 104 655 121 654 c 128
 138 653 155 653 172 652 c 128
 189 651 205 650 220 650 c 0
 259 650 260 650 306 650 c 128
 352 650 352 650 395 650 c 0
 422 650 448 652 470 656 c 128
 492 660 510 661 524 661 c 0
 529 661 535 660 540 657 c 128
 545 654 548 649 549 642 c 0
 550 627 551 611 552 594 c 128
 553 577 554 561 554 546 c 128
 554 531 554 518 554 507 c 0
 554 494 550 487 542 487 c 0
 539 487 534 488 530 491 c 128
 526 494 523 498 522 503 c 0
 517 520 512 535 507 548 c 128
 502 561 495 571 486 580 c 0
 477 589 468 596 456 600 c 128
 444 604 430 606 414 606 c 2
 339 606 l 2
 322 606 309 602 300 594 c 128
 291 586 286 574 286 560 c 0
 286 542 286 542 286 518 c 128
 286 494 286 494 286 475 c 0
 286 453 286 453 286 427 c 128
 286 401 286 401 286 379 c 0
 286 370 288 364 292 360 c 128
 296 356 302 355 309 355 c 0
 334 355 334 355 359 355 c 128
 384 355 384 355 406 355 c 0
 423 355 436 360 444 370 c 128
 452 380 459 393 465 407 c 0
 468 412 470 417 474 420 c 128
 478 423 482 425 485 425 c 256
 488 425 491 423 494 419 c 128
 497 415 499 410 498 403 c 0
 497 389 495 376 494 364 c 128
 493 352 493 340 493 331 c 0
 493 318 493 307 494 298 c 128
 495 289 496 277 497 262 c 0
 498 253 497 246 495 242 c 128
 493 238 490 236 487 236 c 0
 482 236 476 239 472 244 c 128
 468 249 465 254 463 260 c 0
 458 280 451 293 443 300 c 128
 435 307 425 311 413 311 c 0
 402 311 402 311 390 311 c 128
 378 311 377 311 366 311 c 0
 352 311 352 311 336 311 c 128
 326 311 316 311 307 310 c 0
 300 310 294 308 290 304 c 128
 286 300 285 294 285 287 c 0
 285 257 286 226 286 193 c 128
 286 160 286 129 287 99 c 0
 287 78 293 63 304 54 c 128
 315 45 335 38 363 32 c 0
 370 31 374 29 378 26 c 128
 382 23 384 18 384 12 c 0
 384 7 383 4 380 1 c 128
 377 -2 372 -3 366 -3 c 0
 351 -3 334 -3 315 -2 c 128
 296 -1 277 0 258 1 c 128
 239 2 223 2 210 2 c 256
 197 2 182 2 165 1 c 128
 148 0 131 -1 114 -2 c 128
 97 -3 80 -3 65 -3 c 0
EndSplineSet
EndChar

StartChar: G
Encoding: 71 71 6
Width: 600
GlyphClass: 2
Flags: W
LayerCount: 2
Fore
SplineSet
315 -14 m 0
 274 -14 235 -6 200 10 c 128
 165 26 134 47 107 76 c 128
 80 105 59 140 44 180 c 128
 29 220 21 266 21 315 c 0
 21 360 28 404 43 446 c 128
 58 488 78 524 106 557 c 128
 134 590 167 616 206 635 c 128
 245 654 290 664 339 664 c 0
 351 664 364 663 379 661 c 128
 394 659 410 656 426 653 c 128
 442 650 457 646 471 642 c 128
 485 638 497 633 507 628 c 0
 512 625 517 622 520 618 c 128
 523 614 525 608 526 601 c 0
 529 577 531 555 533 534 c 128
 535 513 536 495 536 480 c 0
 536 473 535 468 532 465 c 128
 529 462 525 460 521 460 c 0
 514 460 510 462 507 466 c 128
 504 470 501 474 498 480 c 0
 493 493 486 507 479 522 c 128
 472 537 463 551 454 562 c 0
 447 571 439 579 430 586 c 128
 421 593 410 598 398 602 c 128
 386 606 371 609 354 609 c 0
 324 609 299 602 276 588 c 128
 253 574 234 553 219 528 c 128
 204 503 193 476 185 444 c 128
 177 412 174 379 174 344 c 0
 174 299 177 259 183 222 c 128
 189 185 197 153 210 126 c 128
 223 99 239 78 259 64 c 128
 279 50 302 43 329 43 c 0
 339 43 348 45 356 50 c 128
 364 55 371 60 377 65 c 256
 383 70 387 78 390 89 c 128
 393 100 394 113 395 127 c 0
 396 133 396 142 396 154 c 128
 396 166 396 176 396 188 c 128
 396 200 397 209 397 215 c 0
 397 222 395 230 392 236 c 128
 389 242 383 247 375 251 c 0
 369 254 364 256 359 258 c 128
 354 260 348 262 343 264 c 128
 338 266 332 268 327 269 c 256
 322 270 317 273 313 277 c 128
 309 281 306 286 306 292 c 0
 306 297 308 300 312 303 c 128
 316 306 321 307 325 307 c 0
 337 307 352 307 368 306 c 128
 384 305 401 305 417 304 c 128
 433 303 447 302 458 302 c 0
 474 302 492 303 512 304 c 128
 532 305 550 306 567 306 c 0
 571 306 575 304 577 302 c 128
 579 300 581 296 581 291 c 0
 581 284 580 279 577 276 c 128
 574 273 570 271 565 270 c 0
 548 265 537 259 531 252 c 128
 525 245 521 234 519 221 c 0
 517 206 515 193 514 182 c 128
 513 171 513 159 513 146 c 2
 513 112 l 2
 513 109 514 105 517 102 c 128
 520 99 522 95 525 92 c 256
 528 89 530 86 531 82 c 128
 532 78 533 74 533 70 c 0
 533 65 532 60 529 56 c 128
 526 52 521 49 515 48 c 0
 511 47 503 44 492 38 c 128
 481 32 468 24 451 16 c 128
 434 8 415 1 392 -5 c 128
 369 -11 343 -14 315 -14 c 0
EndSplineSet
EndChar

StartChar: H
Encoding: 72 72 7
Width: 600
GlyphClass: 2
Flags: W
LayerCount: 2
Fore
SplineSet
25 -3 m 0
 22 -3 19 -2 16 1 c 128
 13 4 11 7 11 12 c 0
 11 23 16 31 26 34 c 0
 43 39 54 46 61 54 c 128
 68 62 71 76 71 97 c 2
 71 551 l 2
 71 572 67 587 61 596 c 128
 55 605 44 612 26 618 c 0
 16 621 11 629 11 640 c 0
 11 645 13 648 16 651 c 128
 19 654 22 655 25 655 c 0
 36 655 48 655 61 654 c 128
 74 653 86 653 99 652 c 128
 112 651 123 650 133 650 c 256
 143 650 155 650 169 651 c 128
 183 652 197 652 212 653 c 128
 227 654 238 654 249 654 c 0
 257 654 261 649 261 639 c 0
 261 632 261 628 258 625 c 128
 255 622 252 620 247 618 c 0
 226 610 213 602 207 593 c 128
 201 584 198 570 198 550 c 2
 198 373 l 2
 198 368 200 364 202 362 c 128
 204 360 206 358 210 358 c 2
 391 358 l 2
 398 358 402 363 402 373 c 2
 402 550 l 2
 402 570 399 584 393 593 c 128
 387 602 374 610 353 618 c 0
 348 620 345 622 342 625 c 128
 339 628 339 632 339 639 c 0
 339 649 343 654 351 654 c 0
 362 654 373 654 388 653 c 128
 403 652 417 652 431 651 c 128
 445 650 457 650 467 650 c 0
 477 650 488 651 501 652 c 128
 514 653 526 653 539 654 c 128
 552 655 564 655 575 655 c 0
 578 655 581 654 584 651 c 128
 587 648 589 645 589 640 c 0
 589 629 584 621 574 618 c 0
 556 612 545 605 539 596 c 128
 533 587 529 572 529 551 c 2
 529 97 l 2
 529 76 532 62 539 54 c 128
 546 46 557 39 574 34 c 0
 584 31 589 23 589 12 c 0
 589 7 587 4 584 1 c 128
 581 -2 578 -3 575 -3 c 0
 565 -3 554 -3 541 -2 c 128
 528 -1 515 0 502 1 c 128
 489 2 477 2 467 2 c 0
 457 2 445 2 431 1 c 128
 417 0 403 0 388 -1 c 128
 373 -2 362 -2 351 -2 c 0
 347 -2 344 -1 342 2 c 128
 340 5 339 8 339 13 c 0
 339 20 339 24 342 27 c 128
 345 30 348 32 353 34 c 0
 373 41 385 50 392 58 c 128
 399 66 402 79 402 98 c 2
 402 284 l 2
 402 289 401 293 399 296 c 128
 397 299 395 301 391 301 c 2
 210 301 l 2
 202 301 198 295 198 284 c 2
 198 98 l 2
 198 79 201 66 208 58 c 128
 215 50 227 41 247 34 c 0
 252 32 255 30 258 27 c 128
 261 24 261 20 261 13 c 0
 261 8 260 5 258 2 c 128
 256 -1 253 -2 249 -2 c 0
 238 -2 227 -2 212 -1 c 128
 197 0 183 0 169 1 c 128
 155 2 143 2 133 2 c 256
 123 2 111 2 98 1 c 128
 85 0 72 -1 59 -2 c 128
 46 -3 35 -3 25 -3 c 0
EndSplineSet
EndChar

StartChar: I
Encoding: 73 73 8
Width: 600
GlyphClass: 2
Flags: W
LayerCount: 2
Fore
SplineSet
154 -3 m 0
 149 -3 144 -2 140 0 c 128
 136 2 134 6 134 11 c 0
 134 22 141 29 155 32 c 0
 180 37 198 44 208 52 c 128
 218 60 223 76 223 97 c 2
 223 551 l 2
 223 572 219 587 210 596 c 128
 201 605 184 613 157 619 c 0
 143 622 136 629 136 640 c 0
 136 645 138 648 142 651 c 128
 146 654 151 655 156 655 c 0
 171 655 187 655 204 654 c 128
 221 653 238 653 254 652 c 128
 270 651 286 650 300 650 c 0
 313 650 329 650 346 651 c 128
 363 652 380 652 398 653 c 128
 416 654 431 654 446 654 c 0
 452 654 457 652 460 650 c 128
 463 648 465 645 465 640 c 0
 465 633 464 629 460 626 c 128
 456 623 450 621 443 619 c 0
 416 612 399 603 390 594 c 128
 381 585 377 571 377 550 c 2
 377 98 l 2
 377 79 382 65 392 56 c 128
 402 47 419 39 445 32 c 0
 452 30 456 28 460 25 c 128
 464 22 466 18 466 12 c 0
 466 7 465 4 462 1 c 128
 459 -2 454 -3 448 -3 c 0
 433 -3 417 -3 399 -2 c 128
 381 -1 363 0 346 1 c 128
 329 2 313 2 300 2 c 0
 286 2 271 2 254 1 c 128
 237 0 220 -1 203 -2 c 128
 186 -3 169 -3 154 -3 c 0
EndSplineSet
EndChar

StartChar: J
Encoding: 74 74 9
Width: 600
GlyphClass: 2
Flags: W
LayerCount: 2
Fore
SplineSet
172 -200 m 0
 79 -200 33 -181 33 -142 c 0
 33 -129 39 -116 50 -103 c 128
 61 -90 73 -84 84 -84 c 0
 92 -84 99 -86 106 -90 c 128
 113 -94 119 -100 126 -108 c 0
 139 -123 148 -135 154 -144 c 128
 160 -153 168 -158 176 -158 c 0
 196 -158 211 -146 222 -120 c 128
 233 -94 238 -52 238 7 c 2
 238 551 l 2
 238 573 234 588 225 597 c 128
 216 606 199 613 172 619 c 0
 158 622 151 629 151 640 c 0
 151 645 154 648 158 651 c 128
 162 654 166 655 171 655 c 0
 186 655 203 655 220 654 c 128
 237 653 254 653 270 652 c 128
 286 651 301 650 315 650 c 0
 328 650 344 650 360 651 c 128
 376 652 392 652 410 653 c 128
 428 654 444 654 459 654 c 0
 465 654 469 652 472 650 c 128
 475 648 477 645 477 640 c 0
 477 633 476 629 472 626 c 128
 468 623 463 621 456 619 c 0
 429 612 412 603 404 594 c 128
 396 585 392 571 392 550 c 2
 392 86 l 2
 392 68 389 48 382 26 c 128
 375 4 364 -19 352 -42 c 128
 340 -65 327 -86 312 -106 c 0
 292 -132 270 -154 246 -172 c 128
 222 -190 197 -200 172 -200 c 0
EndSplineSet
EndChar

StartChar: K
Encoding: 75 75 10
Width: 600
GlyphClass: 2
Flags: W
LayerCount: 2
Fore
SplineSet
33 -6 m 0
 28 -6 24 -4 19 -0 c 128
 14 4 12 7 12 12 c 0
 12 23 18 31 31 34 c 0
 50 39 62 46 68 54 c 128
 74 62 77 76 77 97 c 2
 77 551 l 2
 77 572 74 587 67 596 c 128
 60 605 46 612 26 618 c 0
 16 621 12 629 12 640 c 0
 12 645 13 648 16 651 c 128
 19 654 22 655 25 655 c 0
 36 655 49 655 63 654 c 128
 77 653 91 653 105 652 c 128
 119 651 131 650 141 650 c 256
 151 650 163 650 177 651 c 128
 191 652 206 652 221 653 c 128
 236 654 249 654 260 654 c 0
 264 654 267 652 269 650 c 128
 271 648 272 644 272 639 c 0
 272 632 271 628 268 625 c 128
 265 622 262 620 257 618 c 0
 236 610 223 602 217 593 c 128
 211 584 207 570 207 550 c 2
 207 343 l 2
 207 338 208 334 210 332 c 128
 212 330 214 328 216 328 c 0
 219 328 221 329 224 332 c 128
 227 335 230 338 234 343 c 2
 381 551 l 2
 385 557 388 563 391 568 c 128
 394 573 396 577 396 582 c 0
 396 597 384 607 360 614 c 0
 355 615 353 618 350 622 c 128
 347 626 346 630 346 636 c 0
 346 641 347 644 350 647 c 128
 353 650 357 651 360 651 c 2
 415 651 l 2
 433 651 450 652 466 652 c 128
 482 652 499 652 516 653 c 128
 533 654 552 654 573 654 c 0
 578 654 583 652 587 650 c 128
 591 648 594 644 594 639 c 0
 594 632 591 627 586 624 c 128
 581 621 576 619 571 618 c 0
 544 613 521 605 502 594 c 128
 483 583 466 571 452 557 c 0
 437 542 423 526 409 509 c 128
 395 492 381 474 367 455 c 128
 353 436 338 418 323 400 c 0
 315 391 315 380 323 368 c 2
 506 98 l 2
 512 89 519 81 526 73 c 128
 533 65 541 58 550 52 c 128
 559 46 571 39 584 34 c 0
 589 32 593 30 599 27 c 128
 605 24 608 20 608 13 c 0
 608 8 605 4 600 0 c 128
 595 -4 586 -5 576 -5 c 0
 561 -5 545 -4 529 -3 c 128
 513 -2 497 -1 481 0 c 128
 465 1 449 2 433 2 c 0
 414 2 396 2 380 -0 c 128
 364 -2 347 -3 329 -3 c 0
 326 -3 323 -2 320 1 c 128
 317 4 315 7 315 12 c 0
 315 23 320 31 330 34 c 0
 352 39 362 49 363 63 c 0
 363 68 362 74 360 79 c 128
 358 84 354 90 350 97 c 2
 234 277 l 2
 230 282 227 286 224 289 c 128
 221 292 218 293 215 293 c 0
 213 293 211 292 209 289 c 128
 207 286 207 282 207 277 c 0
 207 247 207 218 207 188 c 128
 207 158 208 128 209 98 c 0
 210 86 210 76 212 68 c 128
 214 60 218 55 224 50 c 128
 230 45 240 39 253 34 c 0
 258 32 262 30 266 27 c 128
 270 24 272 20 272 13 c 0
 272 8 270 4 265 1 c 128
 260 -2 255 -4 250 -4 c 0
 234 -4 220 -3 207 -2 c 128
 194 -1 182 1 172 2 c 128
 162 3 151 4 141 4 c 256
 131 4 121 4 111 2 c 128
 101 0 90 -2 78 -4 c 128
 66 -6 51 -6 33 -6 c 0
EndSplineSet
EndChar

StartChar: L
Encoding: 76 76 11
Width: 600
GlyphClass: 2
Flags: W
LayerCount: 2
Fore
SplineSet
49 -5 m 0
 42 -5 38 -3 34 -0 c 128
 30 3 28 6 28 10 c 0
 28 15 30 18 34 22 c 128
 38 26 43 29 49 31 c 0
 72 37 88 44 98 52 c 128
 108 60 112 74 112 95 c 2
 112 553 l 2
 112 568 110 579 107 587 c 128
 104 595 97 601 88 606 c 128
 79 611 65 615 47 619 c 0
 33 622 26 629 26 640 c 0
 26 645 28 648 32 651 c 128
 36 654 41 655 46 655 c 0
 61 655 77 655 94 654 c 128
 111 653 128 653 144 652 c 128
 160 651 176 650 189 650 c 0
 203 650 219 650 236 651 c 128
 253 652 272 652 290 653 c 128
 308 654 324 654 339 654 c 0
 345 654 349 652 352 650 c 128
 355 648 357 645 357 640 c 0
 357 633 356 629 352 626 c 128
 348 623 343 621 336 619 c 0
 309 612 290 604 280 596 c 128
 270 588 266 573 266 553 c 2
 266 103 l 2
 266 84 270 71 278 63 c 128
 286 55 301 51 320 51 c 2
 422 51 l 2
 437 51 450 53 462 58 c 128
 474 63 484 70 493 78 c 0
 504 89 514 100 523 114 c 128
 532 128 539 142 546 157 c 0
 553 170 558 179 562 183 c 128
 566 187 569 189 573 189 c 0
 578 189 582 187 584 182 c 128
 586 177 587 173 587 169 c 0
 587 168 586 165 585 160 c 128
 584 155 583 152 583 149 c 0
 578 130 574 112 570 98 c 128
 566 84 562 71 560 58 c 128
 558 45 556 30 554 14 c 0
 553 9 552 5 550 1 c 128
 548 -3 543 -5 538 -5 c 0
 524 -5 504 -5 477 -4 c 128
 450 -3 421 -2 388 -2 c 128
 355 -2 320 -2 286 -1 c 128
 252 0 220 0 191 0 c 0
 177 0 161 0 143 -1 c 128
 125 -2 107 -3 90 -4 c 128
 73 -5 60 -5 49 -5 c 0
EndSplineSet
EndChar

StartChar: M
Encoding: 77 77 12
Width: 600
GlyphClass: 2
Flags: W
LayerCount: 2
Fore
SplineSet
28 -3 m 2
 23 -3 19 -2 17 1 c 128
 15 4 13 7 13 12 c 0
 13 18 15 22 19 24 c 128
 23 26 27 27 31 30 c 0
 41 36 49 46 57 59 c 128
 65 72 69 89 71 109 c 0
 73 134 75 167 78 210 c 128
 81 253 84 301 87 354 c 128
 90 407 93 461 96 516 c 0
 96 519 96 524 96 530 c 128
 96 539 96 539 96 550 c 0
 96 563 95 574 92 581 c 128
 89 588 85 594 79 599 c 0
 74 603 70 606 64 610 c 128
 58 614 53 617 46 620 c 0
 41 622 36 625 33 628 c 128
 30 631 28 636 28 642 c 256
 28 648 30 652 33 654 c 128
 36 656 40 658 45 658 c 0
 52 658 60 658 70 657 c 128
 80 656 90 656 102 656 c 128
 114 656 126 655 138 654 c 128
 150 653 163 653 175 653 c 0
 178 653 181 651 184 647 c 128
 187 643 189 639 190 635 c 0
 193 622 196 609 199 598 c 128
 202 587 205 575 208 562 c 2
 302 223 l 2
 303 220 304 219 305 219 c 128
 306 219 307 220 307 223 c 2
 393 538 l 1
 396 564 399 585 401 600 c 128
 403 615 405 626 407 634 c 0
 409 643 412 647 418 647 c 2
 447 647 l 2
 466 648 486 651 507 654 c 128
 528 657 545 658 557 658 c 0
 562 658 566 656 569 654 c 128
 572 652 574 648 574 642 c 256
 574 636 572 632 569 629 c 128
 566 626 563 624 559 622 c 0
 557 621 555 620 552 618 c 128
 549 616 547 614 545 613 c 0
 532 604 523 593 517 582 c 128
 511 571 508 552 509 527 c 0
 510 478 512 437 513 402 c 128
 514 367 516 335 517 306 c 128
 518 277 519 246 521 214 c 128
 523 182 524 143 526 98 c 0
 527 81 531 68 540 58 c 128
 549 48 560 39 573 34 c 0
 577 32 580 30 583 27 c 128
 586 24 587 20 587 13 c 0
 587 8 585 5 583 2 c 128
 581 -1 578 -2 575 -2 c 0
 566 -2 554 -2 541 -1 c 128
 528 0 515 0 502 1 c 128
 489 2 478 2 469 2 c 256
 460 2 451 2 439 1 c 128
 427 0 416 -1 404 -2 c 128
 392 -3 381 -3 371 -3 c 0
 368 -3 365 -2 362 1 c 128
 359 4 358 7 358 12 c 0
 358 18 359 22 362 26 c 128
 365 30 368 33 372 34 c 0
 389 39 400 46 407 54 c 128
 414 62 416 77 415 97 c 0
 414 137 413 178 412 219 c 128
 411 260 410 302 409 342 c 128
 408 382 408 420 407 456 c 0
 407 460 406 462 405 462 c 128
 404 462 402 459 401 454 c 2
 282 3 l 2
 279 -8 276 -12 271 -10 c 128
 266 -8 264 -4 262 1 c 0
 239 78 216 155 192 230 c 128
 168 305 153 357 134 428 c 0
 132 435 130 437 127 435 c 128
 124 433 123 428 123 419 c 0
 122 389 121 375 120 335 c 128
 119 295 118 255 117 214 c 128
 116 173 116 137 116 104 c 0
 116 85 120 71 128 60 c 128
 136 49 148 41 165 34 c 0
 169 33 173 31 177 28 c 128
 181 25 183 20 183 13 c 0
 183 8 181 5 178 2 c 128
 175 -1 170 -2 167 -2 c 0
 155 -2 147 -2 140 -1 c 128
 133 0 127 0 122 0 c 128
 117 0 109 1 100 1 c 0
 90 1 79 1 68 0 c 128
 57 -1 48 -1 40 -2 c 128
 28 -3 28 -3 28 -3 c 2
EndSplineSet
EndChar

StartChar: N
Encoding: 78 78 13
Width: 600
GlyphClass: 2
Flags: W
LayerCount: 2
Fore
SplineSet
504 -19 m 256
 498 -19 487 -14 473 -4 c 128
 459 6 444 25 429 51 c 0
 417 68 405 86 392 105 c 128
 379 124 365 144 351 165 c 128
 337 186 322 207 307 228 c 128
 292 249 278 271 264 292 c 128
 250 313 235 333 221 354 c 128
 207 375 193 395 180 414 c 128
 167 433 155 451 143 468 c 0
 142 471 140 474 138 476 c 128
 136 478 134 479 133 479 c 0
 131 479 130 477 129 472 c 128
 128 467 128 463 128 460 c 0
 128 429 128 393 128 352 c 128
 128 311 129 268 130 226 c 128
 131 184 131 146 131 111 c 0
 131 90 136 72 146 60 c 128
 156 48 171 39 190 32 c 0
 195 31 200 29 204 26 c 128
 208 23 211 18 211 12 c 0
 211 7 209 4 205 1 c 128
 201 -2 196 -3 192 -3 c 0
 179 -3 167 -3 159 -2 c 128
 151 -1 143 0 136 0 c 128
 129 0 120 1 110 1 c 0
 99 1 89 1 79 0 c 128
 69 -1 62 -1 55 -2 c 128
 48 -3 43 -3 41 -3 c 0
 38 -3 33 -2 29 0 c 128
 25 2 23 6 23 11 c 0
 23 17 25 21 29 24 c 128
 33 27 37 29 42 32 c 0
 54 38 63 48 69 62 c 128
 75 76 79 93 80 114 c 0
 82 139 84 171 86 212 c 128
 88 253 91 299 93 350 c 128
 95 401 96 453 96 508 c 0
 96 543 89 568 76 583 c 128
 63 598 47 611 28 620 c 0
 24 621 20 624 15 628 c 128
 10 632 7 636 7 642 c 256
 7 648 9 652 13 654 c 128
 17 656 22 658 27 658 c 0
 36 658 46 658 57 657 c 128
 68 656 80 656 92 656 c 128
 104 656 118 655 131 654 c 128
 144 653 158 653 171 653 c 0
 175 653 178 652 180 650 c 128
 182 648 184 645 186 642 c 0
 197 625 208 607 221 588 c 128
 234 569 247 549 261 528 c 128
 275 507 289 486 303 464 c 128
 317 442 332 420 346 398 c 128
 360 376 374 355 388 334 c 128
 402 313 414 293 427 274 c 128
 440 255 452 237 463 220 c 0
 464 217 466 215 468 212 c 128
 470 209 473 207 475 207 c 0
 479 207 481 212 481 222 c 0
 481 243 481 267 481 294 c 128
 481 321 481 350 481 381 c 128
 481 412 481 442 481 472 c 128
 481 502 480 530 479 555 c 0
 479 573 474 587 464 596 c 128
 454 605 441 612 424 618 c 0
 419 619 414 622 410 625 c 128
 406 628 404 633 404 639 c 0
 404 644 406 648 410 650 c 128
 414 652 419 653 423 653 c 0
 434 653 444 652 452 652 c 128
 460 652 467 652 473 652 c 128
 483 652 483 652 495 652 c 0
 505 652 513 652 520 652 c 128
 527 652 535 653 543 654 c 128
 551 655 561 655 574 655 c 0
 580 655 585 654 588 651 c 128
 591 648 593 645 593 640 c 0
 593 630 586 623 573 620 c 0
 556 615 543 609 536 600 c 128
 529 591 524 577 524 558 c 0
 524 534 524 508 524 481 c 128
 524 454 523 426 522 397 c 128
 521 368 521 340 520 312 c 128
 519 284 518 256 518 230 c 128
 518 204 517 180 517 158 c 0
 517 143 518 126 519 108 c 128
 520 90 522 73 523 58 c 128
 524 43 525 32 525 26 c 0
 525 9 524 -2 520 -9 c 128
 516 -16 510 -19 504 -19 c 256
EndSplineSet
EndChar

StartChar: O
Encoding: 79 79 14
Width: 600
GlyphClass: 2
Flags: W
LayerCount: 2
Fore
SplineSet
296 -14 m 0
 259 -14 225 -6 192 10 c 128
 159 26 129 47 103 76 c 128
 77 105 57 140 42 180 c 128
 27 220 20 266 20 315 c 0
 20 360 26 404 38 446 c 128
 50 488 68 524 92 557 c 128
 116 590 146 616 181 635 c 128
 216 654 257 664 304 664 c 0
 341 664 375 656 408 640 c 128
 441 624 471 603 497 574 c 128
 523 545 543 510 558 470 c 128
 573 430 580 384 580 335 c 0
 580 290 574 247 562 205 c 128
 550 163 532 126 508 93 c 128
 484 60 454 34 419 15 c 128
 384 -4 343 -14 296 -14 c 0
311 33 m 0
 339 33 362 44 381 65 c 128
 400 86 414 116 423 154 c 128
 432 192 437 234 437 283 c 0
 437 323 434 363 428 402 c 128
 422 441 414 478 402 510 c 128
 390 542 374 568 355 587 c 128
 336 606 314 616 288 616 c 0
 261 616 238 605 219 584 c 128
 200 563 186 533 177 496 c 128
 168 459 163 416 163 367 c 0
 163 327 166 287 172 248 c 128
 178 209 186 172 198 140 c 128
 210 108 225 82 244 62 c 128
 263 42 285 33 311 33 c 0
EndSplineSet
EndChar

StartChar: P
Encoding: 80 80 15
Width: 600
GlyphClass: 2
Flags: W
LayerCount: 2
Fore
SplineSet
37 -3 m 0
 32 -3 27 -2 23 0 c 128
 19 2 17 6 17 11 c 0
 17 22 24 29 38 32 c 0
 63 37 79 44 89 52 c 128
 99 60 104 76 104 98 c 2
 104 546 l 2
 104 569 100 586 92 596 c 128
 84 606 68 614 44 619 c 0
 35 621 30 624 27 628 c 128
 24 632 22 635 22 640 c 0
 22 644 24 647 28 650 c 128
 32 653 36 655 43 655 c 0
 58 655 74 655 89 654 c 128
 104 653 120 653 135 652 c 128
 150 651 164 650 177 650 c 0
 193 650 207 650 219 652 c 128
 231 654 244 656 259 658 c 128
 274 660 292 660 313 660 c 0
 393 660 458 642 505 608 c 128
 552 574 575 527 575 467 c 0
 575 425 566 386 549 351 c 128
 532 316 505 288 470 266 c 128
 435 244 390 233 336 233 c 0
 319 233 306 236 297 241 c 128
 288 246 284 253 284 260 c 0
 284 265 286 269 290 272 c 128
 294 275 298 276 301 276 c 0
 308 276 315 276 320 274 c 128
 325 272 333 271 342 271 c 0
 370 271 391 287 405 318 c 128
 419 349 426 391 426 442 c 0
 426 503 416 548 396 575 c 128
 376 602 349 616 313 616 c 0
 295 616 281 612 271 604 c 128
 261 596 257 582 257 565 c 2
 256 100 l 2
 256 79 262 63 273 54 c 128
 284 45 303 38 331 32 c 0
 338 31 343 29 347 26 c 128
 351 23 353 18 353 12 c 0
 353 7 351 4 348 1 c 128
 345 -2 340 -3 334 -3 c 0
 320 -3 303 -3 284 -2 c 128
 265 -1 246 0 228 1 c 128
 210 2 194 2 181 2 c 0
 167 2 151 2 135 1 c 128
 119 0 102 -1 85 -2 c 128
 68 -3 51 -3 37 -3 c 0
EndSplineSet
EndChar

StartChar: Q
Encoding: 81 81 16
Width: 600
GlyphClass: 1
Flags: W
LayerCount: 2
Fore
SplineSet
574 -248 m 0
 544 -248 512 -242 477 -228 c 128
 442 -214 411 -195 383 -170 c 0
 364 -153 347 -137 331 -122 c 128
 315 -107 298 -90 281 -70 c 0
 272 -59 260 -46 246 -29 c 128
 232 -12 214 1 192 11 c 0
 176 18 158 29 138 44 c 128
 118 59 99 78 81 102 c 128
 63 126 49 155 37 190 c 128
 25 225 20 267 20 315 c 0
 20 360 26 404 38 446 c 128
 50 488 68 524 92 557 c 128
 116 590 146 616 181 635 c 128
 216 654 258 664 304 664 c 0
 341 664 376 656 409 640 c 128
 442 624 471 603 497 574 c 128
 523 545 543 510 558 470 c 128
 573 430 580 384 580 335 c 0
 580 290 574 248 562 206 c 128
 550 164 532 127 508 94 c 128
 484 61 455 35 420 16 c 0
 414 14 411 10 411 5 c 0
 411 2 412 -2 415 -5 c 0
 427 -19 438 -33 450 -46 c 128
 462 -59 477 -76 497 -97 c 0
 523 -124 547 -143 569 -155 c 128
 591 -167 612 -173 632 -173 c 0
 637 -173 642 -172 646 -172 c 128
 650 -172 654 -172 657 -171 c 256
 660 -170 663 -170 666 -170 c 128
 669 -170 672 -169 675 -169 c 0
 691 -169 700 -177 700 -192 c 0
 700 -198 698 -204 696 -208 c 128
 694 -212 690 -216 684 -221 c 0
 673 -230 659 -236 640 -241 c 128
 621 -246 599 -248 574 -248 c 0
311 36 m 0
 353 36 385 58 406 102 c 128
 427 146 437 206 437 283 c 0
 437 324 434 365 428 404 c 128
 422 443 414 479 402 510 c 128
 390 541 374 566 355 584 c 128
 336 602 314 612 288 612 c 0
 246 612 215 590 194 546 c 128
 173 502 163 443 163 367 c 0
 163 326 166 285 172 246 c 128
 178 207 186 172 198 140 c 128
 210 108 225 83 244 64 c 128
 263 45 285 36 311 36 c 0
EndSplineSet
EndChar

StartChar: R
Encoding: 82 82 17
Width: 600
GlyphClass: 2
Flags: W
LayerCount: 2
Fore
SplineSet
504 -21 m 0
 475 -21 450 -16 431 -7 c 128
 412 2 396 15 383 30 c 128
 370 45 358 61 348 79 c 0
 337 98 326 118 316 138 c 128
 306 158 295 178 285 200 c 128
 275 222 266 248 256 275 c 0
 251 290 244 300 237 305 c 0
 234 308 230 309 227 310 c 128
 224 311 221 312 218 312 c 256
 215 312 213 310 212 306 c 128
 211 302 210 298 210 292 c 2
 210 98 l 2
 210 77 215 63 224 55 c 128
 233 47 249 40 271 34 c 0
 276 33 279 31 282 28 c 128
 285 25 286 20 286 13 c 0
 286 8 285 5 283 2 c 128
 281 -1 278 -2 274 -2 c 0
 263 -2 249 -2 232 -1 c 128
 215 0 199 0 183 1 c 128
 167 2 153 2 143 2 c 256
 133 2 120 2 106 1 c 128
 92 0 78 -1 64 -2 c 128
 50 -3 37 -3 26 -3 c 0
 23 -3 19 -2 16 1 c 128
 13 4 12 7 12 12 c 0
 12 23 16 31 26 34 c 0
 46 39 60 46 67 54 c 128
 74 62 78 76 78 97 c 2
 78 551 l 2
 78 566 77 578 74 586 c 128
 71 594 67 601 60 606 c 128
 53 611 43 615 31 618 c 0
 25 620 20 623 18 627 c 128
 16 631 15 635 15 639 c 0
 15 644 16 647 19 650 c 128
 22 653 25 655 30 655 c 0
 47 655 62 654 73 653 c 128
 84 652 96 650 106 649 c 128
 116 648 128 647 142 647 c 0
 154 647 165 648 175 650 c 128
 185 652 195 652 207 654 c 128
 219 656 235 657 254 657 c 0
 315 657 362 644 396 618 c 128
 430 592 446 551 446 497 c 0
 446 467 441 442 431 422 c 128
 421 402 408 384 392 372 c 128
 376 360 360 351 344 345 c 0
 342 344 342 343 342 340 c 128
 342 337 343 335 344 333 c 0
 360 304 374 275 389 248 c 128
 404 221 419 195 434 172 c 128
 449 149 464 129 479 110 c 0
 497 88 517 75 536 71 c 128
 555 67 574 65 592 65 c 0
 600 65 604 59 604 46 c 0
 604 30 600 18 592 8 c 128
 584 -2 572 -9 557 -14 c 128
 542 -19 524 -21 504 -21 c 0
238 346 m 0
 257 346 272 351 284 362 c 128
 296 373 305 387 311 406 c 128
 317 425 319 448 319 473 c 0
 319 505 316 531 310 551 c 128
 304 571 295 586 283 596 c 128
 271 606 258 610 241 610 c 0
 231 610 223 604 218 593 c 128
 213 582 210 557 210 518 c 0
 210 496 210 496 210 462 c 128
 210 428 210 429 210 384 c 0
 210 371 213 361 218 355 c 128
 223 349 230 346 238 346 c 0
EndSplineSet
EndChar

StartChar: S
Encoding: 83 83 18
Width: 600
GlyphClass: 2
Flags: W
LayerCount: 2
Fore
SplineSet
273 -14 m 0
 244 -14 217 -11 190 -4 c 128
 163 3 138 13 115 28 c 0
 111 31 107 35 103 39 c 128
 99 43 96 47 94 52 c 0
 87 70 83 92 81 118 c 128
 79 144 77 170 78 197 c 0
 78 202 80 205 84 207 c 128
 88 209 93 210 98 210 c 0
 105 210 110 210 112 208 c 128
 114 206 116 203 119 198 c 0
 134 148 156 108 185 77 c 128
 214 46 247 31 286 31 c 0
 307 31 325 36 339 46 c 128
 353 56 363 67 370 82 c 128
 377 97 381 113 381 128 c 0
 381 149 377 167 369 182 c 128
 361 197 348 210 331 222 c 128
 314 234 293 247 267 261 c 0
 239 277 212 294 186 312 c 128
 160 330 139 351 122 376 c 128
 105 401 97 433 97 471 c 0
 97 510 108 544 128 573 c 128
 148 602 176 624 211 640 c 128
 246 656 286 664 330 664 c 0
 355 664 380 661 403 656 c 128
 426 651 444 645 458 640 c 0
 466 637 472 633 476 629 c 128
 480 625 482 618 485 608 c 0
 488 594 492 577 494 557 c 128
 496 537 497 515 497 491 c 0
 497 482 491 478 479 478 c 0
 473 478 468 479 463 482 c 128
 458 485 454 489 453 494 c 0
 442 534 425 564 403 585 c 128
 381 606 354 616 322 616 c 0
 302 616 285 613 271 606 c 128
 257 599 247 589 240 576 c 128
 233 563 229 546 229 526 c 0
 229 510 235 496 246 482 c 128
 257 468 272 454 293 440 c 128
 314 426 337 411 364 395 c 0
 400 374 429 353 450 332 c 128
 471 311 487 289 497 266 c 128
 507 243 511 217 511 187 c 0
 511 142 502 104 482 74 c 128
 462 44 435 22 399 8 c 128
 363 -6 321 -14 273 -14 c 0
EndSplineSet
EndChar

StartChar: T
Encoding: 84 84 19
Width: 600
GlyphClass: 2
Flags: W
LayerCount: 2
Fore
SplineSet
175 -3 m 0
 172 -3 167 -2 163 1 c 128
 159 4 157 7 157 12 c 0
 157 18 158 22 162 26 c 128
 166 30 170 33 175 34 c 0
 197 39 213 46 222 54 c 128
 231 62 236 76 236 97 c 2
 236 515 l 2
 236 540 236 558 235 570 c 128
 234 582 232 590 230 594 c 128
 228 598 226 600 223 601 c 0
 219 604 213 606 205 607 c 128
 197 608 191 608 188 608 c 2
 174 608 l 2
 155 608 137 602 120 591 c 128
 103 580 89 566 79 550 c 0
 76 545 72 539 66 530 c 128
 60 521 54 514 48 507 c 128
 42 500 35 497 29 497 c 0
 24 497 20 498 18 502 c 128
 16 506 15 510 15 515 c 0
 15 524 17 533 21 542 c 0
 32 568 42 590 47 609 c 128
 52 628 55 649 57 674 c 0
 58 683 61 690 65 694 c 128
 69 698 74 700 80 700 c 0
 85 700 88 696 93 687 c 128
 98 678 103 671 109 666 c 0
 115 661 125 657 139 654 c 128
 153 651 163 650 170 650 c 2
 497 651 l 2
 510 651 522 653 531 656 c 128
 540 659 547 662 551 665 c 0
 561 672 568 679 574 687 c 128
 580 695 587 699 594 699 c 0
 598 699 601 698 602 695 c 128
 603 692 604 688 604 683 c 0
 604 680 604 677 604 674 c 128
 604 671 604 667 603 664 c 0
 600 651 597 637 594 624 c 128
 591 611 588 599 586 587 c 128
 584 575 583 563 583 551 c 2
 583 530 l 2
 583 518 582 508 580 502 c 128
 578 496 574 493 568 493 c 256
 562 493 558 496 554 502 c 128
 550 508 547 518 543 532 c 0
 536 559 526 578 513 590 c 128
 500 602 482 608 457 608 c 2
 422 608 l 2
 413 608 405 605 399 600 c 128
 393 595 389 585 386 570 c 128
 383 555 382 532 382 503 c 2
 382 98 l 2
 382 79 386 66 395 58 c 128
 404 50 420 41 442 34 c 0
 447 32 451 30 455 27 c 128
 459 24 460 20 460 13 c 0
 460 8 459 5 456 2 c 128
 453 -1 449 -2 444 -2 c 0
 432 -2 418 -2 401 -1 c 128
 384 0 367 0 350 1 c 128
 333 2 318 2 307 2 c 256
 296 2 282 2 266 1 c 128
 250 0 234 -1 218 -2 c 128
 202 -3 188 -3 175 -3 c 0
EndSplineSet
EndChar

StartChar: U
Encoding: 85 85 20
Width: 600
GlyphClass: 2
Flags: W
LayerCount: 2
Fore
SplineSet
300 -14 m 0
 249 -14 207 -3 173 20 c 128
 139 43 113 74 96 114 c 128
 79 154 70 202 70 256 c 2
 70 536 l 2
 70 553 67 570 60 586 c 128
 53 602 42 613 28 618 c 256
 14 623 6 630 6 640 c 0
 6 645 8 648 12 651 c 128
 16 654 21 655 27 655 c 0
 45 655 64 654 84 652 c 128
 104 650 122 650 138 650 c 0
 154 650 173 651 196 652 c 128
 219 653 239 654 256 654 c 0
 262 654 267 652 271 650 c 128
 275 648 277 644 277 639 c 0
 277 631 272 626 263 622 c 128
 254 618 246 613 237 608 c 0
 228 603 222 594 216 582 c 128
 210 570 208 553 208 530 c 2
 208 272 l 2
 208 228 213 192 224 164 c 128
 235 136 251 114 269 101 c 128
 287 88 308 81 330 81 c 0
 377 81 412 98 436 132 c 128
 460 166 471 218 471 291 c 0
 471 309 472 329 472 350 c 128
 472 371 473 393 473 415 c 128
 473 437 473 458 472 477 c 0
 471 510 469 535 466 552 c 128
 463 569 458 581 452 590 c 128
 446 599 438 607 427 614 c 0
 421 618 414 621 406 624 c 128
 398 627 394 632 394 639 c 0
 394 644 397 648 401 650 c 128
 405 652 410 654 418 654 c 0
 439 654 455 653 465 652 c 128
 475 651 486 651 499 651 c 0
 509 651 518 651 525 652 c 128
 532 653 539 653 546 654 c 128
 553 655 562 655 573 655 c 0
 579 655 584 654 588 652 c 128
 592 650 594 646 594 640 c 0
 594 631 587 623 573 618 c 0
 554 611 541 600 534 586 c 128
 527 572 522 552 521 527 c 0
 519 478 519 433 518 392 c 128
 517 351 517 308 517 265 c 0
 517 210 507 162 488 120 c 128
 469 78 443 46 410 22 c 128
 377 -2 340 -14 300 -14 c 0
EndSplineSet
EndChar

StartChar: V
Encoding: 86 86 21
Width: 600
GlyphClass: 2
Flags: W
LayerCount: 2
Fore
SplineSet
298 -18 m 0
 290 -18 283 -12 279 0 c 0
 275 11 269 24 263 42 c 128
 257 60 251 77 247 92 c 2
 80 551 l 2
 74 566 67 580 58 592 c 128
 49 604 35 613 18 618 c 0
 13 620 9 622 5 625 c 128
 1 628 0 632 0 639 c 0
 0 644 2 648 5 650 c 128
 8 652 12 654 16 654 c 0
 28 654 41 654 57 653 c 128
 81 652 80 652 104 651 c 128
 120 650 133 650 144 650 c 0
 155 650 170 651 187 652 c 128
 204 653 221 653 239 654 c 128
 257 655 272 655 284 655 c 0
 288 655 294 654 299 651 c 128
 304 648 307 645 307 640 c 0
 307 634 304 630 299 626 c 128
 294 622 288 619 283 618 c 0
 266 613 254 608 247 603 c 128
 240 598 236 589 236 578 c 0
 236 575 236 572 237 568 c 128
 238 564 238 559 239 555 c 2
 345 197 l 2
 346 192 348 190 349 189 c 128
 350 188 352 191 354 198 c 2
 448 493 l 2
 459 527 462 556 456 578 c 128
 450 600 434 613 408 618 c 0
 402 619 397 622 391 626 c 128
 385 630 382 634 382 640 c 0
 382 645 385 648 390 650 c 128
 395 652 401 654 407 654 c 0
 419 654 429 654 437 653 c 128
 445 652 452 652 459 652 c 128
 466 652 476 651 487 651 c 0
 503 651 518 652 532 654 c 128
 546 656 561 657 578 657 c 0
 584 657 590 656 595 654 c 128
 600 652 603 647 603 640 c 256
 603 633 601 628 596 626 c 128
 591 624 587 622 582 620 c 0
 565 615 551 605 541 590 c 128
 531 575 519 552 508 520 c 2
 387 177 l 2
 376 148 368 123 360 102 c 128
 352 81 345 63 339 47 c 128
 333 31 326 15 320 0 c 0
 318 -7 315 -11 312 -14 c 128
 309 -17 304 -18 298 -18 c 0
EndSplineSet
EndChar

StartChar: W
Encoding: 87 87 22
Width: 600
GlyphClass: 2
Flags: W
LayerCount: 2
Fore
SplineSet
217 -17 m 0
 213 -17 211 -15 209 -10 c 128
 207 -5 206 1 204 8 c 2
 55 554 l 2
 51 569 46 583 41 594 c 128
 36 605 28 613 16 618 c 0
 13 620 9 622 5 625 c 128
 1 628 0 632 0 639 c 0
 0 644 2 648 5 650 c 128
 8 652 11 654 14 654 c 0
 26 654 40 653 56 652 c 128
 72 651 86 650 97 650 c 0
 109 650 121 650 133 652 c 128
 145 654 157 655 170 655 c 0
 175 655 180 654 183 651 c 128
 186 648 188 645 188 640 c 0
 188 633 186 629 183 626 c 128
 180 623 176 620 170 618 c 0
 163 615 159 611 158 606 c 128
 157 601 156 595 156 588 c 0
 156 585 157 581 158 575 c 128
 159 569 159 565 159 562 c 0
 166 532 174 502 182 472 c 128
 190 442 198 412 205 382 c 128
 216 336 216 336 227 290 c 128
 234 260 242 230 249 199 c 0
 251 192 252 188 253 187 c 128
 254 186 256 190 258 198 c 2
 287 283 l 2
 288 286 289 289 290 292 c 128
 291 295 291 298 291 301 c 256
 291 304 291 306 290 309 c 128
 289 312 289 315 288 318 c 2
 223 554 l 2
 220 569 214 583 207 594 c 128
 200 605 191 613 179 618 c 0
 176 620 173 622 171 625 c 128
 169 628 167 632 167 639 c 0
 167 644 168 648 170 650 c 128
 172 652 175 654 178 654 c 0
 186 654 195 654 206 653 c 128
 222 652 222 652 238 651 c 128
 249 650 258 650 265 650 c 0
 277 650 288 651 301 652 c 128
 314 653 326 654 339 654 c 0
 345 654 351 652 354 650 c 128
 357 648 359 645 359 640 c 0
 359 636 358 633 357 630 c 128
 356 627 353 626 350 624 c 128
 347 622 344 620 339 618 c 0
 331 615 326 610 325 602 c 128
 324 594 324 585 326 576 c 0
 328 569 329 561 331 550 c 128
 333 539 336 526 339 514 c 128
 342 502 345 490 347 479 c 128
 349 468 351 458 353 451 c 0
 356 441 358 438 359 440 c 128
 360 442 362 446 364 451 c 0
 366 460 369 471 372 486 c 128
 375 501 379 517 382 532 c 128
 385 547 388 558 390 565 c 0
 392 572 393 579 393 587 c 0
 393 598 390 606 385 610 c 128
 380 614 376 618 371 622 c 128
 366 626 364 631 364 638 c 0
 364 643 364 646 365 649 c 128
 366 652 370 653 376 653 c 0
 387 653 394 653 397 652 c 128
 400 651 405 650 410 650 c 0
 416 651 421 652 427 653 c 128
 433 654 442 655 454 655 c 0
 458 655 462 654 466 652 c 128
 470 650 471 645 471 638 c 256
 471 631 469 626 466 624 c 128
 463 622 459 620 456 618 c 0
 444 613 437 604 431 592 c 128
 425 580 420 567 415 552 c 0
 411 538 407 522 402 506 c 128
 397 490 393 474 388 457 c 128
 383 440 378 425 374 410 c 0
 372 401 371 392 372 384 c 128
 373 376 374 367 376 357 c 2
 417 199 l 2
 419 192 420 190 421 192 c 128
 422 194 424 197 425 200 c 0
 440 259 455 319 470 379 c 128
 485 439 497 492 508 539 c 0
 512 558 514 570 515 576 c 128
 516 582 515 588 515 591 c 0
 515 598 514 603 511 608 c 128
 508 613 504 616 499 618 c 0
 495 619 492 622 488 626 c 128
 484 630 482 634 482 640 c 0
 482 645 484 648 488 650 c 128
 492 652 495 654 499 654 c 0
 511 654 519 653 524 652 c 128
 529 651 533 650 538 651 c 0
 544 652 550 652 556 654 c 128
 562 656 570 657 582 657 c 0
 587 657 592 656 596 654 c 128
 600 652 602 647 602 640 c 256
 602 633 600 628 596 626 c 128
 592 624 587 622 584 620 c 0
 576 617 570 612 565 605 c 128
 560 598 555 590 552 582 c 128
 549 574 546 565 543 554 c 2
 402 3 l 2
 400 -4 399 -8 397 -11 c 128
 395 -14 393 -15 390 -15 c 0
 387 -15 384 -13 382 -10 c 128
 380 -7 378 -3 376 4 c 0
 373 16 368 32 362 52 c 128
 356 72 349 96 341 126 c 128
 333 156 323 193 312 234 c 0
 311 239 309 240 307 240 c 128
 305 240 304 238 303 234 c 0
 296 210 288 185 280 159 c 128
 272 133 263 106 255 80 c 128
 247 54 238 29 230 5 c 0
 228 -2 227 -7 225 -11 c 128
 223 -15 220 -17 217 -17 c 0
EndSplineSet
EndChar

StartChar: X
Encoding: 88 88 23
Width: 600
GlyphClass: 2
Flags: W
LayerCount: 2
Fore
SplineSet
20 -7 m 0
 14 -7 8 -6 3 -4 c 128
 -2 -2 -4 3 -4 9 c 0
 -4 16 -2 20 3 22 c 128
 8 24 13 27 18 30 c 0
 29 33 39 39 49 46 c 128
 59 53 71 63 82 76 c 128
 93 89 105 105 117 124 c 2
 214 281 l 2
 221 292 224 303 224 314 c 128
 224 325 221 337 214 350 c 2
 100 550 l 2
 94 561 87 571 81 580 c 128
 75 589 68 597 60 604 c 128
 52 611 44 616 34 619 c 0
 29 621 24 623 20 626 c 128
 16 629 14 633 14 640 c 0
 14 645 17 649 20 651 c 128
 23 653 27 654 31 654 c 0
 55 654 80 653 106 651 c 128
 132 649 157 648 182 648 c 0
 199 648 216 649 233 651 c 128
 250 653 267 654 284 654 c 0
 289 654 294 652 299 650 c 128
 304 648 306 645 306 640 c 0
 306 635 304 630 299 626 c 128
 294 622 288 620 283 619 c 0
 267 614 256 610 248 604 c 128
 240 598 236 590 236 579 c 0
 236 571 240 559 249 544 c 2
 325 414 l 2
 330 405 335 401 339 400 c 128
 343 399 347 403 352 412 c 2
 418 526 l 2
 425 538 431 549 434 558 c 128
 437 567 438 574 438 581 c 0
 438 590 435 597 430 603 c 128
 425 609 415 614 402 618 c 0
 397 620 391 623 386 626 c 128
 381 629 378 634 378 640 c 0
 378 645 381 648 386 650 c 128
 391 652 396 653 403 653 c 0
 414 653 423 652 430 652 c 128
 437 652 443 652 450 651 c 128
 457 650 466 650 476 650 c 0
 491 650 505 652 517 654 c 128
 529 656 543 657 558 657 c 0
 564 657 569 656 575 654 c 128
 581 652 583 647 583 641 c 0
 583 634 581 630 576 628 c 128
 571 626 565 623 559 621 c 0
 547 616 535 608 522 596 c 128
 509 584 496 569 486 554 c 2
 377 385 l 2
 371 376 368 367 367 360 c 128
 366 353 370 343 376 332 c 2
 510 95 l 2
 519 80 527 67 537 56 c 128
 547 45 557 38 567 34 c 0
 573 33 579 30 586 26 c 128
 593 22 596 16 596 9 c 0
 596 4 594 0 590 -2 c 128
 586 -4 581 -5 575 -5 c 0
 555 -5 537 -5 519 -4 c 128
 501 -3 484 -1 468 0 c 128
 452 1 435 2 418 1 c 0
 402 1 387 1 371 -0 c 128
 355 -1 339 -2 323 -2 c 0
 318 -2 314 -1 309 2 c 128
 304 5 302 8 302 13 c 0
 302 18 305 22 310 26 c 128
 315 30 320 33 325 34 c 0
 335 37 345 42 355 48 c 128
 365 54 370 63 370 74 c 0
 370 77 370 81 369 85 c 128
 368 89 366 93 363 97 c 2
 276 251 l 2
 270 263 264 270 259 272 c 128
 254 274 248 267 241 254 c 2
 166 119 l 2
 159 106 154 96 153 87 c 128
 152 78 151 72 152 68 c 0
 153 59 157 50 163 44 c 128
 169 38 178 34 189 32 c 0
 195 31 200 28 205 24 c 128
 210 20 213 16 213 10 c 0
 213 5 211 2 206 0 c 128
 201 -2 196 -3 190 -3 c 0
 175 -3 159 -3 144 -2 c 128
 129 -1 118 -1 108 -1 c 0
 92 -1 77 -2 64 -4 c 128
 51 -6 37 -7 20 -7 c 0
EndSplineSet
EndChar

StartChar: Y
Encoding: 89 89 24
Width: 600
GlyphClass: 2
Flags: W
LayerCount: 2
Fore
SplineSet
177 -6 m 0
 169 -6 163 -5 158 -2 c 128
 153 1 150 5 150 10 c 0
 150 16 153 21 159 24 c 128
 165 27 171 30 178 31 c 0
 201 36 218 45 227 58 c 128
 236 71 240 89 240 110 c 2
 240 248 l 2
 240 271 238 291 232 306 c 128
 226 321 219 336 212 349 c 2
 94 548 l 2
 89 557 83 567 76 576 c 128
 69 585 62 594 53 602 c 128
 44 610 34 615 22 618 c 0
 16 621 10 623 6 626 c 128
 2 629 0 633 0 640 c 0
 0 645 2 648 6 650 c 128
 10 652 14 654 19 654 c 0
 45 654 69 653 93 651 c 128
 117 649 142 648 168 648 c 0
 188 648 207 649 225 651 c 128
 243 653 263 654 283 654 c 0
 289 654 293 652 299 650 c 128
 305 648 307 645 307 640 c 0
 307 635 305 630 299 626 c 128
 293 622 288 620 281 619 c 0
 264 614 252 609 245 604 c 128
 238 599 234 592 234 581 c 0
 234 571 237 559 244 546 c 2
 339 369 l 2
 345 357 349 351 355 351 c 0
 357 351 360 353 363 356 c 128
 366 359 369 363 372 369 c 0
 387 396 400 423 413 450 c 128
 426 477 439 506 452 537 c 0
 455 544 458 551 460 558 c 128
 462 565 463 572 463 578 c 0
 463 591 458 600 447 607 c 128
 436 614 426 617 414 618 c 0
 408 619 401 622 395 626 c 128
 389 630 385 634 385 640 c 0
 385 645 388 648 394 650 c 128
 400 652 406 653 412 653 c 0
 430 653 446 652 460 651 c 128
 474 650 489 649 506 649 c 0
 522 649 536 650 551 652 c 128
 566 654 582 656 599 656 c 0
 606 656 612 655 618 653 c 128
 624 651 627 647 627 640 c 0
 627 634 623 630 617 627 c 128
 611 624 605 622 598 619 c 0
 580 614 564 606 551 594 c 128
 538 582 527 568 518 551 c 0
 508 534 498 516 489 500 c 128
 480 484 471 468 462 452 c 128
 453 436 444 420 435 404 c 128
 426 388 416 371 407 354 c 0
 402 345 398 335 394 325 c 128
 390 315 387 305 385 294 c 128
 383 283 382 271 382 257 c 2
 382 110 l 2
 382 85 386 68 395 58 c 128
 404 48 421 38 445 31 c 0
 452 29 459 27 464 24 c 128
 469 21 472 17 472 11 c 0
 472 6 470 3 465 -0 c 128
 460 -3 455 -5 448 -5 c 0
 435 -5 420 -4 403 -3 c 128
 386 -2 370 -1 354 0 c 128
 338 1 323 2 311 2 c 0
 298 2 284 1 269 0 c 128
 254 -1 238 -2 222 -4 c 128
 206 -6 191 -6 177 -6 c 0
EndSplineSet
EndChar

StartChar: Z
Encoding: 90 90 25
Width: 600
GlyphClass: 2
Flags: W
LayerCount: 2
Fore
SplineSet
523 -4 m 0
 516 -4 503 -4 485 -4 c 128
 467 -4 445 -2 421 -2 c 128
 397 -2 370 -2 342 -1 c 128
 314 0 287 0 260 0 c 0
 236 -1 211 -2 187 -2 c 128
 163 -2 139 -2 115 -3 c 2
 38 -5 l 2
 32 -5 27 -1 25 8 c 128
 23 17 23 22 24 24 c 0
 29 33 35 43 42 54 c 128
 49 65 55 76 62 87 c 128
 69 98 76 109 82 119 c 0
 106 158 130 196 154 234 c 128
 178 272 202 310 226 348 c 128
 250 386 274 424 298 462 c 128
 322 500 346 538 370 577 c 0
 371 580 372 583 373 586 c 128
 374 589 375 591 375 594 c 256
 375 597 374 599 372 601 c 128
 370 603 366 604 359 604 c 0
 342 604 342 604 322 604 c 128
 302 604 302 604 282 604 c 256
 262 604 262 604 245 604 c 128
 228 604 228 604 211 604 c 0
 184 604 159 597 137 582 c 128
 115 567 97 546 82 519 c 0
 78 512 73 504 66 496 c 128
 59 488 51 485 41 485 c 0
 36 485 32 487 30 490 c 128
 28 493 27 497 27 502 c 0
 27 506 28 511 29 516 c 128
 30 521 32 525 34 529 c 0
 41 545 47 559 50 572 c 128
 53 585 56 598 58 612 c 128
 60 626 62 641 63 659 c 0
 64 669 66 676 69 680 c 128
 72 684 78 686 85 686 c 0
 90 686 97 682 107 675 c 128
 117 668 127 662 136 659 c 0
 148 654 160 651 174 650 c 128
 188 649 204 649 222 649 c 0
 250 649 250 649 280 649 c 128
 310 649 310 649 340 649 c 0
 352 649 368 649 388 650 c 128
 408 651 429 652 452 652 c 128
 475 652 497 652 518 653 c 128
 539 654 555 654 567 654 c 0
 572 654 576 651 580 644 c 128
 584 637 585 633 583 630 c 2
 515 522 l 2
 492 487 469 451 447 414 c 128
 425 377 403 339 381 302 c 128
 359 265 337 229 315 193 c 128
 293 157 272 122 251 89 c 0
 244 78 241 70 241 63 c 0
 241 59 243 56 246 54 c 128
 249 52 255 51 263 50 c 0
 272 49 283 49 299 48 c 128
 315 47 328 47 338 47 c 0
 366 47 390 48 411 50 c 128
 432 52 452 57 469 64 c 0
 502 77 529 109 550 161 c 0
 553 166 555 169 558 171 c 128
 561 173 565 174 570 174 c 0
 579 174 583 169 583 160 c 0
 583 152 581 142 579 130 c 128
 577 118 574 106 571 92 c 128
 568 78 564 65 560 52 c 128
 556 39 553 26 550 15 c 0
 548 9 545 4 540 1 c 128
 535 -2 530 -4 523 -4 c 0
EndSplineSet
EndChar

StartChar: a
Encoding: 97 97 26
Width: 600
GlyphClass: 2
Flags: W
LayerCount: 2
Fore
SplineSet
195 -14 m 0
 175 -14 157 -9 140 -1 c 0
 123 7 110 19 100 33 c 0
 90 47 84 62 84 79 c 0
 84 101 92 121 108 136 c 0
 124 151 148 165 179 177 c 2
 286 216 l 2
 303 222 315 227 318 232 c 0
 321 237 323 246 323 258 c 2
 325 315 l 2
 326 333 321 349 312 360 c 0
 303 371 282 376 265 376 c 0
 255 376 228 373 219 370 c 0
 210 367 203 362 198 358 c 0
 196 355 195 351 194 348 c 0
 193 345 193 341 193 337 c 0
 193 333 194 327 194 322 c 0
 194 317 195 312 195 308 c 0
 195 304 188 299 178 292 c 0
 168 285 156 281 142 276 c 0
 128 271 116 268 106 268 c 0
 102 268 98 270 94 274 c 0
 90 278 88 283 88 289 c 0
 88 300 91 310 98 320 c 0
 105 330 118 342 135 356 c 0
 152 371 172 383 192 395 c 0
 212 407 232 415 252 422 c 0
 272 429 315 432 331 432 c 0
 370 432 402 420 426 397 c 0
 450 374 461 344 459 306 c 2
 453 104 l 2
 452 89 455 76 462 65 c 0
 469 54 477 49 488 49 c 0
 503 49 516 54 526 62 c 0
 528 64 531 65 533 65 c 0
 536 65 540 64 542 62 c 0
 544 60 547 57 547 54 c 0
 547 46 540 35 527 23 c 0
 512 11 498 2 482 -4 c 0
 466 -10 452 -14 434 -14 c 0
 392 -14 366 5 338 43 c 1
 335 43 l 1
 309 23 286 8 264 -1 c 0
 242 -10 218 -14 195 -14 c 0
261 51 m 0
 270 51 282 52 288 54 c 0
 294 56 303 61 309 66 c 0
 311 68 315 72 316 77 c 0
 317 82 318 86 318 92 c 2
 323 164 l 2
 323 170 322 175 320 177 c 0
 318 179 315 180 310 180 c 0
 309 180 298 180 296 179 c 0
 294 178 291 177 288 176 c 0
 264 166 245 157 230 147 c 0
 215 137 207 122 207 101 c 0
 207 82 213 69 224 62 c 0
 235 55 250 51 261 51 c 0
EndSplineSet
EndChar

StartChar: b
Encoding: 98 98 27
Width: 600
GlyphClass: 2
Flags: W
LayerCount: 2
Fore
SplineSet
304 -14 m 0
 285 -14 266 -12 250 -9 c 128
 234 -6 219 -2 206 1 c 0
 196 4 186 7 178 9 c 128
 170 11 163 12 158 12 c 0
 151 12 145 10 139 8 c 128
 133 6 127 3 122 -1 c 0
 116 -6 111 -8 108 -8 c 0
 102 -8 97 -7 94 -4 c 128
 91 -1 90 2 90 5 c 0
 90 11 92 23 96 40 c 128
 100 57 101 79 100 105 c 2
 96 550 l 2
 96 567 93 582 88 596 c 128
 83 610 73 619 57 622 c 0
 54 623 50 624 48 627 c 128
 46 630 45 633 45 638 c 0
 45 641 46 644 48 647 c 128
 50 650 53 651 56 652 c 0
 71 655 88 660 107 666 c 128
 126 672 146 679 164 686 c 128
 182 693 196 698 206 701 c 0
 213 704 217 705 220 705 c 0
 224 705 226 704 228 702 c 128
 230 700 231 696 231 693 c 0
 231 689 230 681 228 668 c 128
 226 655 226 643 226 630 c 2
 226 416 l 2
 226 407 227 401 228 396 c 128
 229 391 232 388 235 388 c 0
 256 402 278 412 300 420 c 128
 322 428 343 432 363 432 c 0
 398 432 429 423 457 405 c 128
 485 387 508 362 524 331 c 128
 540 300 548 264 548 225 c 0
 548 178 538 136 517 100 c 128
 496 64 468 36 432 16 c 128
 396 -4 353 -14 304 -14 c 0
322 28 m 0
 340 28 355 36 368 52 c 128
 381 68 391 88 398 114 c 128
 405 140 408 168 408 199 c 0
 408 226 405 253 398 280 c 128
 391 307 379 330 364 348 c 128
 349 366 330 376 307 376 c 0
 295 376 281 374 265 370 c 128
 249 366 236 361 226 353 c 1
 226 140 l 2
 226 119 231 99 240 82 c 128
 249 65 260 51 275 42 c 128
 290 33 305 28 322 28 c 0
EndSplineSet
EndChar

StartChar: c
Encoding: 99 99 28
Width: 600
GlyphClass: 2
Flags: W
LayerCount: 2
Fore
SplineSet
306 -14 m 0
 266 -14 229 -5 197 14 c 0
 165 33 139 58 120 91 c 0
 101 124 93 160 93 201 c 0
 93 244 105 284 128 318 c 0
 151 352 179 379 218 400 c 0
 257 421 299 432 347 432 c 0
 407 432 466 414 502 378 c 0
 508 371 511 366 511 360 c 0
 511 356 508 350 502 342 c 0
 496 334 490 328 482 322 c 0
 474 316 468 313 463 313 c 0
 457 313 451 315 446 318 c 0
 441 321 434 326 429 331 c 0
 411 345 394 357 376 366 c 0
 358 375 322 380 307 380 c 0
 276 380 247 370 230 349 c 0
 213 328 204 293 204 246 c 0
 204 214 209 185 223 162 c 0
 237 139 257 120 280 107 c 0
 303 94 336 88 367 88 c 0
 390 88 422 91 437 97 c 0
 452 103 467 114 482 127 c 0
 485 129 488 132 490 134 c 0
 492 136 496 136 499 136 c 0
 507 136 511 130 511 120 c 0
 511 117 510 114 509 109 c 0
 508 104 506 98 503 92 c 0
 497 79 487 65 470 48 c 0
 453 31 434 16 410 4 c 0
 386 -8 338 -14 306 -14 c 0
EndSplineSet
EndChar

StartChar: d
Encoding: 100 100 29
Width: 600
GlyphClass: 2
Flags: W
LayerCount: 2
Fore
SplineSet
381 -19 m 256
 379 -19 376 -16 372 -12 c 128
 368 -8 367 -5 367 -2 c 0
 368 8 369 17 370 26 c 128
 371 35 372 44 372 51 c 2
 372 57 l 1
 359 36 340 19 316 6 c 128
 292 -7 267 -14 240 -14 c 0
 203 -14 169 -5 140 14 c 128
 111 33 89 58 72 90 c 128
 55 122 47 157 47 195 c 0
 47 240 57 281 77 316 c 128
 97 351 125 380 161 400 c 128
 197 420 239 430 286 430 c 0
 296 430 307 430 318 428 c 128
 329 426 339 424 348 421 c 0
 357 419 362 418 361 418 c 1
 364 418 365 422 365 431 c 2
 365 550 l 2
 365 574 362 591 356 602 c 128
 350 613 340 619 326 622 c 0
 318 624 314 629 314 637 c 0
 314 646 318 651 325 652 c 0
 350 657 376 664 402 672 c 128
 428 680 449 689 466 696 c 0
 475 700 481 703 484 704 c 128
 487 705 489 705 490 705 c 0
 497 705 501 701 501 693 c 1
 501 695 501 693 500 686 c 128
 499 679 499 669 498 658 c 128
 497 641 497 641 496 624 c 2
 491 120 l 2
 491 97 493 81 496 71 c 128
 499 61 505 56 514 56 c 0
 517 56 520 56 524 57 c 128
 528 58 538 58 553 59 c 0
 562 60 567 56 567 49 c 0
 567 44 565 38 561 32 c 128
 557 26 553 23 550 23 c 0
 526 20 500 16 474 10 c 128
 448 4 423 -4 398 -13 c 0
 394 -15 391 -17 388 -18 c 128
 385 -19 383 -19 381 -19 c 256
291 54 m 0
 301 54 313 57 328 62 c 128
 343 67 356 75 365 85 c 1
 364 306 l 2
 364 318 359 330 350 342 c 128
 341 354 330 363 316 371 c 128
 302 379 289 383 276 383 c 0
 260 383 246 377 232 364 c 128
 218 351 206 332 198 308 c 128
 190 284 186 256 186 222 c 0
 186 195 188 171 194 150 c 128
 200 129 208 112 218 98 c 128
 228 84 239 72 252 65 c 128
 265 58 278 54 291 54 c 0
EndSplineSet
EndChar

StartChar: e
Encoding: 101 101 30
Width: 600
GlyphClass: 2
Flags: W
LayerCount: 2
Fore
SplineSet
305 -14 m 0
 263 -14 226 -5 194 14 c 0
 162 33 136 59 118 92 c 0
 100 125 90 163 90 205 c 0
 90 247 99 284 122 319 c 0
 145 354 176 382 213 402 c 0
 250 422 292 432 337 432 c 0
 370 432 399 427 425 414 c 0
 451 401 470 385 486 364 c 0
 502 343 510 320 510 294 c 0
 510 268 498 256 474 256 c 2
 233 256 l 2
 222 256 215 253 209 248 c 0
 203 243 202 234 202 221 c 0
 202 196 209 172 223 151 c 0
 237 130 258 114 281 102 c 0
 304 90 336 84 365 84 c 0
 387 84 419 88 435 96 c 0
 451 104 468 112 484 125 c 0
 487 127 490 129 492 131 c 0
 494 133 496 133 498 133 c 0
 504 133 508 129 508 120 c 0
 508 112 505 102 500 90 c 0
 492 73 482 56 466 40 c 0
 450 24 432 10 407 0 c 0
 382 -10 338 -14 305 -14 c 0
235 298 m 2
 316 298 l 2
 337 298 356 298 366 299 c 0
 376 300 386 301 395 303 c 0
 398 305 402 308 404 314 c 0
 406 320 409 324 409 331 c 0
 409 349 400 362 383 374 c 0
 366 386 343 392 322 392 c 0
 306 392 285 389 270 381 c 0
 255 373 243 362 232 350 c 0
 221 338 217 325 218 312 c 0
 218 302 224 298 235 298 c 2
EndSplineSet
EndChar

StartChar: f
Encoding: 102 102 31
Width: 600
GlyphClass: 1
Flags: W
LayerCount: 2
Fore
SplineSet
161 -3 m 0
 156 -3 152 -2 148 0 c 128
 144 2 141 6 141 11 c 0
 141 16 143 21 146 24 c 128
 149 27 154 29 160 31 c 0
 179 36 190 41 195 46 c 128
 200 51 202 59 202 70 c 2
 202 355 l 1
 195 355 188 356 179 356 c 128
 170 356 161 356 150 357 c 0
 146 358 143 361 140 368 c 128
 137 375 136 381 136 386 c 0
 136 389 137 390 139 392 c 128
 141 394 143 395 145 396 c 0
 154 399 163 403 172 407 c 128
 181 411 191 415 202 420 c 1
 205 474 215 519 232 556 c 128
 249 593 270 622 296 644 c 128
 322 666 349 682 378 692 c 128
 407 702 434 706 459 706 c 0
 504 706 538 700 558 687 c 128
 578 674 588 655 588 628 c 0
 588 613 585 601 578 592 c 128
 571 583 562 578 549 578 c 0
 543 578 537 581 531 586 c 128
 525 591 519 598 512 606 c 0
 501 619 487 630 472 642 c 128
 457 654 438 660 417 660 c 0
 390 660 368 649 354 626 c 128
 340 603 333 566 333 515 c 2
 333 433 l 2
 333 428 335 424 338 422 c 128
 341 420 345 419 349 419 c 2
 462 419 l 2
 467 419 471 417 474 414 c 128
 477 411 478 407 478 403 c 0
 478 397 477 391 476 384 c 128
 475 377 473 372 470 367 c 0
 467 362 464 359 462 359 c 2
 370 359 l 2
 355 359 345 357 340 354 c 128
 335 351 333 345 333 337 c 2
 333 87 l 2
 333 70 337 57 345 50 c 128
 353 43 371 37 398 31 c 0
 411 29 418 23 418 13 c 0
 418 9 416 5 413 2 c 128
 410 -1 406 -3 401 -3 c 0
 381 -3 359 -2 334 -0 c 128
 309 2 287 2 270 2 c 0
 259 2 248 2 236 1 c 128
 224 0 212 -1 200 -2 c 128
 188 -3 174 -3 161 -3 c 0
EndSplineSet
EndChar

StartChar: g
Encoding: 103 103 32
Width: 600
GlyphClass: 2
Flags: W
LayerCount: 2
Fore
SplineSet
266 -289 m 0
 201 -289 150 -278 114 -258 c 128
 78 -238 59 -210 59 -175 c 0
 59 -155 61 -138 66 -126 c 128
 71 -114 81 -102 98 -90 c 0
 111 -81 123 -71 135 -62 c 128
 147 -53 157 -45 166 -39 c 1
 215 -56 l 1
 194 -68 178 -81 166 -95 c 128
 154 -109 149 -125 149 -144 c 0
 149 -171 161 -194 184 -212 c 128
 207 -230 235 -239 270 -239 c 0
 316 -239 349 -230 368 -212 c 0
 380 -200 390 -187 397 -172 c 128
 404 -157 408 -141 408 -126 c 0
 408 -115 404 -107 397 -100 c 128
 390 -93 377 -88 358 -83 c 128
 339 -78 312 -74 278 -71 c 0
 209 -64 159 -51 130 -32 c 128
 101 -13 86 13 86 45 c 0
 86 51 88 58 92 64 c 128
 96 70 102 77 113 84 c 0
 124 92 133 100 142 106 c 128
 151 112 158 118 164 124 c 128
 170 130 174 134 176 139 c 1
 226 122 l 1
 213 117 202 111 194 103 c 128
 186 95 181 88 181 82 c 0
 181 75 185 69 194 64 c 128
 203 59 217 55 238 52 c 128
 259 49 287 47 323 44 c 0
 395 38 447 26 480 10 c 128
 513 -6 529 -30 529 -61 c 0
 529 -88 521 -115 506 -142 c 128
 491 -169 470 -194 445 -216 c 128
 420 -238 391 -257 360 -270 c 128
 329 -283 298 -289 266 -289 c 0
279 140 m 0
 300 140 318 152 330 176 c 128
 342 200 348 230 348 269 c 0
 348 294 344 316 338 334 c 128
 332 352 324 366 313 376 c 128
 302 386 290 392 275 392 c 0
 262 392 251 387 240 376 c 128
 229 365 220 352 214 334 c 128
 208 316 205 295 205 272 c 0
 205 247 208 225 215 205 c 128
 222 185 231 170 242 158 c 128
 253 146 266 140 279 140 c 0
268 96 m 0
 239 96 210 104 182 118 c 128
 154 132 130 152 112 177 c 128
 94 202 84 231 84 262 c 0
 84 295 93 325 112 351 c 128
 131 377 157 398 188 412 c 128
 219 426 251 433 286 433 c 0
 307 433 326 431 344 426 c 128
 362 421 383 417 405 414 c 0
 418 411 430 409 443 408 c 128
 456 407 470 406 485 406 c 0
 495 406 505 407 515 408 c 128
 525 409 533 409 540 409 c 0
 551 409 556 402 556 387 c 0
 556 374 552 362 543 351 c 0
 539 346 535 344 530 344 c 2
 503 344 l 2
 486 344 474 341 468 336 c 0
 467 335 466 334 465 332 c 128
 464 330 464 326 464 320 c 128
 464 314 463 304 463 289 c 0
 463 254 454 222 436 193 c 128
 418 164 394 140 365 122 c 128
 336 104 303 96 268 96 c 0
EndSplineSet
EndChar

StartChar: h
Encoding: 104 104 33
Width: 600
GlyphClass: 2
Flags: W
LayerCount: 2
Fore
SplineSet
57 -3 m 256
 44 -3 37 2 37 11 c 0
 37 20 45 26 60 31 c 0
 70 34 79 38 86 42 c 128
 93 46 97 55 98 70 c 2
 98 550 l 2
 98 568 96 584 91 597 c 128
 86 610 76 619 59 622 c 0
 52 623 48 628 48 637 c 256
 48 646 51 651 58 652 c 0
 73 655 90 660 110 666 c 128
 130 672 149 679 168 686 c 128
 187 693 201 699 211 702 c 0
 216 704 221 705 224 705 c 0
 228 705 231 704 232 702 c 128
 233 700 234 696 234 693 c 256
 234 690 233 684 232 678 c 128
 231 672 231 665 230 656 c 128
 229 647 229 636 228 624 c 2
 228 393 l 2
 228 386 228 380 229 375 c 128
 230 370 231 366 234 364 c 1
 244 373 256 382 270 392 c 128
 284 402 300 412 318 420 c 128
 336 428 357 432 380 432 c 0
 415 432 445 419 469 394 c 128
 493 369 505 335 505 290 c 2
 505 72 l 2
 505 58 509 49 516 44 c 128
 523 39 532 34 541 31 c 0
 548 29 554 27 558 24 c 128
 562 21 563 16 563 11 c 0
 563 2 556 -3 541 -3 c 0
 525 -3 512 -3 502 -2 c 128
 492 -1 483 0 474 1 c 128
 465 2 453 2 439 2 c 0
 424 2 413 2 405 1 c 128
 397 0 389 -1 380 -2 c 128
 371 -3 359 -3 343 -3 c 0
 326 -3 318 2 318 12 c 0
 318 17 320 21 324 24 c 128
 328 27 334 30 339 31 c 0
 348 34 356 39 363 44 c 128
 370 49 374 59 374 74 c 2
 374 271 l 2
 374 286 371 298 365 310 c 128
 359 322 352 331 342 338 c 128
 332 345 321 349 310 349 c 0
 300 349 289 347 277 344 c 128
 265 341 253 335 242 327 c 0
 237 323 234 319 232 314 c 128
 230 309 229 301 229 291 c 2
 229 72 l 2
 229 59 232 49 239 44 c 128
 246 39 253 35 262 32 c 0
 268 30 273 27 277 24 c 128
 281 21 283 17 283 12 c 0
 283 2 277 -3 265 -3 c 0
 252 -3 240 -3 228 -2 c 128
 216 -1 204 0 194 1 c 128
 184 2 173 2 161 2 c 0
 150 2 139 2 128 1 c 128
 117 0 105 -1 94 -2 c 128
 83 -3 70 -3 57 -3 c 256
EndSplineSet
EndChar

StartChar: k
Encoding: 107 107 36
Width: 600
GlyphClass: 2
Flags: W
LayerCount: 2
Fore
SplineSet
63 -3 m 256
 50 -3 43 2 43 11 c 0
 43 16 45 21 49 24 c 128
 53 27 59 29 66 31 c 0
 76 34 84 38 92 42 c 128
 100 46 104 55 104 70 c 2
 104 550 l 2
 104 569 102 585 97 598 c 128
 92 611 82 619 65 622 c 0
 58 623 54 628 54 637 c 256
 54 646 57 651 64 652 c 0
 81 655 98 660 118 666 c 128
 138 672 157 679 175 686 c 128
 193 693 207 699 217 702 c 0
 222 704 227 705 230 705 c 0
 234 705 237 704 238 702 c 128
 239 700 240 696 240 693 c 0
 240 688 240 679 238 666 c 128
 236 653 235 639 234 624 c 2
 235 250 l 2
 235 242 238 238 244 238 c 0
 246 238 249 238 252 240 c 128
 255 242 257 244 260 246 c 0
 285 267 307 289 326 311 c 128
 345 333 358 349 365 359 c 0
 368 363 370 366 372 369 c 128
 374 372 374 374 374 376 c 0
 374 379 371 382 366 386 c 128
 361 390 353 393 342 394 c 0
 334 395 330 399 330 405 c 256
 330 411 333 414 338 416 c 128
 343 418 347 419 352 419 c 2
 401 419 l 2
 413 419 429 419 448 420 c 128
 467 421 486 423 505 425 c 128
 524 427 537 428 545 428 c 0
 552 428 556 424 556 417 c 0
 556 412 554 408 550 404 c 128
 546 400 540 397 533 396 c 0
 522 393 508 389 493 382 c 128
 478 375 462 368 447 359 c 0
 436 353 423 345 410 336 c 128
 397 327 384 318 372 308 c 128
 360 298 349 288 339 279 c 0
 336 276 334 272 334 268 c 0
 334 266 335 264 336 262 c 128
 337 260 339 259 340 257 c 0
 356 236 371 216 386 196 c 128
 401 176 415 156 430 138 c 128
 445 120 460 102 475 84 c 0
 486 72 500 61 516 51 c 128
 532 41 545 34 556 30 c 0
 561 28 568 26 574 23 c 128
 580 20 583 16 583 11 c 0
 583 2 576 -3 561 -3 c 0
 521 -3 482 -3 444 -2 c 128
 406 -1 369 0 336 0 c 0
 323 0 316 5 316 14 c 0
 316 19 318 23 322 26 c 128
 326 29 331 31 338 34 c 0
 344 36 348 38 350 41 c 128
 352 44 354 47 355 50 c 0
 355 53 354 56 352 60 c 128
 350 64 346 67 343 72 c 2
 246 206 l 2
 244 207 242 208 241 208 c 0
 237 207 235 205 235 201 c 0
 235 186 235 186 235 170 c 128
 235 154 235 154 235 139 c 0
 235 123 235 122 235 104 c 128
 235 86 235 86 235 69 c 256
 235 58 237 49 242 44 c 128
 247 39 255 35 265 32 c 0
 270 30 276 27 280 24 c 128
 284 21 286 17 286 12 c 0
 286 7 284 4 280 1 c 128
 276 -2 273 -3 268 -3 c 0
 255 -3 243 -3 232 -2 c 128
 221 -1 210 0 200 1 c 128
 190 2 179 2 167 2 c 0
 156 2 145 2 134 1 c 128
 123 0 111 -1 100 -2 c 128
 89 -3 76 -3 63 -3 c 256
EndSplineSet
EndChar

StartChar: l
Encoding: 108 108 37
Width: 600
GlyphClass: 2
Flags: W
LayerCount: 2
Fore
SplineSet
234 86 m 2
 234 550 l 2
 234 568 231 584 226 597 c 128
 221 610 211 619 194 622 c 0
 187 623 184 628 184 637 c 256
 184 646 187 651 193 652 c 0
 210 655 229 660 249 666 c 128
 269 672 288 679 306 686 c 128
 324 693 338 699 348 702 c 0
 353 704 358 705 361 705 c 0
 365 705 368 704 369 702 c 128
 370 700 371 696 371 693 c 0
 371 688 370 680 368 667 c 128
 366 654 365 640 365 624 c 2
 365 102 l 2
 365 88 367 75 373 64 c 128
 379 53 386 48 395 48 c 0
 404 48 411 49 416 52 c 128
 421 55 426 59 431 63 c 0
 435 68 438 68 442 64 c 128
 446 60 448 57 448 54 c 256
 448 51 444 43 436 32 c 128
 428 21 414 11 398 1 c 128
 382 -9 361 -14 336 -14 c 0
 307 -14 284 -4 264 16 c 128
 244 36 234 59 234 86 c 2
EndSplineSet
Substitution2: "'ss01' Original glyphs-1" l.ss01
EndChar

StartChar: m
Encoding: 109 109 38
Width: 600
GlyphClass: 2
Flags: W
LayerCount: 2
Fore
SplineSet
30 -3 m 0
 27 -3 23 -2 20 1 c 128
 17 4 15 7 15 12 c 0
 15 17 16 22 20 25 c 128
 24 28 28 31 32 33 c 0
 39 36 46 40 51 44 c 128
 56 48 59 58 59 71 c 2
 59 303 l 2
 59 316 58 328 55 338 c 128
 52 348 46 353 38 355 c 0
 36 356 34 357 32 360 c 128
 30 363 29 367 29 374 c 0
 29 384 32 390 37 392 c 0
 49 396 62 400 77 406 c 128
 92 412 106 418 120 425 c 128
 134 432 146 438 155 445 c 0
 157 446 159 448 160 449 c 128
 161 450 164 451 165 451 c 0
 170 451 172 447 172 439 c 0
 172 434 171 424 170 412 c 128
 169 400 168 389 168 380 c 0
 168 373 169 369 170 368 c 2
 171 368 l 1
 187 389 203 406 221 418 c 128
 239 430 259 436 280 436 c 0
 295 436 308 428 321 413 c 128
 334 398 344 379 350 357 c 1
 354 357 l 1
 368 382 384 402 402 416 c 128
 420 430 440 436 463 436 c 0
 478 436 492 430 505 419 c 128
 518 408 527 391 535 370 c 128
 543 349 547 323 547 292 c 2
 547 70 l 2
 547 57 550 48 555 44 c 128
 560 40 567 36 574 33 c 0
 578 31 582 28 585 25 c 128
 588 22 589 17 589 12 c 0
 589 7 588 4 585 1 c 128
 582 -2 579 -3 576 -3 c 0
 566 -3 557 -3 548 -2 c 128
 539 -1 529 0 520 1 c 128
 511 2 503 2 494 2 c 0
 486 2 478 2 470 1 c 128
 462 0 454 -1 446 -2 c 128
 438 -3 430 -3 420 -3 c 0
 417 -3 414 -2 412 1 c 128
 410 4 408 7 408 12 c 0
 408 17 409 22 412 25 c 128
 415 28 418 31 422 33 c 0
 428 36 433 39 436 43 c 128
 439 47 440 54 440 63 c 2
 440 267 l 2
 440 284 438 298 435 310 c 128
 432 322 429 330 423 336 c 128
 417 342 410 346 403 346 c 0
 398 346 392 344 385 340 c 128
 378 336 372 331 365 323 c 0
 360 316 356 305 356 288 c 2
 356 70 l 2
 356 57 358 48 361 44 c 128
 364 40 369 36 376 33 c 0
 380 31 384 28 387 25 c 128
 390 22 391 17 391 12 c 0
 391 7 390 4 387 1 c 128
 384 -2 382 -3 379 -3 c 0
 369 -3 360 -3 352 -2 c 128
 344 -1 336 0 328 1 c 128
 320 2 312 2 303 2 c 0
 295 2 287 2 279 1 c 128
 271 0 264 -1 256 -2 c 128
 248 -3 240 -3 230 -3 c 0
 227 -3 223 -2 221 1 c 128
 219 4 218 7 218 12 c 0
 218 17 219 22 222 25 c 128
 225 28 228 31 232 33 c 0
 238 36 242 39 245 43 c 128
 248 47 249 54 249 63 c 2
 249 267 l 2
 249 284 248 298 245 309 c 128
 242 320 237 330 232 336 c 128
 227 342 220 345 213 345 c 0
 208 345 203 343 196 340 c 128
 189 337 181 331 173 324 c 0
 168 319 166 309 166 292 c 2
 166 70 l 2
 166 59 167 51 169 46 c 128
 171 41 177 36 184 33 c 0
 188 31 191 28 194 25 c 128
 197 22 198 17 198 12 c 0
 198 8 196 5 194 2 c 128
 192 -1 189 -3 186 -3 c 0
 176 -3 167 -3 159 -2 c 128
 151 -1 143 0 136 1 c 128
 129 2 120 2 111 2 c 0
 103 2 95 2 86 1 c 128
 77 0 67 -1 58 -2 c 128
 49 -3 40 -3 30 -3 c 0
EndSplineSet
EndChar

StartChar: n
Encoding: 110 110 39
Width: 600
GlyphClass: 2
Flags: W
LayerCount: 2
Fore
SplineSet
58 -3 m 0
 53 -3 48 -2 44 0 c 128
 40 2 38 6 38 11 c 0
 38 16 40 21 45 24 c 128
 50 27 55 29 61 31 c 0
 71 34 80 38 88 42 c 128
 96 46 99 56 99 69 c 2
 99 298 l 2
 99 313 96 325 92 335 c 128
 88 345 80 351 68 354 c 0
 65 355 62 356 60 359 c 128
 58 362 57 366 57 372 c 0
 57 381 60 387 67 389 c 0
 90 394 115 401 142 410 c 128
 169 419 192 429 211 439 c 0
 214 440 217 442 220 444 c 128
 223 446 226 447 229 447 c 0
 233 447 235 446 236 444 c 128
 237 442 238 438 238 435 c 0
 238 430 238 422 236 410 c 128
 234 398 233 387 233 378 c 0
 233 375 234 372 234 369 c 128
 234 366 234 364 235 363 c 0
 258 385 281 402 304 414 c 128
 327 426 354 432 385 432 c 0
 420 432 448 420 472 394 c 128
 496 368 508 333 508 289 c 2
 508 69 l 2
 508 56 512 46 520 42 c 128
 528 38 536 34 546 31 c 0
 551 29 556 27 560 24 c 128
 564 21 566 16 566 11 c 0
 566 6 564 2 560 0 c 128
 556 -2 553 -3 549 -3 c 0
 536 -3 524 -3 512 -2 c 128
 500 -1 489 0 478 1 c 128
 467 2 455 2 443 2 c 0
 432 2 420 2 409 1 c 128
 398 0 386 -1 375 -2 c 128
 364 -3 351 -3 338 -3 c 0
 334 -3 330 -2 326 0 c 128
 322 2 321 6 321 11 c 0
 321 16 323 21 327 24 c 128
 331 27 336 29 341 31 c 0
 351 34 359 38 366 42 c 128
 373 46 376 56 376 69 c 2
 376 268 l 2
 376 293 370 314 358 328 c 128
 346 342 331 349 312 350 c 0
 297 350 284 348 273 343 c 128
 262 338 250 332 238 324 c 0
 235 321 233 318 232 315 c 128
 231 312 230 308 230 305 c 2
 230 69 l 2
 230 56 234 46 241 42 c 128
 248 38 257 34 266 31 c 0
 279 27 286 20 286 11 c 0
 286 7 284 4 281 1 c 128
 278 -2 274 -3 269 -3 c 0
 256 -3 243 -3 232 -2 c 128
 221 -1 210 0 200 1 c 128
 190 2 179 2 167 2 c 0
 156 2 144 2 132 1 c 128
 120 0 108 -1 96 -2 c 128
 84 -3 71 -3 58 -3 c 0
EndSplineSet
EndChar

StartChar: o
Encoding: 111 111 40
Width: 600
GlyphClass: 2
Flags: W
LayerCount: 2
Fore
SplineSet
285 -14 m 0
 245 -14 209 -5 177 13 c 128
 145 31 119 56 100 88 c 128
 81 120 72 155 72 195 c 0
 72 227 78 257 90 286 c 128
 102 315 119 340 140 362 c 128
 161 384 186 401 215 414 c 128
 244 427 274 433 307 433 c 0
 348 433 386 423 419 404 c 128
 452 385 478 360 498 328 c 128
 518 296 528 261 528 224 c 0
 528 181 518 142 500 106 c 128
 482 70 456 40 420 18 c 128
 384 -4 339 -14 285 -14 c 0
305 30 m 0
 319 30 332 32 342 38 c 128
 352 44 360 53 367 64 c 0
 375 77 381 95 384 118 c 128
 387 141 388 169 388 200 c 0
 388 236 384 268 376 296 c 128
 368 324 356 347 342 364 c 128
 328 381 311 389 292 389 c 0
 281 389 272 388 263 384 c 128
 254 380 247 375 240 368 c 0
 229 355 220 336 216 311 c 128
 212 286 210 256 210 220 c 0
 210 188 214 157 222 128 c 128
 230 99 242 76 256 58 c 128
 270 40 287 30 305 30 c 0
EndSplineSet
EndChar

StartChar: p
Encoding: 112 112 41
Width: 600
GlyphClass: 2
Flags: W
LayerCount: 2
Fore
SplineSet
61 -262 m 0
 56 -262 52 -260 48 -258 c 128
 44 -256 41 -253 41 -248 c 0
 41 -243 44 -239 48 -236 c 128
 52 -233 57 -230 64 -228 c 0
 78 -223 88 -219 94 -214 c 128
 100 -209 102 -201 102 -190 c 2
 102 289 l 2
 102 298 100 306 97 314 c 128
 94 322 89 330 83 336 c 128
 77 342 69 346 60 347 c 0
 56 348 53 350 51 352 c 128
 49 354 48 359 48 365 c 0
 48 370 49 374 51 377 c 128
 53 380 56 381 59 382 c 0
 82 387 107 394 134 403 c 128
 161 412 184 421 203 430 c 0
 206 431 209 432 212 434 c 128
 215 436 217 437 220 437 c 0
 224 437 227 436 228 434 c 128
 229 432 229 428 229 425 c 0
 229 420 228 410 226 398 c 128
 224 386 224 376 224 367 c 0
 224 360 225 356 226 355 c 1
 233 362 245 371 262 382 c 128
 279 393 298 403 320 412 c 128
 342 421 363 425 384 425 c 0
 420 425 451 415 476 396 c 128
 501 377 520 354 533 324 c 128
 546 294 553 263 553 230 c 0
 553 199 548 168 536 139 c 128
 524 110 507 84 486 60 c 128
 465 36 440 17 412 3 c 128
 384 -11 354 -18 322 -18 c 0
 315 -18 306 -17 296 -15 c 128
 286 -13 274 -10 264 -7 c 128
 254 -4 245 0 236 3 c 0
 235 3 235 2 234 0 c 128
 233 -2 232 -4 232 -7 c 128
 232 -10 232 -12 232 -15 c 2
 232 -181 l 2
 232 -190 234 -197 238 -203 c 128
 242 -209 249 -214 257 -218 c 128
 265 -222 275 -225 286 -228 c 0
 293 -230 298 -233 302 -236 c 128
 306 -239 308 -243 308 -248 c 0
 308 -252 306 -255 302 -258 c 128
 298 -261 295 -262 291 -262 c 0
 271 -262 250 -262 228 -260 c 128
 206 -258 187 -257 170 -257 c 0
 159 -257 148 -257 136 -258 c 128
 124 -259 112 -259 100 -260 c 128
 88 -261 74 -262 61 -262 c 0
319 28 m 0
 326 28 336 30 346 36 c 128
 356 42 366 51 376 64 c 128
 386 77 395 94 402 115 c 128
 409 136 413 163 413 194 c 0
 413 231 409 260 402 282 c 128
 395 304 386 319 375 330 c 128
 364 341 353 348 342 352 c 128
 331 356 322 357 314 357 c 0
 302 357 290 354 277 349 c 128
 264 344 254 337 246 330 c 128
 238 323 234 316 234 310 c 0
 234 302 234 302 234 279 c 128
 234 264 234 247 234 228 c 128
 234 209 232 192 232 177 c 128
 232 162 232 151 232 145 c 0
 232 130 235 112 242 94 c 128
 249 76 259 61 272 48 c 128
 285 35 301 28 319 28 c 0
EndSplineSet
EndChar

StartChar: q
Encoding: 113 113 42
Width: 600
GlyphClass: 1
Flags: W
LayerCount: 2
Fore
SplineSet
321 -287 m 0
 317 -287 314 -286 310 -283 c 128
 306 -280 304 -277 304 -273 c 0
 304 -268 306 -263 310 -260 c 128
 314 -257 320 -255 327 -253 c 0
 344 -248 356 -242 364 -236 c 128
 372 -230 377 -220 377 -205 c 2
 378 15 l 2
 378 23 378 28 376 32 c 128
 374 36 372 38 371 38 c 0
 370 37 368 36 366 36 c 128
 364 36 363 35 362 34 c 0
 353 28 342 22 329 14 c 128
 316 6 301 -1 286 -6 c 128
 271 -11 257 -14 244 -14 c 0
 208 -14 176 -4 148 14 c 128
 120 32 97 57 80 88 c 128
 63 119 55 154 55 193 c 0
 55 235 64 274 82 310 c 128
 100 346 128 376 165 399 c 128
 202 422 248 433 303 433 c 0
 326 433 346 431 365 427 c 128
 384 423 400 418 414 414 c 128
 428 410 438 408 446 408 c 0
 453 408 459 409 465 412 c 128
 471 415 477 419 482 424 c 0
 485 425 488 427 490 428 c 128
 492 429 494 430 496 430 c 0
 502 430 507 429 510 426 c 128
 513 423 515 421 515 418 c 0
 515 411 514 399 510 381 c 128
 506 363 504 339 504 310 c 2
 505 -214 l 2
 505 -225 508 -233 514 -238 c 128
 520 -243 531 -248 545 -252 c 0
 552 -254 558 -257 562 -260 c 128
 566 -263 568 -268 568 -273 c 0
 568 -278 566 -282 562 -284 c 128
 558 -286 553 -287 548 -287 c 0
 528 -287 510 -286 492 -284 c 128
 474 -282 456 -282 439 -282 c 0
 428 -282 415 -282 402 -283 c 128
 389 -284 376 -285 362 -286 c 128
 348 -287 334 -287 321 -287 c 0
300 53 m 0
 314 53 328 56 343 60 c 128
 358 64 369 71 378 81 c 1
 378 97 378 97 378 124 c 128
 378 151 378 152 378 182 c 128
 378 212 378 212 378 238 c 128
 378 264 378 265 378 280 c 0
 378 312 369 338 350 359 c 128
 331 380 310 390 285 390 c 0
 268 390 252 382 239 367 c 128
 226 352 216 332 208 306 c 128
 200 280 196 251 196 220 c 0
 196 197 198 176 203 156 c 128
 208 136 215 118 224 102 c 128
 233 86 243 75 256 66 c 128
 269 57 283 53 300 53 c 0
EndSplineSet
EndChar

StartChar: r
Encoding: 114 114 43
Width: 600
GlyphClass: 2
Flags: W
LayerCount: 2
Fore
SplineSet
85 -3 m 0
 79 -3 75 -2 71 1 c 0
 67 4 65 6 65 11 c 0
 65 16 67 20 71 23 c 0
 75 26 81 29 88 31 c 0
 103 35 112 41 117 46 c 0
 122 51 125 59 125 69 c 2
 125 299 l 2
 125 313 123 325 120 334 c 0
 117 343 108 349 95 352 c 0
 91 354 89 355 86 358 c 0
 83 361 82 364 82 370 c 0
 82 380 86 385 94 387 c 0
 115 392 138 400 164 408 c 0
 190 416 212 425 230 434 c 0
 233 437 237 439 242 441 c 0
 247 443 251 445 253 445 c 0
 259 445 262 442 262 434 c 0
 262 431 261 424 261 414 c 0
 261 404 261 393 261 382 c 0
 261 371 260 363 259 355 c 0
 259 349 263 346 266 346 c 0
 283 360 301 374 323 387 c 0
 345 400 368 411 392 420 c 0
 416 429 437 433 461 433 c 0
 492 433 530 429 540 420 c 0
 550 411 554 400 554 386 c 0
 554 376 552 365 546 353 c 0
 540 341 533 331 524 322 c 0
 515 313 506 309 496 309 c 0
 490 309 478 310 466 313 c 0
 454 316 443 319 432 323 c 0
 418 326 411 329 398 332 c 0
 387 335 369 336 361 336 c 0
 334 336 312 329 290 317 c 0
 268 305 256 279 256 241 c 2
 256 78 l 2
 256 64 260 55 268 48 c 0
 276 41 290 36 309 31 c 0
 316 29 322 27 326 24 c 0
 330 21 331 17 331 11 c 0
 331 2 325 -3 314 -3 c 0
 294 -3 273 -2 252 0 c 0
 231 2 211 2 194 2 c 0
 183 2 171 2 159 1 c 0
 147 0 136 -1 123 -2 c 0
 110 -3 98 -3 85 -3 c 0
EndSplineSet
EndChar

StartChar: s
Encoding: 115 115 44
Width: 600
GlyphClass: 2
Flags: W
LayerCount: 2
Fore
SplineSet
279 -14 m 0
 249 -14 221 -11 193 -6 c 0
 165 -1 141 8 119 20 c 1
 112 30 106 46 102 67 c 0
 98 88 99 111 99 134 c 0
 99 142 105 146 119 146 c 0
 125 146 130 145 134 142 c 0
 138 139 139 135 140 131 c 0
 153 103 169 80 186 60 c 0
 203 40 228 30 291 30 c 0
 316 30 348 35 368 46 c 0
 388 57 399 70 399 84 c 0
 399 101 388 116 364 128 c 0
 340 140 302 155 272 163 c 0
 243 172 218 181 196 194 c 0
 174 207 154 223 141 240 c 0
 128 257 122 278 122 303 c 0
 122 329 132 352 150 371 c 0
 168 390 192 405 224 416 c 0
 256 427 293 433 334 433 c 0
 363 433 414 431 432 426 c 0
 450 421 464 416 471 411 c 0
 476 405 480 392 484 373 c 0
 488 354 489 335 489 313 c 0
 489 305 483 302 471 302 c 0
 466 302 462 304 457 308 c 0
 452 312 447 313 446 317 c 0
 437 343 427 362 413 375 c 0
 399 388 356 395 326 395 c 0
 305 395 274 390 252 381 c 0
 230 372 221 359 221 343 c 0
 221 329 230 317 251 306 c 0
 272 295 308 278 338 269 c 0
 397 248 438 229 464 208 c 0
 490 187 503 158 503 124 c 0
 503 81 482 47 444 22 c 0
 406 -3 350 -14 279 -14 c 0
EndSplineSet
EndChar

StartChar: t
Encoding: 116 116 45
Width: 600
GlyphClass: 2
Flags: W
LayerCount: 2
Fore
SplineSet
305 -14 m 0
 271 -14 234 -2 200 20 c 0
 166 42 150 74 150 114 c 2
 150 344 l 2
 150 350 148 354 144 356 c 0
 140 358 131 361 119 362 c 2
 106 362 l 2
 102 362 97 366 94 373 c 0
 91 380 90 388 90 394 c 0
 90 395 91 397 92 400 c 0
 93 403 94 403 96 404 c 0
 112 410 129 420 147 432 c 0
 165 444 183 456 200 470 c 0
 217 484 231 497 242 506 c 0
 247 509 250 513 254 516 c 0
 257 518 262 519 267 519 c 0
 273 519 277 518 280 516 c 0
 283 514 284 508 282 499 c 2
 276 440 l 2
 275 432 278 427 282 424 c 0
 286 421 292 419 300 419 c 2
 518 419 l 2
 520 419 522 416 524 412 c 0
 526 408 527 403 527 399 c 0
 527 390 526 381 523 372 c 0
 520 363 518 359 514 359 c 2
 322 359 l 2
 306 359 296 358 290 354 c 0
 284 350 282 343 282 334 c 2
 282 145 l 2
 282 114 292 91 310 76 c 0
 328 61 357 54 390 54 c 0
 422 54 446 56 462 60 c 0
 478 64 492 67 506 70 c 0
 509 71 514 72 518 72 c 0
 522 72 524 70 526 66 c 0
 528 62 530 57 530 52 c 0
 530 48 519 41 498 30 c 0
 477 19 449 10 414 0 c 0
 379 -10 345 -14 305 -14 c 0
EndSplineSet
EndChar

StartChar: u
Encoding: 117 117 46
Width: 600
GlyphClass: 2
Flags: W
LayerCount: 2
Fore
SplineSet
370 -21 m 0
 365 -21 362 -18 362 -11 c 0
 362 -3 362 8 364 21 c 128
 366 34 367 45 367 52 c 0
 367 55 366 57 366 59 c 128
 366 61 366 62 365 63 c 1
 347 41 324 23 296 8 c 128
 268 -7 238 -15 207 -15 c 0
 186 -15 168 -8 151 4 c 128
 134 16 122 33 112 54 c 128
 102 75 97 99 97 126 c 2
 97 313 l 2
 97 328 94 341 88 350 c 128
 82 359 72 366 57 369 c 0
 53 370 49 371 46 374 c 128
 43 377 42 382 42 388 c 0
 42 393 43 397 46 400 c 128
 49 403 52 404 57 405 c 0
 85 406 110 410 133 414 c 128
 156 418 179 423 202 429 c 0
 205 430 208 431 212 432 c 128
 216 433 220 433 223 433 c 0
 232 433 237 428 236 419 c 0
 233 404 231 390 230 380 c 128
 229 370 228 357 228 342 c 2
 228 150 l 2
 228 134 231 120 236 108 c 128
 241 96 249 87 258 80 c 128
 267 73 278 70 289 69 c 0
 300 69 310 70 320 73 c 128
 330 76 341 82 350 91 c 0
 354 94 358 102 363 112 c 128
 368 122 370 136 370 153 c 2
 370 314 l 2
 370 326 368 336 363 344 c 128
 358 352 352 357 344 362 c 128
 336 367 327 369 316 370 c 0
 309 371 302 373 298 376 c 128
 294 379 292 384 292 392 c 0
 292 399 294 404 299 407 c 128
 304 410 309 412 316 412 c 0
 350 414 377 416 397 418 c 128
 417 420 433 421 446 423 c 128
 459 425 471 427 484 430 c 0
 486 431 488 431 491 432 c 128
 494 433 496 433 497 433 c 0
 507 433 512 429 512 421 c 0
 512 419 512 417 511 414 c 128
 510 411 509 409 508 406 c 0
 507 403 507 397 506 388 c 128
 505 379 503 370 502 360 c 128
 501 350 501 342 501 336 c 2
 501 104 l 2
 501 89 502 79 506 74 c 128
 510 69 514 66 519 66 c 0
 522 66 527 66 534 66 c 128
 541 66 545 65 547 65 c 0
 553 65 558 63 561 60 c 128
 564 57 566 52 566 47 c 0
 566 41 564 36 562 32 c 128
 560 28 556 27 549 26 c 0
 517 23 488 18 462 10 c 128
 436 2 415 -7 396 -14 c 0
 392 -15 388 -16 383 -18 c 128
 378 -20 374 -21 370 -21 c 0
EndSplineSet
EndChar

StartChar: v
Encoding: 118 118 47
Width: 600
GlyphClass: 2
Flags: W
LayerCount: 2
Fore
SplineSet
298 -21 m 2
 294 -21 288 -16 284 -8 c 0
 280 0 274 11 269 23 c 0
 262 35 256 48 250 63 c 0
 244 78 237 92 232 104 c 0
 213 143 196 180 176 218 c 0
 156 256 135 294 116 333 c 0
 109 348 101 360 92 371 c 0
 83 382 72 388 59 392 c 0
 52 395 46 397 44 400 c 0
 42 403 39 407 39 413 c 0
 39 418 41 423 47 424 c 0
 53 425 60 425 64 425 c 0
 81 425 95 425 104 424 c 0
 113 423 122 422 131 421 c 0
 140 420 152 419 167 419 c 0
 182 419 195 420 206 421 c 0
 217 422 228 423 240 424 c 0
 252 425 266 425 283 425 c 0
 287 425 294 424 300 422 c 0
 306 420 308 417 308 412 c 0
 308 406 306 402 301 400 c 0
 296 398 290 396 284 393 c 0
 277 390 270 386 266 378 c 0
 262 370 260 361 260 350 c 0
 260 341 260 342 261 334 c 0
 262 329 263 323 266 318 c 2
 349 141 l 2
 350 141 350 141 350 141 c 0
 352 141 l 2
 424 311 l 2
 427 317 429 322 429 328 c 0
 429 334 430 339 430 343 c 0
 430 355 427 364 422 373 c 0
 417 382 409 388 398 392 c 0
 392 394 386 396 382 398 c 0
 378 400 376 405 376 411 c 0
 376 416 379 420 384 422 c 0
 389 424 394 424 399 424 c 0
 417 423 431 423 440 422 c 0
 449 421 469 421 479 421 c 0
 489 421 499 421 508 422 c 0
 517 423 531 423 548 424 c 0
 552 424 558 423 564 422 c 0
 570 421 572 417 572 412 c 0
 572 403 565 396 551 391 c 0
 538 387 525 379 514 368 c 0
 503 357 492 345 485 329 c 2
 398 133 l 2
 397 128 393 122 390 116 c 0
 387 110 384 103 380 96 c 0
 376 89 372 82 370 76 c 0
 366 70 364 65 361 60 c 1
 359 55 356 47 351 36 c 0
 344 20 343 20 336 4 c 0
 332 -7 326 -15 322 -21 c 1
 298 -21 l 2
EndSplineSet
EndChar

StartChar: w
Encoding: 119 119 48
Width: 600
GlyphClass: 2
Flags: W
LayerCount: 2
Fore
SplineSet
186 -32 m 0
 183 -32 181 -32 178 -30 c 128
 175 -28 173 -25 172 -21 c 2
 58 334 l 2
 53 349 48 362 42 372 c 128
 36 382 28 390 18 395 c 0
 13 398 9 401 7 404 c 128
 5 407 4 411 4 417 c 0
 4 422 6 426 11 427 c 128
 16 428 19 429 23 429 c 0
 36 429 46 429 54 428 c 128
 62 427 69 425 76 424 c 128
 83 423 93 423 104 423 c 256
 115 423 125 423 133 424 c 128
 141 425 148 427 156 428 c 128
 164 429 174 429 187 429 c 0
 191 429 195 428 199 426 c 128
 203 424 206 420 206 415 c 0
 206 409 204 405 200 403 c 128
 196 401 193 399 189 396 c 0
 183 393 179 390 176 384 c 128
 173 378 172 369 172 357 c 0
 172 344 174 332 178 319 c 2
 220 173 l 2
 220 172 220 172 221 172 c 256
 222 172 223 172 223 173 c 2
 275 329 l 2
 276 332 276 336 277 340 c 128
 278 344 278 349 278 354 c 0
 278 360 276 367 271 375 c 128
 266 383 259 389 250 394 c 0
 245 397 241 399 239 402 c 128
 237 405 236 410 236 416 c 0
 236 421 239 425 244 426 c 128
 249 427 253 428 258 428 c 0
 272 428 286 427 299 426 c 128
 312 425 322 424 329 424 c 0
 343 424 356 425 368 426 c 128
 380 427 394 428 410 428 c 0
 414 428 418 427 422 425 c 128
 426 423 429 419 429 414 c 0
 429 408 427 404 423 402 c 128
 419 400 415 398 411 395 c 0
 405 392 401 389 398 384 c 128
 395 379 393 372 393 363 c 0
 393 354 394 346 396 338 c 128
 398 330 399 324 401 319 c 2
 444 171 l 2
 444 170 445 170 446 170 c 256
 447 170 447 170 447 171 c 2
 487 307 l 2
 489 314 491 321 492 328 c 128
 493 335 494 342 493 349 c 0
 493 359 491 368 487 376 c 128
 483 384 478 390 471 393 c 0
 467 395 463 398 459 400 c 128
 455 402 454 406 454 412 c 0
 454 417 456 421 460 423 c 128
 464 425 468 426 472 426 c 0
 488 425 499 424 506 424 c 128
 513 424 519 424 526 424 c 0
 532 424 532 424 538 424 c 128
 542 424 547 424 553 424 c 128
 559 424 567 425 577 426 c 0
 581 426 585 425 590 424 c 128
 595 423 597 419 597 414 c 0
 597 408 596 403 594 400 c 128
 592 397 588 395 583 392 c 0
 573 387 564 380 556 370 c 128
 548 360 542 346 537 331 c 2
 426 -21 l 2
 424 -27 419 -30 412 -30 c 0
 406 -30 402 -27 399 -21 c 2
 297 272 l 2
 297 273 297 273 296 273 c 256
 295 273 294 273 294 272 c 2
 201 -21 l 2
 198 -28 193 -32 186 -32 c 0
EndSplineSet
EndChar

StartChar: x
Encoding: 120 120 49
Width: 600
GlyphClass: 2
Flags: W
LayerCount: 2
Fore
SplineSet
54 -4 m 0
 49 -4 44 -3 38 -2 c 0
 32 -1 29 2 29 7 c 0
 29 13 31 17 35 20 c 0
 39 23 44 27 51 29 c 0
 59 31 69 37 77 44 c 0
 85 51 98 62 113 79 c 2
 216 206 l 2
 221 211 224 217 224 220 c 0
 224 223 221 227 217 232 c 2
 130 342 l 2
 120 354 113 366 106 374 c 0
 99 382 88 388 76 392 c 0
 69 394 64 397 60 400 c 0
 56 403 54 407 54 413 c 0
 54 418 58 423 64 424 c 0
 70 425 75 425 79 425 c 0
 96 425 109 425 118 424 c 0
 127 423 137 421 146 420 c 0
 155 419 167 419 183 419 c 0
 203 419 221 420 234 422 c 0
 247 424 265 424 287 424 c 0
 291 424 294 423 300 422 c 0
 306 421 311 416 311 411 c 0
 311 406 309 402 304 400 c 0
 299 398 293 395 287 393 c 0
 280 391 274 387 268 384 c 0
 262 381 260 375 260 369 c 0
 260 365 260 360 262 354 c 0
 264 348 268 343 272 338 c 2
 330 266 l 2
 334 260 338 260 340 266 c 2
 386 324 l 2
 389 331 393 338 396 346 c 0
 399 354 400 362 399 368 c 0
 399 379 393 386 381 391 c 0
 376 394 370 396 366 398 c 0
 362 400 360 404 360 410 c 0
 360 415 364 419 370 420 c 0
 376 421 382 423 386 423 c 0
 402 422 416 422 426 422 c 0
 436 422 444 421 454 421 c 0
 465 421 477 421 484 422 c 0
 491 423 504 424 523 425 c 0
 528 425 534 425 540 424 c 0
 546 423 548 418 548 413 c 0
 548 407 546 403 542 400 c 0
 538 397 533 395 526 392 c 0
 518 389 508 385 498 378 c 0
 488 371 476 359 463 343 c 2
 374 239 l 2
 370 233 368 227 369 224 c 0
 370 221 372 218 375 213 c 2
 479 89 l 2
 489 75 500 63 512 53 c 0
 524 43 537 35 550 31 c 0
 557 29 563 27 567 24 c 0
 571 21 572 16 572 10 c 0
 572 5 568 1 562 0 c 0
 556 -1 551 -2 546 -2 c 0
 529 -2 516 -1 504 -0 c 0
 492 1 477 1 466 2 c 0
 455 3 448 4 433 4 c 0
 413 4 388 4 370 2 c 0
 352 0 331 -1 308 -1 c 0
 291 -1 283 3 283 12 c 0
 283 18 286 21 290 24 c 0
 294 27 299 29 306 31 c 0
 314 34 322 36 328 42 c 0
 334 48 335 57 335 69 c 0
 335 76 333 81 332 86 c 0
 331 91 328 98 322 105 c 2
 256 181 l 2
 254 183 252 183 250 181 c 2
 192 97 l 2
 189 91 187 91 182 80 c 0
 179 72 178 65 178 58 c 0
 178 51 180 45 183 40 c 0
 186 35 190 31 196 28 c 0
 201 26 207 24 212 22 c 0
 217 20 218 15 218 10 c 0
 218 4 213 2 208 -0 c 0
 203 -2 197 -3 192 -3 c 0
 175 -3 162 -3 154 -2 c 0
 146 -1 136 -1 127 -1 c 0
 116 -1 105 -1 96 -2 c 0
 87 -3 72 -3 54 -4 c 0
EndSplineSet
EndChar

StartChar: y
Encoding: 121 121 50
Width: 600
GlyphClass: 2
Flags: W
LayerCount: 2
Fore
SplineSet
127 -283 m 0
 108 -283 90 -278 73 -266 c 0
 56 -254 47 -238 47 -220 c 0
 47 -207 50 -194 58 -182 c 0
 66 -170 77 -164 92 -164 c 0
 103 -164 115 -166 127 -170 c 0
 139 -174 149 -175 160 -174 c 0
 170 -173 178 -170 182 -166 c 0
 186 -162 193 -156 199 -146 c 0
 205 -138 210 -130 217 -122 c 0
 224 -114 230 -106 236 -94 c 0
 242 -82 250 -70 259 -52 c 0
 267 -34 272 -18 272 -4 c 0
 272 6 271 15 268 23 c 0
 265 31 260 40 257 48 c 2
 119 331 l 2
 113 346 105 358 96 368 c 0
 87 378 78 386 64 390 c 0
 57 393 52 395 48 398 c 0
 44 401 42 406 42 412 c 0
 42 417 43 421 50 422 c 0
 57 423 64 423 68 423 c 0
 84 423 97 423 109 422 c 0
 121 421 130 421 140 420 c 0
 150 419 159 419 167 419 c 0
 182 419 194 419 205 420 c 0
 216 421 226 421 238 422 c 0
 250 423 263 423 278 423 c 0
 283 423 287 422 294 420 c 0
 301 418 303 415 303 410 c 0
 303 404 301 399 296 397 c 0
 291 395 286 392 280 390 c 0
 272 387 268 383 264 378 c 0
 260 373 257 364 257 352 c 0
 257 347 258 342 260 334 c 0
 262 326 264 316 268 306 c 2
 340 131 l 2
 341 129 342 128 344 128 c 0
 345 128 346 129 348 131 c 2
 421 308 l 2
 423 314 424 320 426 328 c 0
 428 336 428 342 428 348 c 0
 428 360 425 368 418 375 c 0
 411 382 404 387 397 390 c 0
 392 392 387 394 382 396 c 0
 377 398 374 404 374 410 c 0
 374 415 376 418 382 420 c 0
 388 422 394 423 398 423 c 0
 416 422 432 421 442 420 c 0
 452 419 463 419 475 419 c 0
 482 419 489 420 496 420 c 0
 503 420 508 420 516 421 c 0
 524 422 534 422 546 423 c 0
 550 423 556 423 563 422 c 0
 570 421 571 417 571 412 c 0
 571 406 571 401 567 398 c 0
 563 395 558 393 551 390 c 0
 537 386 524 378 513 367 c 0
 502 356 493 343 485 328 c 2
 320 -30 l 2
 314 -43 307 -59 300 -74 c 0
 293 -89 286 -105 278 -122 c 0
 270 -139 260 -156 252 -173 c 0
 244 -190 235 -207 227 -224 c 0
 218 -243 204 -258 187 -268 c 0
 170 -278 150 -283 127 -283 c 0
EndSplineSet
EndChar

StartChar: z
Encoding: 122 122 51
Width: 600
GlyphClass: 2
Flags: W
LayerCount: 2
Fore
SplineSet
102 -5 m 0
 99 -5 94 -1 88 5 c 0
 82 11 77 17 77 23 c 0
 77 27 80 33 86 41 c 0
 92 49 96 57 104 66 c 0
 112 75 118 83 123 90 c 0
 142 115 160 139 176 158 c 0
 192 177 208 196 223 215 c 0
 238 234 254 256 271 279 c 0
 288 302 307 328 330 360 c 0
 331 363 333 366 333 368 c 0
 333 370 328 372 319 372 c 2
 226 373 l 2
 217 372 209 372 202 369 c 0
 195 366 188 361 181 354 c 0
 178 351 175 347 168 338 c 0
 161 329 155 320 148 310 c 0
 141 300 135 290 129 282 c 0
 123 274 119 270 117 267 c 0
 113 262 106 261 98 264 c 0
 90 267 84 271 85 277 c 0
 87 284 90 295 94 312 c 0
 98 329 103 345 106 364 c 0
 109 383 110 398 110 411 c 0
 110 418 113 425 118 430 c 0
 123 435 128 437 133 437 c 0
 139 437 145 434 152 427 c 0
 155 424 163 423 172 422 c 0
 181 421 191 420 202 420 c 0
 209 420 216 421 224 421 c 0
 232 421 238 421 243 421 c 0
 275 421 337 421 378 422 c 0
 419 423 458 423 496 425 c 0
 501 425 507 423 510 418 c 0
 513 413 516 407 518 401 c 0
 520 395 517 390 515 386 c 0
 506 377 499 368 492 360 c 0
 485 352 477 343 468 332 c 2
 266 64 l 2
 263 59 263 56 265 53 c 0
 267 50 273 49 283 49 c 2
 385 49 l 2
 394 49 402 51 410 54 c 0
 418 57 428 64 436 72 c 0
 447 83 456 95 462 106 c 0
 468 117 479 132 491 154 c 0
 495 162 502 165 512 163 c 0
 522 161 526 156 526 148 c 0
 526 144 525 136 523 126 c 0
 521 116 518 103 514 90 c 0
 510 77 507 63 503 49 c 0
 499 35 496 22 492 11 c 0
 489 1 483 -5 473 -5 c 0
 457 -5 430 -4 388 -2 c 0
 346 0 269 1 201 1 c 0
 184 1 165 0 146 -2 c 0
 127 -4 113 -5 102 -5 c 0
EndSplineSet
EndChar

StartChar: zero
Encoding: 48 48 52
Width: 600
GlyphClass: 1
Flags: W
LayerCount: 2
Fore
SplineSet
311 31 m 0
 332 31 349 43 362 68 c 0
 375 93 385 126 391 167 c 0
 397 208 400 252 400 299 c 0
 400 334 398 369 393 403 c 0
 391 415 391 421 389 421 c 0
 387 421 385 416 381 407 c 2
 257 132 l 2
 248 113 243 102 243 93 c 0
 243 82 250 74 264 56 c 0
 277 39 293 31 311 31 c 0
296 -14 m 0
 256 -14 221 -5 192 14 c 0
 163 33 138 57 118 88 c 0
 98 119 84 154 75 191 c 0
 66 228 61 265 61 302 c 0
 61 340 66 378 75 417 c 0
 84 456 99 492 119 524 c 0
 139 556 165 582 196 602 c 0
 227 622 264 631 307 631 c 0
 347 631 382 622 412 603 c 0
 442 584 465 559 484 528 c 0
 503 497 518 463 528 426 c 0
 538 389 542 353 542 317 c 0
 542 279 537 241 528 202 c 0
 519 163 504 128 484 95 c 0
 464 62 439 36 408 16 c 0
 377 -4 340 -14 296 -14 c 0
228 213 m 2
 350 484 l 2
 357 500 361 510 361 519 c 0
 361 530 355 542 338 562 c 0
 325 578 309 586 291 586 c 0
 270 586 253 573 240 548 c 0
 227 523 218 490 212 450 c 0
 206 410 204 366 204 319 c 0
 204 284 206 249 210 215 c 0
 212 199 214 191 216 191 c 0
 218 191 221 198 228 213 c 2
EndSplineSet
Substitution2: "'ss01' Original glyphs-1" zero.ss01
EndChar

StartChar: one
Encoding: 49 49 53
Width: 600
GlyphClass: 1
Flags: W
LayerCount: 2
Fore
SplineSet
152 -3 m 0
 148 -3 144 -2 140 1 c 128
 136 4 134 7 134 11 c 0
 134 22 140 29 153 32 c 0
 172 37 188 41 201 46 c 128
 214 51 225 58 232 66 c 128
 239 74 243 85 243 99 c 2
 243 461 l 2
 243 477 238 490 230 498 c 128
 222 506 211 512 198 516 c 128
 185 520 172 523 157 525 c 0
 152 526 146 529 140 532 c 128
 134 535 131 541 131 548 c 0
 131 557 134 562 140 566 c 128
 146 570 154 572 162 573 c 0
 201 576 237 583 268 592 c 128
 299 601 330 615 361 633 c 0
 362 634 364 634 366 635 c 128
 368 636 370 636 372 636 c 0
 377 636 382 635 386 633 c 128
 390 631 392 629 392 626 c 0
 392 617 392 607 390 596 c 128
 388 585 387 571 387 553 c 2
 387 98 l 2
 387 85 391 75 399 67 c 128
 407 59 418 53 433 48 c 128
 448 43 465 37 484 32 c 0
 489 30 494 28 497 25 c 128
 500 22 502 18 502 12 c 0
 502 3 497 -2 487 -2 c 0
 472 -2 453 -2 432 -1 c 128
 411 0 390 0 370 1 c 128
 350 2 333 2 318 2 c 0
 304 2 287 2 267 1 c 128
 247 0 227 -1 206 -2 c 128
 185 -3 167 -3 152 -3 c 0
EndSplineSet
EndChar

StartChar: two
Encoding: 50 50 54
Width: 600
GlyphClass: 1
Flags: W
LayerCount: 2
Fore
SplineSet
485 -4 m 0
 481 -4 472 -4 456 -4 c 0
 440 -4 421 -3 400 -2 c 0
 379 -1 358 -1 336 0 c 0
 314 1 295 1 278 1 c 0
 263 1 246 1 228 0 c 0
 210 -1 192 -2 176 -2 c 0
 160 -2 145 -2 134 -2 c 0
 123 -2 117 -3 115 -3 c 256
 113 -3 110 -2 104 2 c 0
 98 6 95 10 95 14 c 0
 95 19 96 24 99 27 c 0
 102 30 104 33 107 36 c 2
 253 198 l 2
 288 237 315 275 332 314 c 0
 349 353 358 396 358 442 c 0
 358 470 350 493 336 512 c 0
 322 531 302 541 276 541 c 0
 253 541 231 534 210 521 c 0
 189 508 172 493 157 478 c 0
 154 474 149 469 143 464 c 0
 137 459 131 457 125 457 c 0
 120 457 116 460 114 464 c 0
 112 468 111 473 111 480 c 0
 111 491 117 506 128 522 c 0
 139 538 154 554 174 571 c 0
 194 588 216 602 242 613 c 0
 268 624 294 630 323 630 c 0
 358 630 386 622 410 607 c 0
 434 592 452 571 465 546 c 0
 478 521 484 493 484 463 c 0
 484 444 480 424 472 402 c 0
 464 380 453 358 441 338 c 0
 429 318 417 300 404 285 c 0
 394 274 381 261 366 246 c 0
 351 231 336 215 320 200 c 0
 304 185 289 170 274 157 c 0
 259 144 248 133 239 124 c 0
 230 115 226 110 226 109 c 0
 226 106 231 104 241 103 c 0
 253 102 267 101 284 100 c 0
 301 99 317 99 331 99 c 0
 346 99 361 99 376 100 c 0
 391 101 405 102 420 103 c 256
 435 104 447 108 458 112 c 0
 469 116 480 122 488 130 c 0
 496 138 503 150 510 163 c 0
 512 168 515 173 520 178 c 0
 525 183 531 185 538 185 c 0
 543 185 547 182 549 178 c 0
 551 174 551 170 549 165 c 0
 543 148 536 128 530 108 c 0
 524 88 519 70 514 54 c 0
 509 38 507 26 506 19 c 0
 505 11 502 6 496 2 c 0
 490 -2 486 -4 485 -4 c 0
EndSplineSet
EndChar

StartChar: three
Encoding: 51 51 55
Width: 600
GlyphClass: 1
Flags: W
LayerCount: 2
Fore
SplineSet
207 -38 m 0
 192 -38 178 -36 162 -32 c 0
 146 -28 133 -22 122 -14 c 0
 111 -6 106 2 106 11 c 0
 106 19 107 28 110 38 c 0
 113 48 118 55 123 62 c 0
 128 69 134 72 141 72 c 0
 147 72 152 71 156 68 c 0
 160 65 164 61 169 56 c 0
 178 46 189 35 202 23 c 0
 215 11 229 5 245 5 c 0
 266 5 286 10 303 22 c 0
 320 34 334 51 344 72 c 0
 354 93 360 119 360 148 c 0
 360 175 356 200 349 221 c 0
 342 242 331 259 316 271 c 0
 301 283 283 289 262 289 c 0
 245 289 232 286 222 280 c 0
 212 274 203 271 197 268 c 0
 192 265 187 265 180 268 c 0
 173 271 171 276 172 282 c 0
 175 295 181 305 189 314 c 0
 197 323 205 329 214 334 c 0
 234 344 251 354 266 364 c 0
 281 374 293 386 303 397 c 0
 313 408 321 420 326 434 c 0
 331 448 333 463 333 480 c 0
 333 501 326 520 311 536 c 0
 296 552 278 559 255 559 c 0
 235 559 218 554 204 546 c 0
 190 538 179 529 170 518 c 0
 161 507 154 498 148 490 c 0
 142 482 137 478 134 478 c 0
 129 478 125 481 120 486 c 0
 115 491 113 497 113 502 c 0
 113 508 117 518 124 532 c 0
 131 546 143 561 159 576 c 0
 175 591 196 604 221 614 c 0
 246 624 277 629 314 629 c 0
 341 629 365 624 387 614 c 0
 409 604 427 590 440 572 c 0
 453 554 460 533 460 508 c 0
 460 493 455 475 446 456 c 0
 437 437 423 419 403 402 c 0
 383 385 357 372 325 364 c 0
 323 363 322 362 322 360 c 0
 322 358 323 358 326 358 c 0
 361 358 391 352 418 339 c 0
 445 326 466 309 482 286 c 0
 498 263 505 235 505 202 c 0
 505 165 497 132 480 103 c 0
 463 74 441 49 413 28 c 0
 385 7 353 -10 318 -21 c 0
 283 -32 246 -38 207 -38 c 0
EndSplineSet
EndChar

StartChar: four
Encoding: 52 52 56
Width: 600
GlyphClass: 1
Flags: W
LayerCount: 2
Fore
SplineSet
250 -3 m 0
 246 -3 241 -2 236 1 c 0
 231 4 228 7 228 12 c 0
 228 19 230 23 235 26 c 0
 240 29 245 31 251 32 c 0
 278 37 296 44 305 52 c 0
 314 60 319 74 319 94 c 2
 319 151 l 2
 319 154 317 156 313 158 c 0
 309 160 305 161 302 161 c 0
 281 161 258 160 231 159 c 0
 204 158 178 156 150 155 c 0
 122 154 96 153 71 153 c 0
 68 153 64 154 61 155 c 0
 58 156 56 158 56 161 c 256
 56 164 58 167 61 172 c 0
 66 178 69 182 72 186 c 0
 75 190 79 194 82 198 c 0
 85 202 88 207 91 212 c 2
 338 607 l 2
 343 616 350 624 358 631 c 0
 366 638 375 642 382 642 c 2
 391 642 l 2
 396 642 399 639 400 634 c 0
 401 629 401 625 398 621 c 2
 163 248 l 2
 160 243 160 239 162 237 c 0
 164 235 167 234 171 234 c 2
 311 234 l 2
 313 234 314 235 316 236 c 0
 318 237 319 239 319 241 c 2
 319 361 l 2
 319 373 320 382 322 386 c 0
 324 390 328 393 335 396 c 0
 353 405 372 410 393 413 c 0
 414 416 428 417 436 417 c 0
 449 417 458 411 460 398 c 0
 462 385 463 365 463 340 c 2
 463 235 l 2
 463 230 465 228 468 228 c 0
 477 227 484 227 488 227 c 0
 494 227 494 227 504 227 c 0
 514 227 523 228 531 228 c 0
 539 228 549 228 561 229 c 0
 569 229 573 227 573 222 c 0
 573 217 572 209 569 199 c 0
 566 189 564 180 560 172 c 0
 556 164 553 159 550 159 c 0
 542 159 534 160 527 160 c 0
 520 160 512 160 503 160 c 0
 496 160 491 160 488 160 c 0
 485 160 482 159 477 158 c 0
 474 157 471 156 468 155 c 0
 465 154 463 153 463 152 c 2
 463 95 l 2
 463 76 467 63 476 55 c 0
 485 47 502 39 528 32 c 0
 534 30 539 28 544 25 c 0
 549 22 552 18 552 12 c 0
 552 8 550 5 546 2 c 0
 542 -1 536 -2 531 -2 c 0
 516 -2 501 -2 484 -1 c 0
 467 0 450 0 434 1 c 0
 418 2 403 2 389 2 c 256
 375 2 360 2 344 1 c 0
 328 0 313 -1 297 -2 c 0
 281 -3 265 -3 250 -3 c 0
EndSplineSet
EndChar

StartChar: five
Encoding: 53 53 57
Width: 600
GlyphClass: 1
Flags: W
LayerCount: 2
Fore
SplineSet
168 -38 m 0
 159 -38 148 -38 137 -36 c 0
 126 -34 120 -30 120 -23 c 0
 120 -15 124 -10 133 -7 c 0
 142 -4 151 -2 161 -1 c 0
 202 3 237 14 268 30 c 0
 299 46 323 65 340 88 c 0
 357 111 365 135 365 158 c 0
 365 183 359 205 346 224 c 0
 333 243 314 259 286 274 c 0
 258 289 221 304 176 317 c 0
 155 324 142 332 134 339 c 0
 126 346 122 356 122 369 c 0
 122 378 124 391 128 408 c 0
 132 425 137 443 142 462 c 0
 147 481 151 498 156 514 c 0
 161 530 164 540 165 545 c 0
 169 561 175 573 184 580 c 0
 193 587 203 591 214 594 c 0
 227 597 244 600 266 604 c 0
 288 608 310 612 334 616 c 0
 358 620 380 622 399 625 c 0
 418 628 432 629 439 629 c 0
 444 630 448 628 451 623 c 0
 454 618 455 613 454 608 c 0
 453 599 449 588 444 576 c 0
 439 564 434 554 430 544 c 0
 425 531 417 520 406 512 c 0
 395 504 382 498 367 497 c 0
 356 496 343 494 326 494 c 0
 309 494 293 493 276 492 c 0
 259 491 244 490 231 490 c 0
 218 490 208 489 202 488 c 0
 197 487 193 485 190 480 c 0
 187 475 184 470 182 464 c 0
 180 458 179 453 179 450 c 256
 179 447 180 444 182 442 c 0
 184 440 187 438 190 437 c 0
 227 430 260 422 288 412 c 0
 316 402 343 390 367 378 c 0
 410 358 440 333 459 302 c 0
 478 271 487 237 487 200 c 256
 487 163 476 128 453 94 c 0
 430 60 400 32 363 11 c 0
 350 4 333 -4 312 -12 c 0
 291 -20 268 -25 243 -30 c 0
 218 -35 193 -38 168 -38 c 0
EndSplineSet
EndChar

StartChar: six
Encoding: 54 54 58
Width: 600
GlyphClass: 1
Flags: W
LayerCount: 2
Fore
SplineSet
313 -14 m 0
 266 -14 227 -5 196 12 c 0
 165 29 141 53 125 84 c 0
 109 115 101 152 101 193 c 0
 101 230 106 263 114 293 c 0
 122 323 132 350 144 373 c 0
 156 396 169 416 182 433 c 0
 195 450 206 463 214 473 c 0
 229 492 250 510 276 530 c 0
 302 550 330 569 363 587 c 0
 396 605 430 620 467 633 c 0
 478 637 488 639 498 639 c 0
 508 639 513 637 513 632 c 0
 512 625 508 620 502 616 c 0
 496 612 488 606 477 601 c 0
 440 584 410 564 385 542 c 0
 360 520 337 491 316 458 c 0
 307 442 296 420 283 394 c 0
 270 368 259 338 250 304 c 0
 241 270 237 235 237 197 c 0
 237 160 242 130 252 105 c 0
 262 80 274 62 288 49 c 0
 302 36 317 30 332 29 c 0
 352 29 369 39 383 60 c 0
 397 81 404 111 404 150 c 0
 404 170 400 188 393 205 c 0
 386 222 377 236 366 246 c 0
 355 256 344 261 332 261 c 0
 323 261 316 260 310 259 c 0
 304 258 298 256 292 253 c 0
 280 247 273 247 270 254 c 0
 267 261 269 269 276 277 c 0
 281 282 285 285 288 288 c 0
 291 291 295 295 299 298 c 0
 310 307 325 316 346 326 c 0
 367 336 385 342 402 342 c 0
 427 342 451 336 472 323 c 0
 493 310 511 293 524 272 c 0
 537 251 544 227 544 200 c 256
 544 173 539 147 528 122 c 0
 517 97 500 74 480 53 c 0
 460 32 436 16 408 4 c 0
 380 -8 348 -14 313 -14 c 0
EndSplineSet
EndChar

StartChar: seven
Encoding: 55 55 59
Width: 600
GlyphClass: 1
Flags: W
LayerCount: 2
Fore
SplineSet
203 -30 m 0
 195 -30 188 -26 182 -20 c 0
 176 -14 174 -7 174 2 c 0
 174 7 177 14 184 24 c 0
 191 34 196 44 201 53 c 2
 442 484 l 2
 445 489 444 493 442 495 c 0
 440 497 436 498 431 498 c 2
 207 498 l 2
 190 498 177 496 167 490 c 0
 157 484 147 474 137 460 c 0
 134 457 131 450 126 442 c 0
 121 434 115 427 108 420 c 0
 101 413 95 409 88 409 c 0
 84 409 80 411 77 414 c 0
 74 417 72 421 72 426 c 256
 72 431 74 439 77 450 c 0
 80 461 82 469 83 473 c 0
 87 495 92 519 98 544 c 0
 104 569 107 591 107 610 c 0
 107 617 110 622 115 624 c 0
 120 626 125 628 128 627 c 0
 136 626 148 625 166 622 c 0
 184 619 204 617 225 616 c 0
 241 616 260 616 281 616 c 0
 302 616 324 614 344 614 c 0
 364 614 381 614 394 614 c 0
 419 614 441 614 461 614 c 0
 481 614 498 615 514 616 c 0
 530 617 543 617 553 618 c 0
 556 618 558 616 560 611 c 0
 562 606 563 602 563 597 c 0
 563 594 562 588 558 582 c 0
 554 576 549 569 544 560 c 0
 539 551 533 542 526 531 c 2
 226 2 l 2
 223 -4 219 -10 214 -18 c 0
 209 -26 205 -30 203 -30 c 0
EndSplineSet
EndChar

StartChar: eight
Encoding: 56 56 60
Width: 600
GlyphClass: 1
Flags: W
LayerCount: 2
Fore
SplineSet
300 -13 m 0
 263 -13 229 -6 198 7 c 0
 167 20 142 39 123 62 c 0
 104 85 95 112 95 143 c 0
 95 170 103 191 118 208 c 0
 133 225 152 240 174 252 c 0
 196 264 217 276 236 287 c 0
 242 290 244 294 242 296 c 0
 240 298 237 301 232 304 c 0
 212 320 194 337 176 354 c 0
 158 371 143 391 132 412 c 0
 121 433 115 456 115 482 c 0
 115 512 125 538 146 560 c 0
 167 582 194 599 227 611 c 0
 260 623 294 629 329 629 c 0
 360 629 390 624 418 612 c 0
 446 600 469 583 486 562 c 0
 503 541 512 516 512 488 c 0
 512 462 506 440 494 424 c 0
 482 408 467 396 452 389 c 0
 445 385 438 381 430 377 c 0
 422 373 415 369 408 365 c 0
 397 358 392 353 392 350 c 0
 392 347 395 343 402 339 c 0
 427 323 448 308 468 292 c 0
 488 276 504 259 516 240 c 0
 528 221 533 199 533 174 c 0
 533 136 522 103 501 75 c 0
 480 47 451 25 416 10 c 0
 381 -5 343 -13 300 -13 c 0
318 30 m 0
 342 30 362 39 377 56 c 0
 392 73 400 94 400 119 c 0
 400 137 395 155 384 172 c 0
 373 189 359 205 343 220 c 0
 327 235 311 248 296 259 c 0
 293 262 290 264 288 266 c 0
 286 268 283 269 280 269 c 0
 279 269 274 267 267 262 c 0
 253 249 244 233 238 216 c 0
 232 199 229 177 229 150 c 0
 229 130 233 110 240 92 c 0
 247 74 258 60 271 48 c 0
 284 36 300 30 318 30 c 0
356 380 m 0
 367 391 374 407 378 428 c 0
 382 449 385 470 385 492 c 0
 385 517 380 539 370 558 c 0
 360 577 341 586 316 586 c 0
 303 586 291 582 280 576 c 0
 269 570 261 561 254 550 c 0
 247 539 243 525 243 510 c 0
 243 491 247 475 256 460 c 0
 265 445 277 432 291 420 c 0
 305 408 320 395 336 382 c 0
 340 379 344 376 347 376 c 0
 350 376 353 377 356 380 c 0
EndSplineSet
EndChar

StartChar: nine
Encoding: 57 57 61
Width: 600
GlyphClass: 1
Flags: W
LayerCount: 2
Fore
SplineSet
116 -50 m 0
 106 -50 100 -48 96 -44 c 0
 92 -40 90 -37 90 -34 c 0
 90 -27 93 -21 99 -17 c 0
 105 -13 111 -11 118 -11 c 0
 142 -8 167 2 192 16 c 0
 217 30 241 47 264 68 c 0
 287 89 307 111 324 134 c 0
 338 152 352 174 367 200 c 0
 382 226 394 254 405 286 c 0
 416 318 421 352 421 389 c 0
 421 412 418 434 412 456 c 0
 406 478 399 500 389 518 c 0
 379 536 368 551 355 562 c 0
 342 573 329 578 316 578 c 0
 300 578 286 574 275 566 c 0
 264 558 256 544 250 528 c 0
 244 512 241 491 241 466 c 0
 241 446 245 427 252 408 c 0
 259 389 268 374 279 362 c 0
 290 350 303 344 316 344 c 0
 325 344 333 345 340 347 c 0
 347 349 353 351 359 354 c 0
 373 360 381 359 383 352 c 0
 385 345 383 337 376 329 c 0
 373 324 370 320 366 316 c 0
 362 312 358 309 354 306 c 0
 349 301 342 296 332 290 c 0
 322 284 310 279 297 274 c 0
 284 269 272 267 260 267 c 0
 235 267 210 273 186 286 c 0
 162 299 142 318 126 340 c 0
 110 362 102 388 102 417 c 0
 102 438 108 461 121 486 c 0
 134 511 151 534 173 556 c 0
 195 578 220 594 248 608 c 0
 276 622 307 629 339 629 c 0
 368 629 394 622 420 610 c 0
 446 598 468 582 488 560 c 0
 508 538 524 513 535 486 c 0
 546 459 552 430 552 400 c 0
 552 358 545 318 530 281 c 0
 515 244 496 209 473 178 c 0
 450 147 427 121 404 98 c 0
 388 83 368 67 344 50 c 0
 320 33 294 17 266 2 c 0
 238 -13 210 -26 184 -36 c 0
 158 -46 135 -50 116 -50 c 0
EndSplineSet
EndChar

StartChar: period
Encoding: 46 46 62
Width: 600
GlyphClass: 1
Flags: W
LayerCount: 2
Fore
SplineSet
298 -30 m 0
 277 -30 258 -22 242 -6 c 128
 226 10 218 28 218 50 c 0
 218 73 226 93 242 109 c 128
 258 125 277 133 298 133 c 0
 322 133 342 125 358 109 c 128
 374 93 381 73 381 50 c 0
 381 28 374 10 358 -6 c 128
 342 -22 322 -30 298 -30 c 0
EndSplineSet
EndChar

StartChar: comma
Encoding: 44 44 63
Width: 600
GlyphClass: 1
Flags: W
LayerCount: 2
Fore
SplineSet
224 -164 m 0
 207 -164 199 -159 199 -148 c 0
 199 -143 201 -140 205 -138 c 128
 209 -136 214 -134 221 -132 c 0
 239 -127 254 -121 267 -113 c 128
 280 -105 289 -96 296 -84 c 128
 303 -72 307 -59 307 -44 c 0
 307 -31 303 -21 295 -14 c 128
 287 -7 277 -3 266 0 c 0
 254 3 244 10 236 20 c 128
 228 30 223 42 223 58 c 0
 223 75 230 90 244 102 c 128
 258 114 274 119 292 119 c 0
 322 119 346 109 365 90 c 128
 384 71 393 47 393 16 c 0
 393 -11 388 -36 378 -58 c 128
 368 -80 354 -98 338 -114 c 128
 322 -130 304 -144 284 -152 c 128
 264 -160 245 -164 224 -164 c 0
EndSplineSet
EndChar

StartChar: exclam
Encoding: 33 33 66
Width: 600
GlyphClass: 1
Flags: W
LayerCount: 2
Fore
SplineSet
298 178 m 256
 290 178 284 182 279 190 c 128
 274 198 270 210 267 228 c 0
 262 265 257 300 252 332 c 128
 247 364 242 392 239 420 c 128
 236 448 233 474 231 497 c 128
 229 520 228 542 227 562 c 0
 227 584 234 604 248 622 c 128
 262 640 281 649 302 649 c 0
 324 649 341 641 354 624 c 128
 367 607 374 587 374 564 c 0
 374 544 373 522 370 498 c 128
 367 474 362 448 358 420 c 128
 354 392 350 363 344 331 c 128
 338 299 332 265 327 228 c 0
 325 214 322 202 317 192 c 128
 312 182 306 178 298 178 c 256
296 -14 m 256
 276 -14 259 -7 245 7 c 128
 231 21 224 38 224 58 c 256
 224 78 231 96 245 110 c 128
 259 124 276 131 296 131 c 256
 316 131 334 124 348 110 c 128
 362 96 369 78 369 58 c 256
 369 38 362 21 348 7 c 128
 334 -7 316 -14 296 -14 c 256
EndSplineSet
EndChar

StartChar: question
Encoding: 63 63 67
Width: 600
GlyphClass: 1
Flags: W
LayerCount: 2
Fore
SplineSet
248 173 m 0
 243 173 238 176 232 181 c 128
 226 186 220 194 215 203 c 0
 210 214 205 226 200 241 c 128
 195 256 192 273 192 292 c 0
 192 315 202 335 222 352 c 128
 242 369 270 387 309 405 c 0
 329 414 345 424 356 436 c 128
 367 448 373 463 373 481 c 0
 373 501 365 516 350 526 c 128
 335 536 318 542 298 543 c 0
 284 543 273 542 266 539 c 128
 259 536 253 534 249 532 c 0
 244 531 239 529 234 528 c 128
 229 527 223 526 216 526 c 0
 207 526 197 530 188 540 c 128
 179 550 171 562 165 575 c 128
 159 588 156 601 156 612 c 0
 156 624 163 636 177 646 c 128
 191 656 207 661 225 661 c 0
 252 661 277 654 302 641 c 128
 327 628 350 610 372 587 c 0
 388 570 401 552 412 533 c 128
 423 514 432 494 438 473 c 128
 444 452 448 432 448 413 c 0
 448 386 443 366 433 350 c 128
 423 334 412 323 400 318 c 0
 389 313 379 308 370 302 c 128
 361 296 351 290 341 284 c 128
 331 278 321 273 310 267 c 0
 295 259 285 250 280 240 c 128
 275 230 272 216 269 197 c 0
 269 190 267 184 263 180 c 128
 259 176 254 173 248 173 c 0
247 -14 m 256
 227 -14 210 -7 196 7 c 128
 182 21 175 38 175 58 c 256
 175 78 182 96 196 110 c 128
 210 124 227 131 247 131 c 256
 267 131 284 124 298 110 c 128
 312 96 319 78 319 58 c 256
 319 38 312 21 298 7 c 128
 284 -7 267 -14 247 -14 c 256
EndSplineSet
EndChar

StartChar: asterisk
Encoding: 42 42 68
Width: 600
GlyphClass: 1
Flags: W
LayerCount: 2
Fore
SplineSet
317 352 m 0
 309 352 302 355 296 361 c 128
 290 367 287 374 286 383 c 2
 273 456 l 1
 267 453 258 448 245 440 c 128
 232 432 220 424 207 417 c 0
 204 415 200 413 196 412 c 128
 192 411 189 411 185 411 c 0
 178 411 172 413 166 418 c 128
 160 423 157 429 157 437 c 0
 157 449 162 459 173 466 c 2
 229 511 l 1
 224 515 215 520 202 526 c 128
 189 532 177 539 165 546 c 0
 158 549 154 553 150 559 c 128
 146 565 144 571 144 578 c 0
 144 589 149 598 158 602 c 128
 167 606 177 606 190 601 c 0
 201 597 213 593 224 588 c 128
 235 583 246 579 257 575 c 1
 256 587 256 598 256 610 c 128
 256 622 255 635 254 648 c 0
 254 657 257 666 262 674 c 128
 267 682 274 685 285 686 c 0
 293 685 300 682 306 676 c 128
 312 670 315 662 316 654 c 2
 325 582 l 1
 330 585 339 592 351 600 c 128
 363 608 375 615 386 622 c 0
 389 625 393 627 397 628 c 128
 401 629 405 630 409 630 c 0
 416 630 422 627 428 622 c 128
 434 617 437 611 437 602 c 0
 437 591 432 582 423 574 c 2
 368 527 l 1
 373 524 383 520 396 514 c 128
 409 508 422 502 433 496 c 0
 440 493 446 489 450 484 c 128
 454 479 456 473 456 466 c 0
 456 454 452 446 443 442 c 128
 434 438 423 436 410 439 c 0
 399 443 387 448 376 452 c 128
 365 456 353 460 342 463 c 1
 343 457 343 446 344 431 c 128
 345 416 346 401 347 387 c 0
 347 379 345 372 340 364 c 128
 335 356 328 352 317 352 c 0
EndSplineSet
EndChar

StartChar: numbersign
Encoding: 35 35 69
Width: 600
GlyphClass: 1
Flags: W
LayerCount: 2
Fore
SplineSet
128 -93 m 0
 123 -93 120 -92 117 -88 c 128
 114 -84 113 -80 113 -75 c 2
 113 -71 l 1
 153 90 l 1
 95 88 l 2
 88 87 83 89 79 94 c 128
 75 99 73 103 73 107 c 0
 73 123 75 136 78 146 c 128
 81 156 86 163 92 168 c 128
 98 173 103 176 110 176 c 2
 174 179 l 1
 202 290 l 1
 135 287 l 2
 128 287 124 290 120 294 c 128
 116 298 114 302 114 307 c 0
 114 323 115 336 118 346 c 128
 121 356 126 363 132 368 c 128
 138 373 143 375 150 375 c 2
 224 378 l 1
 260 526 l 2
 262 537 267 544 274 547 c 128
 281 550 289 552 300 552 c 0
 303 552 306 550 308 546 c 128
 310 542 312 539 312 534 c 0
 312 532 312 531 311 530 c 128
 310 529 310 527 310 526 c 2
 275 381 l 1
 389 386 l 1
 426 537 l 2
 428 548 433 555 440 558 c 128
 447 561 455 563 466 563 c 0
 469 563 472 562 474 558 c 128
 476 554 478 550 478 545 c 0
 478 543 478 541 477 540 c 128
 476 539 476 538 476 537 c 2
 440 388 l 1
 499 391 l 2
 506 392 512 390 516 386 c 128
 520 382 523 377 523 371 c 0
 523 362 521 352 517 341 c 128
 513 330 508 321 502 314 c 128
 496 307 490 304 483 303 c 2
 417 300 l 1
 390 188 l 1
 458 191 l 2
 466 192 472 190 476 186 c 128
 480 182 483 177 483 171 c 0
 483 161 481 150 477 140 c 128
 473 130 468 121 462 114 c 128
 456 107 450 104 443 103 c 2
 368 100 l 1
 330 -55 l 2
 327 -65 324 -71 318 -74 c 128
 312 -77 304 -78 294 -78 c 0
 290 -78 287 -76 284 -72 c 128
 281 -68 279 -65 279 -60 c 2
 279 -55 l 1
 317 97 l 1
 203 93 l 1
 164 -71 l 2
 161 -80 158 -86 152 -89 c 128
 146 -92 138 -93 128 -93 c 0
225 181 m 1
 339 185 l 1
 366 298 l 1
 253 293 l 1
 225 181 l 1
EndSplineSet
EndChar

StartChar: slash
Encoding: 47 47 70
Width: 600
GlyphClass: 1
Flags: W
LayerCount: 2
Fore
SplineSet
134 -62 m 0
 127 -62 121 -60 117 -56 c 128
 113 -52 112 -48 114 -43 c 2
 423 646 l 2
 428 655 433 660 441 663 c 128
 449 666 458 667 469 667 c 0
 478 667 484 665 487 660 c 128
 490 655 491 651 489 646 c 2
 179 -43 l 2
 176 -51 170 -56 161 -58 c 128
 152 -60 143 -62 134 -62 c 0
EndSplineSet
EndChar

StartChar: backslash
Encoding: 92 92 71
Width: 600
GlyphClass: 1
Flags: W
LayerCount: 2
Fore
SplineSet
466 -62 m 0
 457 -62 449 -60 440 -58 c 128
 431 -56 425 -51 421 -43 c 2
 111 646 l 2
 109 651 110 655 114 660 c 128
 118 665 123 667 132 667 c 0
 143 667 152 666 160 663 c 128
 168 660 173 655 177 646 c 2
 486 -43 l 2
 488 -48 487 -52 483 -56 c 128
 479 -60 473 -62 466 -62 c 0
EndSplineSet
EndChar

StartChar: parenleft
Encoding: 40 40 72
Width: 600
GlyphClass: 1
Flags: W
LayerCount: 2
Fore
SplineSet
387 -215 m 0
 376 -215 366 -211 358 -203 c 0
 344 -189 330 -170 314 -144 c 128
 298 -118 282 -89 267 -56 c 128
 252 -23 238 13 225 50 c 128
 212 87 202 124 195 161 c 128
 188 198 184 234 184 267 c 0
 184 310 189 352 200 394 c 128
 211 436 225 476 242 514 c 128
 259 552 278 586 297 616 c 128
 316 646 335 670 353 687 c 0
 358 692 364 696 373 700 c 128
 382 704 390 706 398 706 c 0
 404 706 412 703 421 698 c 128
 430 693 435 686 435 679 c 0
 435 678 433 674 430 670 c 128
 427 666 424 661 421 656 c 128
 418 651 415 648 414 647 c 0
 397 625 379 596 362 559 c 128
 345 522 330 480 318 431 c 128
 306 382 301 329 301 272 c 0
 301 234 304 194 310 153 c 128
 316 112 324 71 334 32 c 128
 344 -7 356 -43 368 -74 c 128
 380 -105 394 -129 407 -145 c 0
 408 -146 411 -149 415 -154 c 128
 419 -159 422 -163 426 -168 c 128
 430 -173 432 -176 432 -177 c 0
 432 -189 428 -198 418 -205 c 128
 408 -212 398 -215 387 -215 c 0
EndSplineSet
EndChar

StartChar: parenright
Encoding: 41 41 73
Width: 600
GlyphClass: 1
Flags: W
LayerCount: 2
Fore
SplineSet
214 -215 m 0
 203 -215 192 -212 183 -205 c 128
 174 -198 169 -189 169 -177 c 0
 169 -176 170 -173 174 -168 c 128
 178 -163 182 -159 186 -154 c 128
 190 -149 193 -146 193 -145 c 0
 206 -129 219 -105 232 -74 c 128
 245 -43 256 -7 266 32 c 128
 276 71 284 112 290 153 c 128
 296 194 299 234 299 272 c 0
 299 329 294 382 282 431 c 128
 270 480 255 522 238 559 c 128
 221 596 203 625 186 647 c 0
 185 648 184 651 180 656 c 128
 176 661 173 666 170 670 c 128
 167 674 165 678 165 679 c 0
 165 686 170 693 179 698 c 128
 188 703 196 706 202 706 c 0
 211 706 219 704 228 700 c 128
 237 696 243 692 248 687 c 0
 265 670 284 646 304 616 c 128
 324 586 341 552 358 514 c 128
 375 476 389 436 400 394 c 128
 411 352 416 310 416 267 c 0
 416 234 412 198 405 161 c 128
 398 124 388 87 375 50 c 128
 362 13 349 -23 334 -56 c 128
 319 -89 303 -118 287 -144 c 128
 271 -170 256 -189 242 -203 c 0
 234 -211 225 -215 214 -215 c 0
EndSplineSet
EndChar

StartChar: braceleft
Encoding: 123 123 74
Width: 600
GlyphClass: 1
Flags: W
LayerCount: 2
Fore
SplineSet
448 -152 m 0
 411 -151 376 -147 344 -138 c 128
 312 -129 286 -116 267 -96 c 128
 248 -76 240 -50 242 -19 c 0
 244 8 248 37 255 68 c 128
 262 99 265 129 265 157 c 0
 265 175 263 190 259 202 c 128
 255 214 247 225 236 234 c 128
 225 243 210 251 189 258 c 0
 182 261 174 264 168 266 c 128
 162 268 159 273 159 280 c 256
 159 287 163 293 170 296 c 128
 177 299 183 302 189 305 c 0
 202 311 215 317 226 324 c 128
 237 331 246 340 252 353 c 128
 258 366 261 383 261 406 c 0
 261 434 258 461 252 486 c 128
 246 511 242 536 240 563 c 0
 238 594 246 621 266 644 c 128
 286 667 312 684 344 696 c 128
 376 708 411 714 447 714 c 0
 457 714 464 712 468 710 c 128
 472 708 474 704 474 697 c 256
 474 690 470 686 462 683 c 128
 454 680 445 678 437 675 c 0
 415 669 398 662 388 654 c 128
 378 646 372 638 369 626 c 128
 366 614 365 599 365 580 c 0
 365 567 366 551 370 532 c 128
 374 513 378 493 382 474 c 128
 386 455 387 437 387 422 c 0
 387 399 380 378 365 359 c 128
 350 340 332 323 310 310 c 128
 288 297 266 288 243 283 c 0
 240 282 240 282 241 281 c 128
 243 280 243 280 245 279 c 0
 267 272 287 263 305 253 c 128
 323 243 338 232 351 220 c 128
 364 208 373 194 380 180 c 128
 387 166 390 150 390 133 c 0
 390 118 388 102 384 82 c 128
 380 62 376 43 372 24 c 128
 368 5 366 -11 366 -24 c 0
 366 -46 368 -64 372 -76 c 128
 376 -88 383 -97 394 -103 c 128
 405 -109 420 -114 440 -117 c 0
 447 -118 455 -120 462 -123 c 128
 469 -126 473 -130 473 -137 c 0
 473 -143 471 -147 466 -149 c 128
 461 -151 455 -152 448 -152 c 0
EndSplineSet
EndChar

StartChar: braceright
Encoding: 125 125 75
Width: 600
GlyphClass: 1
Flags: W
LayerCount: 2
Fore
SplineSet
152 -152 m 0
 145 -152 139 -151 134 -149 c 128
 129 -147 127 -143 127 -137 c 0
 127 -130 131 -126 138 -123 c 128
 145 -120 152 -118 160 -117 c 0
 180 -114 195 -109 206 -103 c 128
 217 -97 224 -88 228 -76 c 128
 232 -64 234 -46 234 -24 c 0
 234 -11 232 5 228 24 c 128
 224 43 220 62 216 82 c 128
 212 102 210 118 210 133 c 0
 210 150 213 166 220 180 c 128
 227 194 236 208 249 220 c 128
 262 232 277 243 295 253 c 128
 313 263 333 272 355 279 c 0
 357 280 357 280 359 281 c 128
 360 282 360 282 357 283 c 0
 335 288 312 297 290 310 c 128
 268 323 250 340 235 359 c 128
 220 378 213 399 213 422 c 0
 213 437 214 455 218 474 c 128
 222 493 226 513 230 532 c 128
 234 551 235 567 235 580 c 0
 235 599 234 614 231 626 c 128
 228 638 222 646 212 654 c 128
 202 662 185 669 162 675 c 0
 155 678 146 680 138 683 c 128
 130 686 126 690 126 697 c 256
 126 704 128 708 132 710 c 128
 136 712 143 714 153 714 c 0
 188 714 222 708 255 696 c 128
 288 684 314 667 334 644 c 128
 354 621 362 594 359 563 c 0
 358 536 354 511 348 486 c 128
 342 461 339 434 339 406 c 0
 339 383 342 366 348 353 c 128
 354 340 363 331 374 324 c 128
 385 317 398 311 411 305 c 0
 417 302 423 299 430 296 c 128
 437 293 441 287 441 280 c 256
 441 273 438 268 431 266 c 128
 424 264 418 261 411 258 c 0
 390 251 375 243 364 234 c 128
 353 225 346 214 342 202 c 128
 338 190 335 175 335 157 c 0
 335 129 338 99 345 68 c 128
 352 37 356 8 358 -19 c 0
 360 -50 352 -76 333 -96 c 128
 314 -116 289 -129 257 -138 c 128
 225 -147 190 -151 152 -152 c 0
EndSplineSet
EndChar

StartChar: bracketleft
Encoding: 91 91 76
Width: 600
GlyphClass: 1
Flags: W
LayerCount: 2
Fore
SplineSet
272 -201 m 2
 261 -201 253 -200 247 -198 c 128
 241 -196 237 -193 235 -186 c 128
 233 -179 232 -167 232 -150 c 2
 232 649 l 2
 232 666 233 679 235 686 c 128
 237 693 241 698 247 699 c 128
 253 700 262 701 273 701 c 2
 444 700 l 2
 449 700 455 700 460 698 c 128
 465 696 467 691 467 684 c 0
 467 677 463 673 454 670 c 128
 445 667 438 664 432 663 c 2
 352 652 l 2
 345 651 341 649 338 644 c 128
 335 639 333 634 333 629 c 2
 332 -124 l 2
 332 -129 333 -134 336 -138 c 128
 339 -142 344 -146 350 -147 c 2
 427 -160 l 2
 436 -161 444 -163 452 -166 c 128
 460 -169 463 -174 463 -180 c 0
 463 -188 460 -193 456 -196 c 128
 452 -199 447 -200 442 -200 c 2
 272 -201 l 2
EndSplineSet
EndChar

StartChar: bracketright
Encoding: 93 93 77
Width: 600
GlyphClass: 1
Flags: W
LayerCount: 2
Fore
SplineSet
328 -201 m 2
 158 -200 l 2
 153 -200 149 -199 144 -196 c 128
 139 -193 137 -188 137 -180 c 0
 137 -174 141 -169 149 -166 c 128
 157 -163 165 -161 174 -160 c 2
 250 -147 l 2
 256 -146 261 -142 264 -138 c 128
 267 -134 268 -129 268 -124 c 2
 268 629 l 2
 268 634 266 639 263 644 c 128
 260 649 255 651 249 652 c 2
 168 663 l 2
 163 664 156 667 147 670 c 128
 138 673 134 677 134 684 c 0
 134 691 137 696 142 698 c 128
 147 700 152 700 157 700 c 2
 327 701 l 2
 339 701 348 700 354 699 c 128
 360 698 363 693 365 686 c 128
 367 679 368 666 368 649 c 2
 368 -150 l 2
 368 -167 367 -179 365 -186 c 128
 363 -193 360 -196 354 -198 c 128
 348 -200 339 -201 328 -201 c 2
EndSplineSet
EndChar

StartChar: hyphenminus
Encoding: 45 45 78
Width: 600
GlyphClass: 1
Flags: W
LayerCount: 2
Fore
SplineSet
51 218 m 2
 46 218 42 220 38 223 c 128
 34 226 33 229 33 232 c 0
 33 237 34 244 36 252 c 128
 38 260 42 267 46 274 c 128
 50 281 56 284 64 284 c 2
 543 284 l 2
 550 284 555 283 560 280 c 128
 565 277 568 273 568 268 c 0
 568 258 565 248 558 236 c 128
 551 224 542 218 531 218 c 2
 51 218 l 2
EndSplineSet
Substitution2: "'ss01' Original glyphs-1" hyphenminus.ss01
EndChar

StartChar: underscore
Encoding: 95 95 79
Width: 600
GlyphClass: 1
Flags: W
LayerCount: 2
Fore
SplineSet
572 -128 m 2
 579 -128 584 -129 588 -132 c 128
 592 -135 595 -138 595 -143 c 0
 595 -151 592 -160 585 -171 c 128
 578 -182 570 -187 561 -187 c 2
 21 -187 l 2
 17 -187 13 -185 10 -182 c 128
 7 -179 5 -176 5 -173 c 0
 5 -169 6 -163 8 -156 c 128
 10 -149 13 -142 17 -136 c 128
 21 -130 26 -128 33 -128 c 2
 572 -128 l 2
EndSplineSet
EndChar

StartChar: quotesingle
Encoding: 39 39 81
Width: 600
GlyphClass: 1
Flags: W
LayerCount: 2
Fore
SplineSet
261 408 m 0
 257 408 254 411 252 418 c 128
 250 425 250 431 250 436 c 0
 251 449 251 460 250 470 c 128
 249 480 249 491 249 501 c 0
 249 516 249 531 248 545 c 128
 247 559 245 572 244 585 c 128
 243 598 243 609 243 618 c 256
 243 627 246 635 252 642 c 128
 258 649 265 655 271 659 c 0
 282 667 293 673 302 677 c 128
 311 681 321 683 332 683 c 0
 340 683 346 679 350 672 c 128
 354 665 357 656 357 646 c 0
 357 626 353 603 345 576 c 128
 337 549 328 523 318 498 c 128
 308 473 298 454 291 439 c 0
 287 432 282 425 276 418 c 128
 270 411 264 408 261 408 c 0
EndSplineSet
EndChar

StartChar: dollar
Encoding: 36 36 83
Width: 600
GlyphClass: 1
Flags: W
LayerCount: 2
Fore
SplineSet
248 -82 m 0
 240 -82 235 -80 231 -74 c 128
 227 -68 225 -62 226 -55 c 2
 233 7 l 2
 234 10 234 11 233 12 c 128
 232 13 230 14 227 15 c 0
 210 18 193 24 177 30 c 128
 161 36 145 44 130 53 c 0
 125 56 121 60 118 63 c 128
 115 66 112 70 110 75 c 0
 104 92 100 112 98 136 c 128
 96 160 94 183 95 207 c 0
 95 215 101 219 113 219 c 0
 119 219 124 218 126 216 c 128
 128 214 130 211 133 207 c 0
 142 174 156 146 173 123 c 128
 190 100 209 83 231 72 c 0
 234 71 236 71 238 72 c 128
 240 73 240 75 241 78 c 2
 261 252 l 2
 262 255 261 258 260 261 c 128
 259 264 256 266 251 269 c 0
 228 283 206 298 185 314 c 128
 164 330 147 350 133 373 c 128
 119 396 112 423 112 456 c 0
 112 488 120 517 136 542 c 128
 152 567 173 588 201 604 c 128
 229 620 260 629 295 633 c 0
 302 634 305 636 305 641 c 2
 310 693 l 2
 311 700 315 705 322 708 c 128
 329 711 337 712 346 712 c 0
 352 712 356 709 359 704 c 128
 362 699 362 693 361 686 c 0
 360 682 360 677 359 672 c 128
 358 667 358 662 358 656 c 128
 358 650 357 645 356 640 c 0
 356 635 358 633 363 632 c 0
 380 629 395 626 409 621 c 128
 423 616 435 612 444 608 c 0
 451 606 456 603 459 599 c 128
 462 595 465 589 468 580 c 0
 471 567 474 552 476 534 c 128
 478 516 479 495 479 474 c 0
 479 471 478 468 475 466 c 128
 472 464 467 463 462 463 c 0
 457 463 452 464 447 466 c 128
 442 468 438 472 437 476 c 0
 428 504 417 527 404 544 c 128
 391 561 375 573 356 580 c 0
 351 581 349 579 348 574 c 2
 330 419 l 2
 329 414 331 410 334 406 c 128
 337 402 345 396 356 389 c 0
 389 370 417 351 437 332 c 128
 457 313 472 294 481 272 c 128
 490 250 495 225 495 197 c 0
 495 138 477 93 439 62 c 128
 401 31 352 14 291 11 c 0
 287 11 285 9 284 5 c 2
 276 -69 l 2
 275 -74 273 -77 267 -79 c 128
 261 -81 255 -82 248 -82 c 0
302 61 m 0
 325 65 342 75 353 90 c 128
 364 105 369 123 369 142 c 0
 369 163 365 180 356 193 c 128
 347 206 334 219 317 231 c 0
 312 234 310 232 309 226 c 2
 292 72 l 2
 291 65 295 61 302 61 c 0
276 443 m 0
 280 439 282 440 282 445 c 2
 297 572 l 2
 298 579 296 582 291 581 c 0
 274 577 261 568 251 556 c 128
 241 544 236 527 236 506 c 0
 236 494 240 483 247 473 c 128
 254 463 263 453 276 443 c 0
EndSplineSet
EndChar

StartChar: plus
Encoding: 43 43 84
Width: 600
GlyphClass: 1
Flags: W
LayerCount: 2
Fore
SplineSet
284 -11 m 0
 281 -11 278 -9 275 -6 c 128
 272 -3 271 1 271 5 c 2
 271 208 l 2
 271 216 267 220 259 220 c 2
 50 220 l 2
 45 220 41 221 38 224 c 128
 35 227 34 229 34 232 c 0
 34 237 34 244 36 251 c 128
 38 258 41 265 45 271 c 128
 49 277 55 280 62 280 c 2
 258 280 l 2
 264 280 268 282 269 284 c 128
 270 286 271 289 271 293 c 2
 271 473 l 2
 271 480 273 485 279 490 c 128
 285 495 291 499 299 502 c 128
 307 505 312 507 317 507 c 256
 322 507 325 504 328 500 c 128
 331 496 332 491 332 485 c 2
 332 293 l 2
 332 284 336 280 343 280 c 2
 547 280 l 2
 553 280 559 278 563 276 c 128
 567 274 569 270 569 265 c 0
 569 256 566 247 559 236 c 128
 552 225 544 220 535 220 c 2
 344 220 l 2
 336 220 332 216 332 208 c 2
 332 17 l 2
 332 10 329 4 323 0 c 128
 317 -4 310 -6 302 -8 c 128
 294 -10 289 -11 284 -11 c 0
EndSplineSet
EndChar

StartChar: equal
Encoding: 61 61 85
Width: 600
GlyphClass: 1
Flags: W
LayerCount: 2
Fore
SplineSet
59 316 m 2
 55 316 51 317 48 320 c 128
 45 323 44 325 44 328 c 0
 44 332 44 338 46 345 c 128
 48 352 50 359 54 364 c 128
 58 369 64 372 70 372 c 2
 536 372 l 2
 542 372 546 371 550 368 c 128
 554 365 556 362 556 357 c 0
 556 349 553 340 547 330 c 128
 541 320 534 316 526 316 c 2
 59 316 l 2
59 135 m 2
 55 135 51 137 48 140 c 128
 45 143 44 145 44 148 c 0
 44 151 44 157 46 164 c 128
 48 171 50 178 54 183 c 128
 58 188 64 191 70 191 c 2
 536 191 l 2
 542 191 546 190 550 187 c 128
 554 184 556 181 556 176 c 0
 556 168 553 160 547 150 c 128
 541 140 534 135 526 135 c 2
 59 135 l 2
EndSplineSet
EndChar

StartChar: greater
Encoding: 62 62 86
Width: 600
GlyphClass: 1
Flags: W
LayerCount: 2
Fore
SplineSet
91 465 m 2
 484 276 l 2
 494 271 505 266 516 260 c 128
 527 254 532 248 532 245 c 0
 532 240 529 232 522 220 c 128
 515 208 505 199 493 194 c 2
 90 -3 l 2
 87 -5 85 -6 83 -6 c 0
 77 -6 72 -4 70 1 c 128
 68 6 67 11 67 16 c 0
 67 25 71 34 78 44 c 128
 85 54 93 61 103 66 c 2
 434 227 l 2
 437 228 438 230 438 232 c 128
 438 234 437 235 434 236 c 2
 102 396 l 2
 91 401 82 409 76 418 c 128
 70 427 67 437 67 446 c 0
 67 456 70 463 75 466 c 128
 80 469 86 468 91 465 c 2
EndSplineSet
EndChar

StartChar: less
Encoding: 60 60 87
Width: 600
GlyphClass: 1
Flags: W
LayerCount: 2
Fore
SplineSet
509 0 m 2
 116 189 l 2
 105 194 95 200 84 206 c 128
 73 212 67 217 67 220 c 0
 67 225 71 234 78 246 c 128
 85 258 95 266 106 271 c 2
 509 468 l 2
 512 470 514 471 516 471 c 0
 522 471 526 469 528 464 c 128
 530 459 532 454 532 449 c 0
 532 440 529 430 522 421 c 128
 515 412 507 404 496 399 c 2
 165 238 l 2
 162 237 161 236 161 234 c 128
 161 232 162 230 165 229 c 2
 497 69 l 2
 508 64 517 58 523 48 c 128
 529 38 532 28 532 19 c 0
 532 9 529 3 524 0 c 128
 519 -3 514 -3 509 0 c 2
EndSplineSet
EndChar

StartChar: asciitilde
Encoding: 126 126 88
Width: 600
GlyphClass: 1
Flags: W
LayerCount: 2
Fore
SplineSet
392 249 m 0
 377 249 361 252 346 258 c 128
 331 264 315 272 300 280 c 0
 283 288 266 295 249 302 c 128
 232 309 214 313 195 313 c 0
 178 313 161 308 145 299 c 128
 129 290 116 280 106 270 c 128
 96 260 89 256 87 256 c 0
 82 256 77 260 72 268 c 128
 67 276 65 283 65 286 c 0
 65 295 68 306 76 320 c 128
 84 334 95 346 108 360 c 128
 121 374 136 385 152 394 c 128
 168 403 185 408 202 408 c 0
 218 408 234 404 250 398 c 128
 266 392 282 385 298 377 c 0
 315 368 332 361 350 354 c 128
 368 347 386 343 403 343 c 0
 416 343 430 346 442 352 c 128
 454 358 465 364 475 372 c 128
 485 380 493 387 500 393 c 128
 507 399 511 402 512 402 c 0
 519 402 524 399 528 392 c 128
 532 385 534 378 534 371 c 0
 534 362 530 350 522 336 c 128
 514 322 502 309 488 296 c 128
 474 283 459 271 442 262 c 128
 425 253 409 249 392 249 c 0
EndSplineSet
EndChar

StartChar: asciicircum
Encoding: 94 94 89
Width: 600
GlyphClass: 1
Flags: W
LayerCount: 2
Fore
SplineSet
98 250 m 0
 92 250 86 252 82 254 c 128
 78 256 76 260 76 265 c 0
 76 268 77 270 78 273 c 2
 295 608 l 1
 302 608 l 1
 522 273 l 2
 525 268 525 263 522 258 c 128
 519 253 512 250 502 250 c 0
 493 250 484 253 476 260 c 128
 468 267 460 274 454 283 c 2
 304 503 l 2
 301 506 299 508 298 508 c 128
 297 508 295 506 294 503 c 2
 146 283 l 2
 140 274 133 266 124 260 c 128
 115 254 107 250 98 250 c 0
EndSplineSet
EndChar

StartChar: percent
Encoding: 37 37 90
Width: 600
GlyphClass: 1
Flags: W
LayerCount: 2
Fore
SplineSet
449 -17 m 0
 426 -17 406 -10 388 4 c 128
 370 18 357 39 346 65 c 128
 335 91 330 121 330 156 c 0
 330 193 336 225 346 252 c 128
 356 279 370 299 389 314 c 128
 408 329 430 336 455 336 c 0
 479 336 500 329 518 314 c 128
 536 299 550 280 560 254 c 128
 570 228 575 198 575 164 c 0
 575 123 569 90 558 63 c 128
 547 36 531 16 512 3 c 128
 493 -10 472 -17 449 -17 c 0
456 17 m 0
 463 17 470 23 474 36 c 128
 478 49 481 67 483 88 c 128
 485 109 486 131 486 155 c 256
 486 179 485 202 482 224 c 128
 479 246 474 266 469 280 c 128
 464 294 457 301 449 301 c 0
 442 301 436 295 432 282 c 128
 428 269 424 253 422 232 c 128
 420 211 420 188 420 164 c 0
 420 146 421 128 422 111 c 128
 423 94 425 78 428 64 c 128
 431 50 435 39 440 30 c 128
 445 21 450 17 456 17 c 0
453 641 m 2
 458 650 465 657 472 660 c 128
 479 663 487 664 496 664 c 0
 501 664 505 662 508 658 c 128
 511 654 512 650 512 646 c 0
 512 642 512 642 512 641 c 2
 172 5 l 2
 168 -3 162 -8 155 -11 c 128
 148 -14 140 -15 131 -15 c 0
 126 -15 122 -13 118 -10 c 128
 114 -7 112 -3 112 1 c 0
 112 3 112 4 113 5 c 2
 453 641 l 2
145 263 m 0
 122 263 102 270 84 284 c 128
 66 298 52 319 41 345 c 128
 30 371 25 401 25 436 c 0
 25 473 30 505 40 532 c 128
 50 559 65 579 84 594 c 128
 103 609 126 616 151 616 c 0
 175 616 196 609 214 594 c 128
 232 579 245 560 255 534 c 128
 265 508 270 478 270 444 c 0
 270 403 264 370 253 343 c 128
 242 316 227 296 208 283 c 128
 189 270 168 263 145 263 c 0
151 297 m 0
 158 297 164 303 168 316 c 128
 172 329 176 347 178 368 c 128
 180 389 181 411 181 435 c 256
 181 459 180 482 177 504 c 128
 174 526 170 546 165 560 c 128
 160 574 153 581 144 581 c 0
 137 581 130 575 126 562 c 128
 122 549 120 533 118 512 c 128
 116 491 115 468 115 444 c 0
 115 426 116 408 117 391 c 128
 118 374 121 358 124 344 c 128
 127 330 132 319 136 310 c 128
 140 301 145 297 151 297 c 0
EndSplineSet
EndChar

StartChar: at
Encoding: 64 64 91
Width: 600
GlyphClass: 1
Flags: W
LayerCount: 2
Fore
SplineSet
306 -158 m 0
 268 -158 233 -150 199 -133 c 128
 165 -116 134 -92 108 -62 c 128
 82 -32 61 4 46 46 c 128
 31 88 23 134 23 185 c 0
 23 244 31 295 47 340 c 128
 63 385 86 422 114 452 c 128
 142 482 174 505 211 520 c 128
 248 535 286 543 327 543 c 0
 361 543 392 536 422 521 c 128
 452 506 480 485 503 458 c 128
 526 431 544 400 557 364 c 128
 570 328 577 287 577 244 c 0
 577 201 570 163 554 130 c 128
 538 97 518 70 493 51 c 128
 468 32 442 22 416 22 c 0
 401 22 389 25 381 32 c 128
 373 39 368 47 364 54 c 128
 360 61 356 64 353 64 c 256
 350 64 344 60 334 52 c 128
 324 44 312 37 297 29 c 128
 282 21 265 17 246 17 c 0
 215 17 189 28 167 51 c 128
 145 74 135 106 135 148 c 0
 135 197 143 240 160 276 c 128
 177 312 199 340 227 360 c 128
 255 380 287 390 321 390 c 0
 331 390 340 389 351 386 c 128
 362 383 370 381 376 379 c 0
 380 378 385 376 389 374 c 128
 393 372 396 370 398 370 c 0
 401 370 404 372 406 377 c 128
 408 382 411 386 413 390 c 128
 415 394 418 397 421 397 c 0
 423 397 426 397 430 396 c 128
 434 395 438 394 442 392 c 128
 446 390 448 389 448 386 c 0
 443 371 439 353 435 332 c 128
 431 311 428 296 426 285 c 2
 408 148 l 2
 407 142 408 142 407 136 c 128
 406 132 406 128 406 123 c 0
 406 116 407 109 409 103 c 128
 411 97 415 94 420 94 c 0
 438 94 454 99 469 110 c 128
 484 121 497 136 506 156 c 128
 515 176 520 199 520 226 c 0
 520 277 512 322 495 360 c 128
 478 398 454 428 424 449 c 128
 394 470 358 481 316 481 c 0
 285 481 254 474 226 461 c 128
 198 448 172 429 150 404 c 128
 128 379 111 349 98 314 c 128
 85 279 79 240 79 196 c 0
 79 155 86 116 98 81 c 128
 110 46 127 15 149 -12 c 128
 171 -39 197 -59 225 -74 c 128
 253 -89 283 -96 315 -96 c 0
 331 -96 348 -93 368 -87 c 128
 388 -81 407 -72 426 -62 c 128
 445 -52 462 -41 476 -28 c 0
 481 -24 486 -20 491 -16 c 128
 496 -12 500 -10 504 -10 c 0
 518 -10 525 -16 525 -29 c 0
 525 -38 518 -49 504 -63 c 128
 490 -77 472 -91 450 -106 c 128
 428 -121 403 -133 378 -143 c 128
 353 -153 329 -158 306 -158 c 0
277 75 m 0
 286 75 293 77 300 80 c 128
 307 83 313 88 320 95 c 0
 325 100 328 106 331 114 c 128
 334 122 336 132 338 147 c 2
 355 264 l 2
 356 265 356 267 356 269 c 128
 356 272 356 272 356 276 c 0
 356 295 350 312 339 324 c 128
 328 336 315 342 300 342 c 0
 286 342 272 336 260 323 c 128
 248 310 238 292 230 268 c 128
 222 244 218 215 218 181 c 0
 218 156 221 136 227 120 c 128
 233 104 241 93 250 86 c 128
 259 79 268 75 277 75 c 0
EndSplineSet
EndChar

StartChar: ampersand
Encoding: 38 38 92
Width: 600
GlyphClass: 1
Flags: W
LayerCount: 2
Fore
SplineSet
154 -16 m 0
 135 -16 114 -11 94 0 c 128
 74 11 57 26 43 48 c 128
 29 70 22 98 22 131 c 0
 22 168 32 204 52 242 c 128
 72 280 100 311 137 335 c 2
 153 345 l 1
 148 352 l 2
 143 359 136 368 128 380 c 128
 120 392 112 406 106 422 c 128
 100 438 97 455 97 474 c 0
 97 497 103 519 115 538 c 128
 127 557 144 572 165 583 c 128
 186 594 211 600 239 600 c 0
 262 600 282 595 300 586 c 128
 318 577 332 566 342 550 c 128
 352 534 358 515 358 494 c 0
 358 463 351 439 337 422 c 128
 323 405 304 391 280 379 c 2
 262 370 l 1
 278 347 l 2
 291 330 304 312 318 292 c 128
 332 272 345 254 357 237 c 2
 372 217 l 1
 382 229 l 2
 391 240 398 252 404 264 c 128
 410 276 415 287 418 298 c 128
 421 309 422 319 422 327 c 0
 422 338 420 345 416 350 c 128
 412 355 406 359 400 362 c 0
 395 365 391 368 388 370 c 128
 385 372 384 376 384 382 c 0
 384 389 386 394 391 395 c 128
 396 396 401 397 407 397 c 0
 414 397 422 396 430 395 c 128
 438 394 446 392 455 391 c 128
 464 390 473 389 482 389 c 0
 493 389 504 391 516 395 c 128
 528 399 541 402 553 406 c 128
 565 410 575 412 584 412 c 0
 588 412 591 411 593 408 c 128
 595 405 596 401 596 398 c 0
 596 392 594 386 590 380 c 128
 586 374 579 371 570 369 c 0
 554 365 540 357 529 346 c 128
 518 335 508 324 499 313 c 0
 492 304 485 296 478 287 c 128
 471 278 463 270 456 261 c 128
 449 252 442 244 434 236 c 128
 426 228 419 218 412 210 c 128
 405 202 398 194 391 185 c 1
 405 163 l 2
 420 138 434 118 448 100 c 128
 462 82 476 73 491 73 c 0
 500 73 509 74 519 76 c 128
 529 78 539 82 550 87 c 0
 553 88 555 90 558 92 c 128
 561 94 564 94 567 94 c 0
 571 94 574 94 577 92 c 128
 580 90 581 86 581 79 c 0
 581 69 576 57 565 42 c 128
 554 27 539 13 520 2 c 128
 501 -9 479 -15 454 -15 c 0
 434 -15 416 -12 402 -6 c 128
 388 0 376 10 364 23 c 128
 352 36 339 51 326 70 c 2
 312 91 l 1
 309 85 l 2
 294 62 279 43 262 28 c 128
 245 13 226 2 208 -5 c 128
 190 -12 172 -16 154 -16 c 0
215 85 m 0
 225 85 236 86 249 88 c 128
 262 90 274 99 285 114 c 2
 290 121 l 1
 278 140 l 2
 261 167 245 193 229 219 c 128
 213 245 196 271 179 298 c 2
 170 312 l 1
 157 301 l 2
 150 296 145 289 141 280 c 128
 137 271 134 261 132 250 c 128
 130 239 129 228 129 215 c 0
 129 174 136 143 152 120 c 128
 168 97 189 85 215 85 c 0
246 396 m 1
 254 406 l 2
 259 413 263 424 266 440 c 128
 269 456 270 472 270 488 c 0
 271 507 268 525 262 540 c 128
 256 555 248 562 235 562 c 0
 227 562 220 557 213 548 c 128
 206 539 203 526 203 511 c 0
 203 492 204 477 208 464 c 128
 212 451 216 440 220 433 c 128
 224 426 228 420 231 416 c 2
 246 396 l 1
EndSplineSet
EndChar

StartChar: bar
Encoding: 124 124 93
Width: 600
GlyphClass: 1
Flags: W
LayerCount: 2
Fore
SplineSet
267 -289 m 0
 262 -289 256 -286 252 -281 c 0
 248 -276 246 -270 246 -264 c 2
 246 650 l 2
 246 659 249 667 256 674 c 0
 263 681 272 687 282 692 c 0
 292 697 303 700 312 702 c 0
 321 704 326 705 329 705 c 0
 335 705 341 702 346 698 c 0
 351 694 354 689 354 682 c 2
 354 -245 l 2
 354 -255 350 -262 343 -268 c 0
 336 -274 326 -279 316 -282 c 0
 306 -285 297 -287 288 -288 c 0
 279 -289 272 -289 267 -289 c 0
EndSplineSet
EndChar

StartChar: grave
Encoding: 96 96 94
Width: 600
GlyphClass: 1
Flags: W
LayerCount: 2
Fore
SplineSet
377 453 m 0
 370 453 361 458 350 469 c 0
 337 483 323 498 308 514 c 0
 293 530 278 546 264 563 c 0
 250 580 236 595 223 609 c 0
 219 614 216 618 215 622 c 0
 214 626 213 631 213 634 c 0
 213 642 218 648 230 652 c 0
 242 656 256 658 272 658 c 0
 284 658 293 656 300 653 c 0
 307 650 312 643 317 633 c 0
 322 623 330 608 338 590 c 0
 346 572 354 553 362 534 c 0
 370 515 377 499 382 486 c 0
 384 482 385 478 386 474 c 0
 387 470 387 468 387 465 c 0
 387 457 384 453 377 453 c 0
EndSplineSet
EndChar

StartChar: hyphenminus.ss01
Encoding: 65536 -1 95
Width: 600
Flags: W
LayerCount: 2
Fore
SplineSet
178 164 m 0
 171 163 168 167 168 174 c 0
 168 194 170 210 174 220 c 128
 178 230 183 236 190 237 c 0
 226 242 264 248 304 253 c 128
 344 258 381 262 417 265 c 0
 423 266 427 265 429 262 c 128
 431 259 432 255 432 250 c 0
 432 230 431 216 428 208 c 128
 425 200 420 195 412 194 c 0
 377 189 338 184 296 178 c 128
 254 172 215 167 178 164 c 0
EndSplineSet
EndChar

StartChar: zero.ss01
Encoding: 65537 -1 96
Width: 600
Flags: W
LayerCount: 2
Fore
SplineSet
296 -14 m 0
 256 -14 221 -5 192 14 c 0
 163 33 138 57 118 88 c 0
 98 119 84 154 75 191 c 0
 66 228 61 265 61 302 c 0
 61 340 66 378 75 417 c 0
 84 456 99 492 119 524 c 0
 139 556 165 582 196 602 c 0
 227 622 264 631 307 631 c 0
 347 631 382 622 412 603 c 0
 442 584 465 559 484 528 c 0
 503 497 518 463 528 426 c 0
 538 389 542 353 542 317 c 0
 542 279 537 241 528 202 c 0
 519 163 504 128 484 95 c 0
 464 62 439 36 408 16 c 0
 377 -4 340 -14 296 -14 c 0
311 31 m 0
 332 31 349 43 362 68 c 0
 375 93 385 126 391 167 c 0
 397 208 400 252 400 299 c 0
 400 334 398 369 393 403 c 0
 388 437 381 468 372 496 c 0
 363 524 351 546 338 562 c 0
 325 578 309 586 291 586 c 0
 270 586 253 573 240 548 c 0
 227 523 218 490 212 450 c 0
 206 410 204 366 204 319 c 0
 204 284 206 249 210 215 c 0
 214 181 221 150 230 122 c 0
 239 94 251 73 264 56 c 0
 277 39 293 31 311 31 c 0
EndSplineSet
EndChar

StartChar: l.ss01
Encoding: 65538 -1 97
Width: 600
Flags: W
LayerCount: 2
Fore
SplineSet
193 -3 m 0
 187 -3 182 -2 178 0 c 128
 174 2 173 6 173 11 c 0
 173 16 175 21 179 24 c 128
 183 27 189 29 196 31 c 0
 206 34 214 38 222 42 c 128
 230 46 234 55 234 69 c 2
 234 550 l 2
 234 568 231 584 226 597 c 128
 221 610 211 619 194 622 c 0
 187 623 184 628 184 637 c 256
 184 646 187 651 193 652 c 0
 210 655 229 660 249 666 c 128
 269 672 288 679 306 686 c 128
 324 693 338 699 348 702 c 0
 353 704 358 705 361 705 c 0
 365 705 368 704 369 702 c 128
 370 700 371 696 371 693 c 0
 371 688 370 680 368 667 c 128
 366 654 366 640 365 624 c 2
 365 71 l 2
 365 56 368 48 376 44 c 128
 384 40 393 36 403 33 c 0
 410 30 416 28 420 25 c 128
 424 22 426 18 426 13 c 0
 426 8 424 4 420 2 c 128
 416 0 412 -1 406 -1 c 0
 393 -1 380 -1 368 0 c 128
 356 1 344 2 332 2 c 128
 320 2 309 2 297 2 c 0
 286 2 275 2 264 1 c 128
 253 0 241 -1 230 -2 c 128
 219 -3 206 -3 193 -3 c 0
EndSplineSet
EndChar

StartChar: exclamdown
Encoding: 161 161 99
Width: 600
Flags: W
LayerCount: 2
Fore
SplineSet
299 302 m 256
 307 302 313 297 318 288 c 128
 323 279 326 267 328 252 c 0
 333 215 338 181 344 149 c 128
 350 117 356 88 360 60 c 128
 364 32 367 6 370 -18 c 128
 373 -42 375 -63 375 -84 c 0
 375 -107 369 -127 356 -144 c 128
 343 -161 325 -169 303 -169 c 0
 282 -169 264 -160 250 -142 c 128
 236 -124 228 -104 228 -82 c 0
 229 -61 230 -39 232 -16 c 128
 234 7 237 32 240 60 c 128
 243 88 247 116 252 148 c 128
 257 180 263 215 268 252 c 0
 271 270 275 282 280 290 c 128
 285 298 291 302 299 302 c 256
297 494 m 256
 317 494 334 487 348 473 c 128
 362 459 370 442 370 422 c 256
 370 402 362 384 348 370 c 128
 334 356 317 349 297 349 c 256
 277 349 260 356 246 370 c 128
 232 384 225 402 225 422 c 256
 225 442 232 459 246 473 c 128
 260 487 277 494 297 494 c 256
EndSplineSet
EndChar

StartChar: cent
Encoding: 162 162 100
Width: 600
Flags: W
LayerCount: 2
Fore
SplineSet
288 -88 m 256
 283 -88 278 -86 274 -83 c 128
 270 -80 267 -75 268 -69 c 2
 275 5 l 1
 245 10 218 22 192 40 c 128
 166 58 145 84 130 114 c 128
 115 144 107 179 107 218 c 0
 107 257 116 293 134 326 c 128
 152 359 177 387 209 409 c 128
 241 431 278 444 319 448 c 1
 326 510 l 2
 327 517 330 522 336 526 c 128
 342 530 347 531 354 531 c 0
 359 531 363 529 366 524 c 128
 369 519 371 515 370 510 c 2
 363 448 l 1
 385 446 408 441 430 432 c 128
 452 423 471 409 488 392 c 0
 494 387 497 381 497 375 c 0
 497 360 491 348 479 338 c 128
 467 328 454 324 440 325 c 0
 426 325 415 330 407 340 c 0
 398 352 390 362 382 370 c 128
 374 378 366 383 358 387 c 1
 330 121 l 1
 335 120 340 120 344 120 c 128
 348 120 352 119 356 119 c 0
 381 119 404 123 425 132 c 128
 446 141 462 153 471 169 c 0
 474 175 479 178 485 178 c 0
 494 178 498 173 498 163 c 0
 498 160 497 156 496 152 c 128
 495 148 494 144 493 140 c 0
 479 103 458 72 431 46 c 128
 404 20 366 5 318 2 c 1
 312 -69 l 2
 311 -75 308 -80 303 -83 c 128
 298 -86 293 -88 288 -88 c 256
288 134 m 1
 315 397 l 1
 314 397 l 2
 291 397 273 392 259 380 c 128
 245 368 235 352 228 332 c 128
 221 312 218 289 218 264 c 0
 218 231 224 203 237 182 c 128
 250 161 267 145 288 134 c 1
EndSplineSet
EndChar

StartChar: sterling
Encoding: 163 163 101
Width: 600
Flags: W
LayerCount: 2
Fore
SplineSet
70 294 m 2
 66 293 62 295 58 298 c 128
 54 301 51 305 51 310 c 0
 51 315 54 322 60 328 c 128
 66 334 74 337 83 338 c 2
 445 362 l 2
 450 363 455 361 458 357 c 128
 461 353 462 349 462 346 c 0
 462 342 458 337 449 330 c 128
 440 323 431 319 421 318 c 2
 70 294 l 2
365 -37 m 0
 334 -37 308 -30 285 -16 c 128
 262 -2 241 12 222 27 c 0
 214 33 205 40 194 46 c 128
 183 52 174 58 165 62 c 128
 156 66 150 68 147 68 c 0
 144 68 140 65 133 58 c 128
 126 51 119 42 112 32 c 128
 105 22 98 14 93 5 c 0
 78 -16 61 -26 42 -26 c 0
 33 -25 26 -22 19 -14 c 128
 12 -6 9 6 9 21 c 256
 9 36 14 51 23 66 c 128
 32 81 46 94 62 105 c 128
 78 116 97 122 118 125 c 0
 123 126 128 127 130 130 c 128
 132 133 134 137 136 141 c 0
 142 157 147 178 150 204 c 128
 153 230 156 257 158 286 c 128
 160 315 162 341 163 366 c 0
 166 396 172 426 182 457 c 128
 192 488 208 516 228 542 c 128
 248 568 273 589 305 605 c 128
 337 621 376 629 422 629 c 0
 462 629 492 620 512 601 c 128
 532 582 542 560 542 534 c 0
 542 520 538 507 530 496 c 128
 522 485 511 476 500 469 c 128
 489 462 478 459 468 459 c 0
 462 459 458 462 454 466 c 128
 450 470 448 474 448 479 c 256
 448 484 449 489 450 495 c 128
 451 501 451 508 451 516 c 0
 451 535 447 552 440 567 c 128
 433 582 423 589 408 589 c 0
 392 589 378 581 366 566 c 128
 354 551 344 526 335 491 c 128
 326 456 318 411 311 354 c 0
 308 324 302 296 294 268 c 128
 286 240 276 215 263 194 c 128
 250 173 235 157 216 146 c 0
 214 145 213 144 214 140 c 128
 215 136 216 134 219 134 c 0
 251 134 280 130 305 122 c 128
 330 114 353 105 373 94 c 0
 394 85 412 76 428 68 c 128
 444 60 460 57 474 57 c 0
 487 57 496 60 502 66 c 128
 508 72 511 80 511 93 c 0
 511 102 509 112 506 123 c 128
 503 134 499 145 496 156 c 128
 493 167 492 175 492 182 c 0
 492 189 494 195 499 200 c 128
 504 205 511 208 520 208 c 0
 537 208 550 202 559 189 c 128
 568 176 572 161 572 142 c 0
 572 121 566 99 555 78 c 128
 544 57 528 38 508 21 c 128
 488 4 467 -10 442 -21 c 128
 417 -32 392 -37 365 -37 c 0
EndSplineSet
EndChar

StartChar: currency
Encoding: 164 164 102
Width: 600
Flags: W
LayerCount: 2
Fore
SplineSet
110 45 m 0
 102 45 94 50 86 58 c 128
 78 66 73 74 73 81 c 0
 73 84 74 87 77 90 c 2
 134 147 l 1
 122 164 113 182 106 202 c 128
 99 222 96 244 96 266 c 0
 96 289 99 312 106 332 c 128
 113 352 123 371 135 388 c 1
 77 446 l 2
 74 448 73 451 73 454 c 0
 73 461 78 469 86 478 c 128
 94 487 102 491 110 491 c 0
 114 491 117 490 119 487 c 2
 177 431 l 1
 194 444 214 455 236 463 c 128
 258 471 280 475 305 475 c 0
 328 475 349 471 370 464 c 128
 391 457 410 448 427 435 c 1
 480 487 l 2
 483 490 486 491 489 491 c 0
 497 491 506 486 514 478 c 128
 522 470 526 462 526 454 c 0
 526 451 525 448 523 445 c 2
 470 392 l 1
 483 375 494 355 501 334 c 128
 508 313 512 290 512 266 c 0
 512 243 509 221 502 200 c 128
 495 179 485 159 472 142 c 1
 524 91 l 2
 526 88 527 85 527 82 c 0
 527 74 523 66 514 58 c 128
 505 50 497 45 489 45 c 0
 486 45 483 46 480 49 c 2
 429 99 l 1
 393 72 352 58 305 58 c 0
 280 58 257 62 235 70 c 128
 213 78 193 88 174 103 c 1
 119 49 l 2
 117 46 114 45 110 45 c 0
304 117 m 0
 332 117 358 124 380 137 c 128
 402 150 420 168 433 191 c 128
 446 214 453 239 453 266 c 0
 453 294 446 319 433 342 c 128
 420 365 402 383 380 396 c 128
 358 409 332 416 304 416 c 0
 277 416 252 409 229 396 c 128
 206 383 188 365 175 342 c 128
 162 319 155 294 155 266 c 0
 155 239 162 214 175 191 c 128
 188 168 206 150 229 137 c 128
 252 124 277 117 304 117 c 0
EndSplineSet
EndChar

StartChar: yen
Encoding: 165 165 103
Width: 600
Flags: W
LayerCount: 2
Fore
SplineSet
177 -6 m 0
 169 -6 163 -5 158 -2 c 128
 153 1 151 5 151 10 c 0
 151 16 153 21 159 24 c 128
 165 27 171 30 178 31 c 0
 201 36 218 45 227 58 c 128
 236 71 241 89 241 110 c 2
 242 184 l 1
 138 184 l 2
 134 184 130 186 126 189 c 128
 122 192 120 196 121 201 c 0
 121 206 124 213 130 221 c 128
 136 229 144 233 152 233 c 2
 242 232 l 1
 242 248 l 2
 242 253 241 258 241 262 c 128
 241 266 241 270 240 274 c 1
 138 274 l 2
 134 274 130 276 126 280 c 128
 122 284 120 287 121 291 c 0
 121 297 124 304 130 312 c 128
 136 320 144 323 152 323 c 2
 227 323 l 1
 94 548 l 2
 88 557 82 566 75 576 c 128
 68 586 61 594 52 602 c 128
 43 610 34 615 22 618 c 0
 16 621 10 623 6 626 c 128
 2 629 0 633 0 640 c 0
 0 645 2 648 6 650 c 128
 10 652 14 654 19 654 c 0
 45 654 69 653 93 651 c 128
 117 649 142 648 168 648 c 0
 188 648 208 649 226 651 c 128
 244 653 263 654 283 654 c 0
 289 654 294 652 300 650 c 128
 306 648 308 645 308 640 c 0
 308 635 306 630 300 626 c 128
 294 622 288 620 281 619 c 0
 265 614 253 609 246 604 c 128
 239 599 235 591 235 580 c 0
 235 575 236 570 238 564 c 128
 240 558 241 552 244 546 c 2
 328 371 l 2
 334 360 340 354 345 354 c 0
 348 354 351 355 353 358 c 128
 355 361 358 366 361 371 c 0
 367 383 373 396 380 409 c 128
 387 422 394 436 402 450 c 128
 410 464 417 479 424 494 c 128
 431 509 439 523 446 538 c 0
 452 550 455 562 455 575 c 0
 455 588 450 599 440 606 c 128
 430 613 419 617 407 618 c 0
 401 619 395 622 389 626 c 128
 383 630 379 634 379 640 c 0
 379 645 382 648 388 650 c 128
 394 652 399 653 406 653 c 0
 423 653 439 652 454 651 c 128
 469 650 484 649 501 649 c 0
 519 649 536 650 551 652 c 128
 566 654 581 656 598 656 c 0
 605 656 611 655 617 653 c 128
 623 651 626 647 626 640 c 0
 626 634 623 630 618 628 c 128
 613 626 607 623 601 620 c 0
 589 617 577 612 567 605 c 128
 557 598 547 589 539 580 c 128
 531 571 525 561 519 551 c 0
 509 534 500 516 490 498 c 128
 480 480 470 463 460 446 c 128
 450 429 441 413 432 397 c 128
 423 381 415 366 407 352 c 0
 403 344 403 344 400 337 c 128
 398 332 396 327 394 322 c 1
 486 322 l 2
 490 322 494 320 497 316 c 128
 500 312 502 308 501 305 c 0
 500 300 495 294 487 286 c 128
 479 278 470 273 461 273 c 2
 382 273 l 1
 382 232 l 1
 485 231 l 2
 490 231 494 230 497 226 c 128
 500 222 502 218 501 214 c 0
 500 209 495 203 487 195 c 128
 479 187 470 183 461 183 c 2
 382 183 l 1
 382 110 l 2
 382 85 387 68 396 58 c 128
 405 48 422 38 446 31 c 0
 453 29 459 27 464 24 c 128
 469 21 472 17 472 11 c 0
 472 6 470 3 465 -0 c 128
 460 -3 455 -5 448 -5 c 0
 435 -5 420 -4 403 -3 c 128
 386 -2 370 -1 354 0 c 128
 338 1 323 2 311 2 c 0
 298 2 284 1 269 0 c 128
 254 -1 238 -2 222 -4 c 128
 206 -6 191 -6 177 -6 c 0
EndSplineSet
EndChar

StartChar: brokenbar
Encoding: 166 166 104
Width: 600
Flags: W
LayerCount: 2
Fore
SplineSet
268 -290 m 0
 262 -290 256 -287 252 -282 c 128
 248 -277 246 -271 246 -265 c 2
 246 130 l 2
 246 139 250 147 257 154 c 128
 264 161 274 166 284 170 c 128
 294 174 303 178 312 180 c 128
 321 182 327 184 329 184 c 0
 336 184 342 181 347 176 c 128
 352 171 355 166 355 159 c 2
 355 -246 l 2
 355 -256 351 -264 344 -270 c 128
 337 -276 328 -279 318 -282 c 128
 308 -285 297 -287 288 -288 c 128
 279 -289 272 -290 268 -290 c 0
266 255 m 0
 261 255 256 258 252 264 c 128
 248 270 245 276 245 283 c 2
 245 649 l 2
 245 659 249 667 256 674 c 128
 263 681 272 687 282 692 c 128
 292 697 301 700 310 702 c 128
 319 704 325 705 328 705 c 0
 334 705 340 703 345 698 c 128
 350 693 353 688 353 681 c 2
 353 299 l 2
 353 290 349 282 342 276 c 128
 335 270 326 267 316 264 c 128
 306 261 295 258 286 257 c 128
 277 256 271 255 266 255 c 0
EndSplineSet
EndChar

StartChar: section
Encoding: 167 167 105
Width: 600
Flags: W
LayerCount: 2
Fore
SplineSet
223 -148 m 0
 199 -148 179 -144 164 -136 c 128
 149 -128 142 -119 142 -108 c 0
 142 -103 144 -94 148 -80 c 128
 152 -66 162 -54 177 -43 c 0
 182 -40 187 -40 193 -42 c 128
 199 -44 203 -47 206 -50 c 0
 217 -60 231 -68 248 -73 c 128
 265 -78 280 -81 295 -81 c 0
 312 -81 324 -74 333 -62 c 128
 342 -50 346 -33 346 -12 c 0
 346 5 339 22 326 40 c 128
 313 58 296 76 275 94 c 128
 254 112 234 131 214 149 c 0
 179 180 152 210 134 240 c 128
 116 270 108 300 108 329 c 0
 108 359 112 384 120 405 c 128
 128 426 138 444 150 459 c 128
 162 474 175 489 189 502 c 1
 196 527 206 551 222 572 c 128
 238 593 257 610 279 622 c 128
 301 634 325 640 350 640 c 0
 367 640 385 637 405 632 c 128
 425 627 438 621 445 614 c 0
 449 611 453 608 456 604 c 128
 459 600 461 595 461 590 c 0
 461 588 459 582 454 571 c 128
 449 560 442 550 435 540 c 128
 428 530 420 526 411 526 c 0
 406 526 400 528 395 533 c 0
 383 546 370 556 354 565 c 128
 338 574 325 578 316 578 c 0
 295 578 280 572 271 560 c 128
 262 548 258 535 258 520 c 0
 258 508 263 494 274 478 c 128
 285 462 301 446 320 428 c 128
 339 410 358 393 379 374 c 0
 401 355 420 336 436 315 c 128
 452 294 465 270 474 244 c 128
 483 218 488 187 488 152 c 0
 488 109 480 69 465 32 c 128
 450 -5 427 -38 398 -66 c 128
 369 -94 334 -117 292 -135 c 0
 282 -140 270 -143 258 -145 c 128
 246 -147 234 -148 223 -148 c 0
405 63 m 0
 406 60 408 60 410 60 c 128
 412 60 413 61 414 63 c 0
 417 74 419 84 420 95 c 128
 421 106 421 116 421 127 c 0
 421 156 412 184 394 212 c 128
 376 240 353 267 326 292 c 0
 314 305 300 320 284 337 c 128
 268 354 252 372 238 390 c 128
 224 408 215 422 210 434 c 0
 209 437 208 438 206 437 c 128
 204 436 202 435 201 434 c 0
 195 426 191 416 189 405 c 128
 187 394 186 382 186 370 c 0
 186 344 195 318 212 290 c 128
 229 262 251 235 278 210 c 0
 291 197 306 182 324 164 c 128
 342 146 359 127 374 109 c 128
 389 91 400 76 405 63 c 0
EndSplineSet
EndChar

StartChar: dieresis
Encoding: 168 168 106
Width: 600
Flags: W
LayerCount: 2
Fore
SplineSet
396 494 m 0
 377 494 360 501 346 515 c 128
 332 529 324 546 324 565 c 0
 324 585 332 602 346 616 c 128
 360 630 377 637 396 637 c 0
 417 637 434 630 448 616 c 128
 462 602 470 585 470 565 c 0
 470 546 462 529 448 515 c 128
 434 501 417 494 396 494 c 0
201 494 m 0
 182 494 165 501 151 515 c 128
 137 529 130 546 130 565 c 0
 130 585 137 602 151 616 c 128
 165 630 182 637 201 637 c 0
 222 637 240 630 254 616 c 128
 268 602 276 585 276 565 c 0
 276 546 268 529 254 515 c 128
 240 501 222 494 201 494 c 0
EndSplineSet
EndChar

StartChar: copyright
Encoding: 169 169 107
Width: 600
Flags: W
LayerCount: 2
Fore
SplineSet
299 15 m 0
 262 15 227 24 194 40 c 128
 161 56 131 78 106 106 c 128
 81 134 61 168 47 206 c 128
 33 244 26 284 26 327 c 0
 26 370 34 410 48 448 c 128
 62 486 81 520 106 548 c 128
 131 576 161 598 194 614 c 128
 227 630 263 639 300 639 c 0
 338 639 373 630 406 614 c 128
 439 598 469 576 494 548 c 128
 519 520 538 486 552 448 c 128
 566 410 574 370 574 327 c 0
 574 284 566 244 552 206 c 128
 538 168 518 134 493 106 c 128
 468 78 439 56 406 40 c 128
 373 24 337 15 299 15 c 0
311 134 m 0
 277 134 247 142 220 158 c 128
 193 174 172 196 156 224 c 128
 140 252 133 284 133 321 c 0
 133 354 140 385 155 414 c 128
 170 443 192 467 220 485 c 128
 248 503 283 512 325 512 c 0
 342 512 358 510 374 506 c 128
 390 502 405 495 417 488 c 0
 420 487 422 484 424 482 c 128
 426 480 427 477 428 472 c 0
 430 456 432 443 432 432 c 128
 432 421 432 408 432 395 c 0
 432 388 430 383 426 379 c 128
 422 375 419 373 414 374 c 0
 411 374 407 375 404 378 c 128
 401 381 398 385 397 390 c 0
 394 397 392 404 390 410 c 128
 388 416 386 423 381 429 c 0
 375 436 367 442 358 448 c 128
 349 454 336 457 321 457 c 0
 292 457 271 445 258 420 c 128
 245 395 238 365 238 331 c 0
 238 302 241 276 246 255 c 128
 251 234 260 218 272 206 c 128
 284 194 300 188 321 188 c 256
 342 188 359 193 371 203 c 128
 383 213 393 230 402 254 c 0
 405 260 408 264 412 266 c 128
 416 268 419 268 422 267 c 0
 430 265 434 258 434 247 c 0
 434 233 434 222 432 212 c 128
 430 202 428 190 425 175 c 0
 424 170 422 168 420 168 c 128
 418 168 414 166 411 164 c 0
 399 157 385 151 368 144 c 128
 351 137 332 134 311 134 c 0
299 68 m 0
 330 68 359 74 386 88 c 128
 413 102 438 120 458 144 c 128
 478 168 494 196 505 227 c 128
 516 258 522 292 522 327 c 0
 522 362 516 394 505 425 c 128
 494 456 478 483 457 506 c 128
 436 529 413 547 386 560 c 128
 359 573 331 580 300 580 c 0
 269 580 241 573 214 560 c 128
 187 547 164 529 143 506 c 128
 122 483 106 456 95 425 c 128
 84 394 78 362 78 327 c 0
 78 292 84 258 95 227 c 128
 106 196 122 168 142 144 c 128
 162 120 186 102 213 88 c 128
 240 74 268 68 299 68 c 0
EndSplineSet
EndChar

StartChar: ordfeminine
Encoding: 170 170 108
Width: 600
Flags: W
LayerCount: 2
Fore
SplineSet
417 204 m 2
 421 204 424 203 428 200 c 128
 432 197 434 194 434 189 c 0
 434 188 434 188 434 188 c 128
 434 188 433 186 433 185 c 0
 429 178 424 171 418 166 c 128
 412 161 404 159 395 159 c 2
 171 159 l 2
 166 159 162 160 158 164 c 128
 154 168 153 172 153 175 c 0
 153 180 156 186 162 193 c 128
 168 200 176 204 183 204 c 2
 417 204 l 2
240 283 m 0
 227 283 214 286 202 292 c 128
 190 298 181 304 174 314 c 128
 167 324 164 335 164 346 c 0
 164 361 169 374 178 384 c 128
 187 394 202 403 223 411 c 2
 283 434 l 2
 292 438 298 442 300 445 c 128
 302 448 304 454 304 462 c 2
 304 489 l 2
 304 502 302 510 298 516 c 128
 294 522 287 525 278 525 c 0
 273 525 268 524 262 522 c 128
 256 520 251 517 248 514 c 0
 245 511 245 506 246 500 c 128
 247 494 247 490 247 486 c 0
 247 483 243 478 234 474 c 128
 225 470 215 466 204 462 c 128
 193 458 184 456 177 455 c 0
 172 454 170 456 168 460 c 128
 166 464 166 468 168 474 c 0
 171 482 175 489 179 496 c 128
 183 503 190 512 201 521 c 0
 209 527 220 533 233 540 c 128
 246 547 261 553 276 558 c 128
 291 563 305 566 318 566 c 0
 345 566 368 558 386 541 c 128
 404 524 413 502 412 473 c 2
 408 364 l 2
 408 357 409 349 412 341 c 128
 415 333 420 329 427 329 c 0
 431 329 435 330 438 332 c 128
 441 334 444 336 446 338 c 0
 448 339 448 340 449 340 c 128
 450 340 450 340 451 340 c 0
 454 340 456 339 458 337 c 128
 460 335 460 333 460 330 c 0
 460 326 458 322 454 317 c 128
 450 312 448 309 445 307 c 0
 438 300 430 295 420 290 c 128
 410 285 399 283 386 283 c 0
 367 283 352 286 342 294 c 128
 332 302 323 311 316 320 c 1
 315 320 l 1
 308 312 299 304 287 296 c 128
 275 288 259 283 240 283 c 0
281 333 m 0
 284 333 287 334 290 335 c 128
 293 336 295 338 296 339 c 0
 298 340 300 342 300 344 c 128
 300 346 300 347 300 348 c 2
 302 400 l 2
 302 404 301 407 299 408 c 128
 297 409 294 408 290 407 c 0
 277 402 269 396 265 390 c 128
 261 384 259 374 259 361 c 0
 259 348 261 341 266 338 c 128
 271 335 276 333 281 333 c 0
EndSplineSet
EndChar

StartChar: logicalnot
Encoding: 172 172 110
Width: 600
Flags: W
LayerCount: 2
Fore
SplineSet
481 42 m 0
 478 42 474 44 471 48 c 128
 468 52 467 56 467 61 c 2
 467 300 l 2
 467 311 462 316 453 316 c 2
 51 316 l 2
 46 316 43 318 39 321 c 128
 35 324 33 328 33 331 c 0
 33 336 34 343 36 352 c 128
 38 361 41 370 46 377 c 128
 51 384 57 388 65 388 c 2
 520 388 l 2
 526 388 531 386 533 382 c 128
 535 378 536 373 536 368 c 2
 536 74 l 2
 536 67 533 61 526 56 c 128
 519 51 511 47 502 45 c 128
 493 43 486 42 481 42 c 0
EndSplineSet
EndChar

StartChar: registered
Encoding: 174 174 112
Width: 600
Flags: W
LayerCount: 2
Fore
SplineSet
299 15 m 0
 262 15 227 24 194 40 c 128
 161 56 133 78 108 106 c 128
 83 134 64 168 50 206 c 128
 36 244 29 284 29 327 c 0
 29 370 36 410 50 448 c 128
 64 486 83 520 108 548 c 128
 133 576 161 598 194 614 c 128
 227 630 263 639 300 639 c 0
 338 639 373 630 406 614 c 128
 439 598 467 576 492 548 c 128
 517 520 536 486 550 448 c 128
 564 410 571 370 571 327 c 0
 571 284 564 244 550 206 c 128
 536 168 517 134 492 106 c 128
 467 78 438 56 405 40 c 128
 372 24 337 15 299 15 c 0
299 68 m 0
 330 68 359 74 386 88 c 128
 413 102 436 120 456 144 c 128
 476 168 492 196 503 227 c 128
 514 258 520 292 520 327 c 0
 520 362 514 394 503 425 c 128
 492 456 476 483 456 506 c 128
 436 529 412 547 386 560 c 128
 360 573 331 580 300 580 c 0
 270 580 242 573 215 560 c 128
 188 547 164 529 144 506 c 128
 124 483 108 456 97 425 c 128
 86 394 80 362 80 327 c 0
 80 292 86 258 97 227 c 128
 108 196 124 168 144 144 c 128
 164 120 187 102 214 88 c 128
 241 74 269 68 299 68 c 0
408 170 m 0
 399 170 390 174 379 181 c 128
 368 188 357 198 346 211 c 128
 335 224 325 238 315 255 c 128
 305 272 296 289 289 308 c 0
 288 311 286 314 284 316 c 128
 282 318 280 318 277 318 c 0
 275 318 274 317 273 316 c 128
 272 315 272 312 272 309 c 2
 272 227 l 2
 272 217 274 210 280 206 c 128
 286 202 295 198 308 195 c 0
 311 194 313 194 315 192 c 128
 317 190 318 187 318 182 c 0
 318 179 318 176 316 173 c 128
 314 170 312 169 309 169 c 0
 300 169 286 169 270 170 c 128
 254 171 241 172 232 172 c 0
 226 172 219 172 211 172 c 128
 203 172 195 171 187 170 c 128
 179 169 171 169 164 169 c 0
 162 169 160 171 158 174 c 128
 156 177 155 179 155 182 c 0
 155 186 156 189 158 191 c 128
 160 193 162 194 165 195 c 0
 176 198 184 202 188 206 c 128
 192 210 195 217 195 227 c 2
 195 441 l 2
 195 448 194 454 192 458 c 128
 190 462 188 465 184 468 c 128
 180 471 175 473 168 475 c 0
 161 476 158 479 158 486 c 0
 158 491 161 493 167 493 c 0
 182 493 194 492 202 491 c 128
 210 490 221 489 232 489 c 0
 243 489 253 490 260 491 c 128
 267 492 279 493 297 493 c 0
 334 493 363 487 382 474 c 128
 401 461 410 440 410 413 c 0
 410 390 405 373 394 362 c 128
 383 351 370 341 357 334 c 0
 356 333 355 332 355 331 c 128
 355 330 355 328 356 327 c 0
 367 298 379 275 392 258 c 128
 405 241 417 229 430 222 c 128
 443 215 454 211 461 211 c 0
 463 211 465 210 466 209 c 128
 467 208 467 205 467 202 c 0
 467 193 462 186 453 180 c 128
 444 174 429 170 408 170 c 0
287 355 m 0
 304 355 317 360 325 369 c 128
 333 378 337 389 337 402 c 0
 337 421 333 436 326 444 c 128
 319 452 307 456 292 456 c 0
 283 456 277 455 274 452 c 128
 271 449 270 444 270 438 c 2
 270 370 l 2
 270 365 271 362 274 359 c 128
 277 356 281 355 287 355 c 0
EndSplineSet
EndChar

StartChar: macron
Encoding: 175 175 113
Width: 600
Flags: W
LayerCount: 2
Fore
SplineSet
163 508 m 2
 157 508 152 510 148 514 c 128
 144 518 143 521 143 525 c 0
 143 537 144 548 148 557 c 128
 152 566 156 574 162 580 c 128
 168 586 174 588 180 588 c 2
 438 588 l 2
 444 588 449 586 452 583 c 128
 455 580 457 575 457 570 c 0
 457 554 453 540 445 527 c 128
 437 514 427 508 416 508 c 2
 163 508 l 2
EndSplineSet
EndChar

StartChar: degree
Encoding: 176 176 114
Width: 600
Flags: W
LayerCount: 2
Fore
SplineSet
301 381 m 0
 272 381 246 388 223 402 c 128
 200 416 183 435 170 458 c 128
 157 481 151 505 151 530 c 0
 151 556 157 579 170 600 c 128
 183 621 200 638 223 651 c 128
 246 664 272 670 301 670 c 0
 330 670 354 664 376 651 c 128
 398 638 415 621 428 600 c 128
 441 579 448 556 448 530 c 0
 448 505 441 481 428 458 c 128
 415 435 398 416 376 402 c 128
 354 388 330 381 301 381 c 0
300 437 m 0
 322 437 342 445 358 462 c 128
 374 479 382 500 382 525 c 256
 382 550 374 571 358 587 c 128
 342 603 322 611 300 611 c 0
 277 611 257 603 241 587 c 128
 225 571 217 550 217 525 c 256
 217 500 225 479 241 462 c 128
 257 445 277 437 300 437 c 0
EndSplineSet
EndChar

StartChar: plusminus
Encoding: 177 177 115
Width: 600
Flags: W
LayerCount: 2
Fore
SplineSet
284 125 m 0
 281 125 279 127 276 130 c 128
 273 133 271 137 271 142 c 2
 271 344 l 2
 271 352 267 356 259 356 c 2
 50 356 l 2
 45 356 41 357 38 360 c 128
 35 363 34 366 34 369 c 0
 34 376 36 385 40 396 c 128
 44 407 51 413 62 413 c 2
 258 413 l 2
 264 413 268 414 269 416 c 128
 270 418 271 422 271 426 c 2
 271 596 l 2
 271 603 273 609 278 614 c 128
 283 619 288 623 295 626 c 128
 302 629 308 630 313 630 c 0
 318 630 321 628 324 624 c 128
 327 620 328 614 328 609 c 2
 328 426 l 2
 328 421 328 418 330 416 c 128
 332 414 335 413 340 413 c 2
 543 413 l 2
 549 413 554 412 558 410 c 128
 562 408 565 403 565 398 c 0
 565 390 562 381 555 371 c 128
 548 361 540 356 531 356 c 2
 340 356 l 2
 332 356 328 352 328 345 c 2
 328 153 l 2
 328 143 322 136 311 132 c 128
 300 128 291 125 284 125 c 0
52 31 m 2
 47 31 44 33 40 36 c 128
 36 39 34 42 34 45 c 0
 34 50 35 56 37 63 c 128
 39 70 42 77 47 83 c 128
 52 89 58 92 65 92 c 2
 542 92 l 2
 549 92 554 91 559 88 c 128
 564 85 566 80 566 75 c 0
 566 66 563 56 556 46 c 128
 549 36 540 31 530 31 c 2
 52 31 l 2
EndSplineSet
EndChar

StartChar: uni00B2
Encoding: 178 178 116
Width: 600
Flags: W
LayerCount: 2
Fore
SplineSet
404 438 m 0
 398 438 388 438 374 439 c 128
 360 440 345 440 328 440 c 128
 311 440 294 441 277 441 c 0
 264 441 249 440 232 440 c 128
 215 440 201 440 188 439 c 128
 175 438 168 438 166 438 c 0
 163 438 160 439 158 441 c 128
 156 443 155 445 155 447 c 0
 155 450 156 453 159 456 c 2
 197 497 l 2
 216 519 233 539 250 558 c 128
 267 577 280 596 290 614 c 128
 300 632 305 651 305 671 c 0
 305 684 301 695 292 704 c 128
 283 713 272 718 257 718 c 0
 243 718 231 714 221 706 c 128
 211 698 203 689 196 680 c 0
 191 671 185 667 178 667 c 0
 174 667 172 669 170 672 c 128
 168 675 167 680 167 685 c 0
 167 695 172 707 182 722 c 128
 192 737 208 749 227 760 c 128
 246 771 270 776 297 776 c 0
 330 776 356 768 376 750 c 128
 396 732 405 711 405 687 c 0
 405 673 401 658 394 644 c 128
 387 630 378 616 365 601 c 0
 360 596 351 588 340 578 c 128
 329 568 316 560 304 550 c 128
 292 540 282 531 273 524 c 128
 264 517 259 513 258 512 c 0
 258 511 259 510 261 509 c 128
 263 508 265 508 267 508 c 2
 362 508 l 2
 374 508 384 512 394 520 c 128
 404 528 412 539 419 550 c 0
 420 553 422 555 424 558 c 128
 426 561 430 562 435 562 c 0
 440 562 444 560 445 557 c 128
 446 554 446 550 445 547 c 0
 437 528 430 508 425 488 c 128
 420 468 417 456 416 452 c 256
 415 448 414 445 412 442 c 128
 410 439 407 438 404 438 c 0
EndSplineSet
EndChar

StartChar: uni00B3
Encoding: 179 179 117
Width: 600
Flags: W
LayerCount: 2
Fore
SplineSet
249 435 m 0
 233 435 218 438 205 443 c 128
 192 448 185 456 185 465 c 0
 185 473 186 480 190 488 c 128
 194 496 198 500 203 500 c 0
 206 500 209 499 211 498 c 128
 213 497 215 495 217 492 c 0
 223 485 231 479 240 472 c 128
 249 465 257 462 266 462 c 0
 281 462 294 468 304 482 c 128
 314 496 320 515 320 539 c 0
 320 553 315 566 306 580 c 128
 297 594 284 601 267 601 c 0
 253 601 244 598 238 594 c 128
 232 590 228 588 226 588 c 0
 222 588 218 589 214 590 c 128
 210 591 209 593 210 597 c 0
 211 603 214 608 219 613 c 128
 224 618 229 621 235 624 c 128
 244 628 244 629 250 632 c 0
 275 645 292 657 300 667 c 128
 308 677 311 688 311 701 c 0
 311 709 308 716 300 722 c 128
 292 728 282 732 269 732 c 0
 258 732 246 729 236 724 c 128
 226 719 218 712 212 705 c 0
 209 703 207 700 205 698 c 128
 203 696 201 695 200 695 c 0
 197 695 195 696 192 700 c 128
 189 704 187 707 187 710 c 0
 187 714 192 722 200 732 c 128
 208 742 220 752 237 761 c 128
 254 770 275 775 300 775 c 0
 323 775 344 769 363 757 c 128
 382 745 392 729 392 708 c 0
 392 696 387 684 378 671 c 128
 369 658 353 649 330 642 c 0
 329 641 328 641 328 640 c 128
 328 639 329 639 330 639 c 0
 352 638 371 630 388 616 c 128
 405 602 413 583 413 558 c 0
 413 533 406 512 390 493 c 128
 374 474 353 460 328 450 c 128
 303 440 277 435 249 435 c 0
EndSplineSet
EndChar

StartChar: acute
Encoding: 180 180 118
Width: 600
Flags: W
LayerCount: 2
Fore
SplineSet
223 453 m 0
 216 453 213 457 213 465 c 0
 213 468 213 470 214 474 c 128
 215 478 216 482 218 486 c 0
 223 499 230 515 238 534 c 128
 246 553 256 572 264 590 c 128
 272 608 278 623 283 633 c 0
 288 643 295 650 302 653 c 128
 309 656 317 658 328 658 c 0
 344 658 358 656 370 652 c 128
 382 648 387 642 387 634 c 0
 387 631 386 626 385 622 c 128
 384 618 381 614 377 609 c 0
 364 595 350 580 336 563 c 128
 322 546 308 530 294 514 c 128
 280 498 265 483 250 469 c 0
 239 458 230 453 223 453 c 0
EndSplineSet
EndChar

StartChar: mu
Encoding: 181 181 119
Width: 600
Flags: W
LayerCount: 2
Fore
SplineSet
161 -285 m 0
 148 -285 138 -282 130 -274 c 128
 122 -266 115 -256 110 -245 c 128
 105 -234 101 -223 99 -213 c 0
 98 -207 98 -196 98 -180 c 128
 98 -164 96 -146 96 -125 c 128
 96 -104 96 -83 96 -61 c 128
 96 -39 95 -19 95 0 c 0
 95 41 94 77 94 109 c 128
 94 141 93 170 92 195 c 128
 91 220 91 243 90 264 c 128
 89 285 89 304 89 324 c 128
 89 354 89 354 89 385 c 0
 89 400 92 412 98 420 c 128
 104 428 118 432 142 432 c 0
 167 432 187 428 202 422 c 128
 217 416 224 405 224 389 c 0
 224 372 221 350 216 326 c 128
 211 302 206 277 200 252 c 128
 194 227 187 205 182 186 c 128
 177 167 175 154 175 146 c 0
 175 135 178 126 182 117 c 128
 186 108 192 102 199 97 c 128
 206 92 214 90 223 90 c 0
 244 90 264 102 282 126 c 128
 300 150 316 190 332 245 c 1
 334 269 335 291 336 311 c 128
 337 331 337 350 338 366 c 128
 339 382 341 396 342 407 c 0
 343 416 346 422 350 426 c 128
 354 430 361 432 370 432 c 0
 394 432 414 429 430 424 c 128
 446 419 456 412 464 404 c 128
 472 396 476 388 476 379 c 0
 476 350 470 317 458 282 c 128
 446 247 431 210 415 171 c 1
 415 158 418 147 425 137 c 128
 432 127 440 119 452 113 c 128
 464 107 477 104 491 104 c 0
 503 104 514 107 524 112 c 128
 534 117 541 121 548 126 c 128
 555 131 559 134 562 134 c 256
 565 134 567 132 570 130 c 128
 573 128 574 125 574 122 c 0
 574 93 568 68 557 47 c 128
 546 26 532 10 515 0 c 128
 498 -10 482 -15 465 -15 c 0
 446 -14 429 -4 414 18 c 128
 399 40 391 66 388 95 c 0
 387 101 387 107 387 112 c 128
 387 117 387 123 388 129 c 1
 385 129 l 1
 383 125 378 115 370 100 c 128
 362 85 351 69 339 52 c 128
 327 35 314 19 302 6 c 128
 290 -7 280 -13 271 -13 c 0
 260 -13 248 -9 238 -2 c 128
 228 5 218 12 208 22 c 128
 194 36 194 37 182 49 c 0
 177 54 171 60 164 68 c 128
 157 76 153 80 150 80 c 0
 141 80 137 71 137 53 c 0
 137 47 137 37 138 24 c 128
 139 11 140 -4 140 -20 c 128
 140 -36 140 -52 141 -66 c 128
 142 -80 142 -92 142 -101 c 0
 142 -114 148 -126 158 -136 c 128
 168 -146 180 -155 194 -164 c 128
 208 -173 220 -181 230 -188 c 128
 240 -195 245 -203 245 -210 c 0
 245 -220 240 -230 231 -242 c 128
 222 -254 211 -264 198 -272 c 128
 185 -280 172 -285 161 -285 c 0
EndSplineSet
EndChar

StartChar: paragraph
Encoding: 182 182 120
Width: 600
Flags: W
LayerCount: 2
Fore
SplineSet
294 -312 m 0
 268 -312 245 -307 224 -296 c 128
 203 -285 187 -269 175 -250 c 128
 163 -231 158 -210 158 -186 c 0
 158 -160 164 -138 177 -120 c 128
 190 -102 206 -88 224 -78 c 128
 242 -68 260 -63 278 -64 c 0
 298 -65 316 -70 330 -79 c 128
 344 -88 351 -103 351 -123 c 0
 351 -140 346 -155 336 -166 c 128
 326 -177 316 -183 303 -183 c 0
 295 -183 288 -181 282 -176 c 128
 276 -171 271 -166 266 -161 c 256
 261 -156 255 -151 251 -147 c 128
 247 -143 243 -141 240 -141 c 0
 232 -141 224 -145 217 -154 c 128
 210 -163 206 -177 206 -194 c 0
 206 -213 214 -230 229 -246 c 128
 244 -262 268 -271 299 -271 c 0
 314 -271 328 -267 342 -260 c 128
 356 -253 366 -241 375 -224 c 128
 384 -207 389 -186 389 -160 c 2
 389 38 l 2
 389 43 388 49 386 56 c 128
 384 63 381 66 375 66 c 0
 328 66 283 73 240 86 c 128
 197 99 159 118 125 143 c 128
 91 168 63 198 44 234 c 128
 25 270 15 310 15 355 c 0
 15 428 32 486 65 529 c 128
 98 572 145 602 206 620 c 128
 267 638 337 648 419 648 c 0
 439 648 459 647 480 646 c 128
 501 645 519 644 535 643 c 128
 551 642 561 641 567 640 c 0
 572 639 576 636 579 630 c 128
 582 624 583 618 583 611 c 0
 583 605 582 597 579 588 c 128
 576 579 572 574 568 574 c 0
 565 574 552 577 530 582 c 128
 508 587 483 590 456 590 c 0
 451 590 446 587 442 582 c 128
 438 577 437 571 437 565 c 2
 437 -158 l 2
 437 -182 431 -206 421 -230 c 128
 411 -254 396 -272 375 -288 c 128
 354 -304 326 -312 294 -312 c 0
EndSplineSet
EndChar

StartChar: cedilla
Encoding: 184 184 122
Width: 600
Flags: W
LayerCount: 2
Fore
SplineSet
256 -274 m 0
 241 -274 230 -271 223 -265 c 128
 216 -259 212 -246 212 -226 c 0
 212 -217 213 -210 216 -207 c 128
 219 -204 224 -202 229 -202 c 0
 237 -202 246 -205 256 -210 c 128
 266 -215 280 -218 296 -218 c 0
 306 -218 313 -215 318 -208 c 128
 323 -201 325 -191 325 -178 c 0
 325 -164 319 -153 307 -146 c 128
 295 -139 282 -135 269 -135 c 0
 260 -135 254 -137 250 -140 c 128
 246 -143 241 -145 236 -145 c 0
 232 -145 227 -142 222 -138 c 128
 217 -134 214 -128 214 -121 c 0
 214 -115 219 -107 228 -96 c 2
 318 8 l 1
 362 8 l 1
 326 -35 l 2
 323 -40 321 -43 321 -45 c 0
 321 -48 325 -52 333 -56 c 0
 350 -63 363 -74 373 -87 c 128
 383 -100 388 -118 388 -140 c 0
 388 -157 383 -174 374 -190 c 128
 365 -206 354 -220 341 -233 c 128
 328 -246 313 -256 298 -263 c 128
 283 -270 269 -274 256 -274 c 0
EndSplineSet
EndChar

StartChar: uni00B9
Encoding: 185 185 123
Width: 600
Flags: W
LayerCount: 2
Fore
SplineSet
222 440 m 0
 219 440 216 441 214 443 c 128
 212 445 211 447 211 450 c 0
 211 454 212 457 214 460 c 128
 216 463 219 464 222 464 c 0
 232 466 239 468 244 470 c 128
 249 472 252 474 254 478 c 128
 256 482 256 486 256 493 c 2
 256 674 l 2
 256 688 252 699 244 706 c 128
 236 713 227 716 218 717 c 0
 215 718 212 718 210 720 c 128
 208 722 207 725 207 730 c 0
 207 740 212 745 222 746 c 0
 247 747 268 750 284 754 c 128
 300 758 317 766 334 777 c 0
 335 778 336 779 339 780 c 128
 342 781 344 782 345 782 c 0
 351 782 354 779 354 773 c 0
 354 769 353 764 352 758 c 128
 351 752 350 742 350 730 c 2
 350 493 l 2
 350 485 351 479 354 476 c 128
 357 473 366 469 382 464 c 0
 385 463 388 462 390 460 c 128
 392 458 393 456 393 451 c 0
 393 448 392 446 391 444 c 128
 390 442 387 441 384 441 c 0
 375 441 366 442 356 442 c 128
 346 442 336 442 326 442 c 128
 316 442 308 443 301 443 c 256
 294 443 287 442 278 442 c 128
 269 442 259 442 250 441 c 128
 241 440 231 440 222 440 c 0
EndSplineSet
EndChar

StartChar: ordmasculine
Encoding: 186 186 124
Width: 600
Flags: W
LayerCount: 2
Fore
SplineSet
432 204 m 2
 435 204 439 203 443 200 c 128
 447 197 449 194 449 189 c 0
 449 188 448 188 448 188 c 128
 448 188 448 186 448 185 c 0
 443 178 438 171 432 166 c 128
 426 161 419 159 410 159 c 2
 169 159 l 2
 165 159 162 160 158 164 c 128
 154 168 152 172 152 175 c 0
 152 180 155 186 161 193 c 128
 167 200 174 204 182 204 c 2
 432 204 l 2
316 283 m 0
 287 283 261 289 238 300 c 128
 215 311 196 327 183 347 c 128
 170 367 163 390 163 415 c 0
 163 444 170 470 185 493 c 128
 200 516 220 533 246 546 c 128
 272 559 300 566 331 566 c 0
 360 566 387 560 411 548 c 128
 435 536 454 520 468 500 c 128
 482 480 490 458 490 434 c 0
 490 407 483 381 470 358 c 128
 457 335 438 318 412 304 c 128
 386 290 354 283 316 283 c 0
329 321 m 0
 342 321 351 326 357 336 c 128
 363 346 368 357 370 372 c 128
 372 387 373 403 373 419 c 0
 373 436 371 453 367 470 c 128
 363 487 358 500 350 511 c 128
 342 522 333 527 322 527 c 0
 309 527 300 522 294 512 c 128
 288 502 282 490 280 475 c 128
 278 460 277 446 277 431 c 0
 277 412 280 395 284 378 c 128
 288 361 294 346 302 336 c 128
 310 326 319 321 329 321 c 0
EndSplineSet
EndChar

StartChar: onequarter
Encoding: 188 188 126
Width: 600
Flags: W
LayerCount: 2
Fore
SplineSet
457 -9 m 0
 450 -9 447 -6 447 -1 c 2
 447 83 l 2
 447 85 446 87 442 88 c 128
 436 90 436 89 436 89 c 0
 413 89 390 89 370 88 c 128
 350 87 328 87 304 87 c 0
 303 87 301 88 298 88 c 128
 295 88 293 89 293 91 c 0
 293 92 293 93 294 94 c 128
 295 95 295 96 296 97 c 0
 319 126 344 156 370 186 c 128
 396 216 421 244 444 273 c 0
 450 281 459 291 470 303 c 128
 481 315 493 328 506 341 c 0
 510 345 514 348 517 351 c 128
 520 354 523 355 526 355 c 0
 528 355 529 354 530 352 c 128
 531 350 531 349 531 346 c 2
 529 137 l 2
 529 134 531 132 535 132 c 2
 551 132 l 2
 554 132 559 132 565 132 c 128
 571 132 576 133 579 133 c 0
 584 133 586 131 586 126 c 0
 586 120 584 113 580 104 c 128
 576 95 573 91 570 91 c 2
 537 91 l 2
 534 91 532 91 531 90 c 128
 530 89 529 87 529 84 c 2
 530 31 l 2
 530 26 525 20 514 14 c 128
 503 8 492 2 480 -2 c 128
 468 -6 461 -9 457 -9 c 0
377 133 m 2
 442 133 l 2
 443 133 445 133 446 134 c 128
 447 135 447 136 447 137 c 2
 447 212 l 2
 447 213 447 213 446 213 c 128
 445 213 445 213 444 212 c 0
 439 206 432 198 422 189 c 128
 412 180 402 170 394 161 c 128
 386 152 380 144 375 137 c 0
 374 134 374 133 377 133 c 2
477 641 m 2
 482 650 489 657 497 660 c 128
 505 663 514 664 525 664 c 0
 530 664 534 662 538 658 c 128
 542 654 543 650 543 646 c 0
 543 643 543 642 542 641 c 2
 164 5 l 2
 159 -3 154 -8 146 -11 c 128
 138 -14 129 -15 120 -15 c 0
 115 -15 111 -13 106 -10 c 128
 101 -7 98 -3 98 1 c 0
 98 3 98 4 99 5 c 2
 477 641 l 2
44 278 m 0
 41 278 39 278 37 280 c 128
 35 282 34 284 34 287 c 0
 34 291 34 294 36 296 c 128
 38 298 41 300 44 301 c 0
 53 303 60 304 63 306 c 128
 66 308 68 311 69 314 c 128
 70 317 70 321 70 326 c 2
 70 514 l 2
 70 528 67 539 60 546 c 128
 53 553 45 556 38 557 c 0
 35 558 32 559 30 560 c 128
 28 561 28 564 28 569 c 0
 28 580 33 585 43 586 c 0
 67 587 87 589 102 592 c 128
 117 595 133 603 151 614 c 0
 152 615 153 616 156 617 c 128
 159 618 161 619 162 619 c 0
 167 619 170 617 170 612 c 0
 170 608 169 603 168 598 c 128
 167 593 167 585 167 574 c 2
 167 327 l 2
 167 320 168 315 170 312 c 128
 172 309 179 306 193 301 c 0
 196 300 198 298 200 297 c 128
 202 296 203 293 203 288 c 0
 203 285 202 284 201 282 c 128
 200 280 197 279 194 279 c 0
 189 279 180 280 170 280 c 128
 160 280 150 280 140 280 c 128
 130 280 122 281 117 281 c 256
 112 281 104 280 95 280 c 128
 86 280 77 280 68 279 c 128
 59 278 51 278 44 278 c 0
EndSplineSet
EndChar

StartChar: onehalf
Encoding: 189 189 127
Width: 600
Flags: W
LayerCount: 2
Fore
SplineSet
544 -16 m 0
 541 -16 534 -16 522 -15 c 128
 510 -14 496 -14 481 -14 c 128
 466 -14 450 -13 435 -13 c 0
 423 -13 410 -14 395 -14 c 128
 380 -14 367 -14 356 -15 c 128
 340 -16 340 -16 340 -16 c 0
 338 -16 336 -16 334 -14 c 128
 332 -12 330 -10 330 -8 c 0
 330 -5 331 -2 334 1 c 2
 365 44 l 2
 382 68 396 89 410 108 c 128
 424 127 435 144 443 162 c 128
 451 180 455 199 455 219 c 0
 455 231 451 242 444 250 c 128
 437 258 428 262 416 262 c 0
 405 262 395 258 387 249 c 128
 379 240 373 232 369 225 c 0
 364 215 358 210 352 210 c 0
 348 210 345 212 344 215 c 128
 343 218 342 223 342 229 c 0
 342 240 347 253 356 268 c 128
 365 283 378 295 394 306 c 128
 410 317 429 322 452 322 c 0
 480 322 503 314 520 296 c 128
 537 278 546 257 546 234 c 0
 546 220 544 206 538 192 c 128
 532 178 523 164 512 149 c 0
 508 144 502 137 492 128 c 128
 482 119 471 109 460 99 c 128
 449 89 440 80 432 73 c 128
 424 66 421 62 421 61 c 256
 421 60 422 60 423 59 c 128
 424 58 426 58 428 58 c 2
 511 58 l 2
 520 58 529 62 537 70 c 128
 545 78 551 87 556 98 c 0
 557 101 559 103 561 106 c 128
 563 109 566 110 570 110 c 0
 575 110 579 108 580 104 c 128
 581 100 580 97 579 94 c 0
 570 70 564 48 560 28 c 128
 554 -2 555 -2 555 -2 c 2
 554 -5 553 -9 551 -12 c 128
 549 -15 547 -16 544 -16 c 0
426 641 m 2
 431 650 437 657 444 660 c 128
 451 663 460 664 469 664 c 0
 474 664 477 662 480 658 c 128
 483 654 485 650 485 646 c 0
 485 643 485 642 484 641 c 2
 147 5 l 2
 143 -3 137 -8 130 -11 c 128
 123 -14 115 -15 107 -15 c 0
 102 -15 98 -13 94 -10 c 128
 90 -7 88 -3 88 1 c 0
 88 4 88 4 88 5 c 2
 426 641 l 2
39 278 m 0
 37 278 35 278 33 280 c 128
 31 282 30 284 30 287 c 0
 30 291 30 294 32 296 c 128
 34 298 36 300 39 301 c 0
 48 303 53 304 56 306 c 128
 59 308 61 311 62 314 c 128
 63 317 63 321 63 326 c 2
 63 514 l 2
 63 528 60 539 53 546 c 128
 46 553 40 556 34 557 c 0
 31 558 30 559 28 560 c 128
 26 561 25 564 25 569 c 0
 25 580 29 585 38 586 c 0
 59 587 76 589 90 592 c 128
 104 595 119 603 135 614 c 0
 136 615 138 616 140 617 c 128
 142 618 143 619 144 619 c 0
 149 619 152 617 152 612 c 0
 152 608 151 603 150 598 c 128
 149 593 149 585 149 574 c 2
 149 327 l 2
 149 320 150 315 152 312 c 128
 154 309 160 306 172 301 c 0
 175 300 176 298 178 297 c 128
 180 296 181 293 181 288 c 0
 181 285 181 284 180 282 c 128
 179 280 177 279 174 279 c 0
 169 279 161 280 152 280 c 128
 138 280 140 280 126 280 c 128
 117 280 109 281 104 281 c 256
 99 281 92 280 84 280 c 128
 76 280 68 280 60 279 c 128
 52 278 45 278 39 278 c 0
EndSplineSet
EndChar

StartChar: threequarters
Encoding: 190 190 128
Width: 600
Flags: W
LayerCount: 2
Fore
SplineSet
462 -9 m 0
 455 -9 452 -6 452 -1 c 2
 452 83 l 2
 452 85 450 87 447 88 c 128
 444 89 442 89 441 89 c 0
 419 89 398 89 379 88 c 128
 360 87 338 87 314 87 c 0
 313 87 310 88 308 88 c 128
 306 88 305 89 305 91 c 0
 305 92 306 93 306 94 c 128
 306 95 306 96 307 97 c 0
 328 126 352 156 378 186 c 128
 404 216 427 244 450 273 c 0
 456 281 464 291 475 303 c 128
 486 315 497 328 509 341 c 0
 512 345 516 348 520 351 c 128
 524 354 526 355 529 355 c 0
 531 355 532 354 532 352 c 128
 532 350 533 349 533 346 c 2
 532 137 l 2
 532 134 534 132 537 132 c 2
 553 132 l 2
 556 132 560 132 566 132 c 128
 572 132 577 133 580 133 c 0
 584 133 586 131 586 126 c 0
 586 120 584 113 581 104 c 128
 578 95 574 91 571 91 c 2
 540 91 l 2
 537 91 535 91 534 90 c 128
 533 89 532 87 532 84 c 2
 532 31 l 2
 532 26 527 20 517 14 c 128
 507 8 496 2 484 -2 c 128
 472 -6 465 -9 462 -9 c 0
385 133 m 2
 448 133 l 2
 449 133 450 133 451 134 c 128
 452 135 452 136 452 137 c 2
 452 212 l 2
 452 213 452 213 451 213 c 128
 450 213 450 213 450 212 c 0
 445 206 437 198 428 189 c 128
 419 180 410 170 402 161 c 128
 394 152 388 144 383 137 c 0
 382 134 382 133 385 133 c 2
477 641 m 2
 482 650 489 657 497 660 c 128
 505 663 514 664 524 664 c 0
 529 664 533 662 536 658 c 128
 539 654 541 650 541 646 c 0
 541 642 541 642 541 641 c 2
 177 5 l 2
 173 -3 167 -8 159 -11 c 128
 151 -14 142 -15 133 -15 c 0
 128 -15 124 -13 120 -10 c 128
 116 -7 113 -3 113 1 c 0
 113 3 113 4 114 5 c 2
 477 641 l 2
86 275 m 0
 71 275 57 277 46 282 c 128
 35 287 30 294 30 303 c 0
 30 311 31 320 34 328 c 128
 37 336 41 340 46 340 c 0
 49 340 50 339 52 338 c 128
 54 337 56 335 58 332 c 0
 62 325 68 319 76 312 c 128
 84 305 92 301 99 301 c 0
 113 301 125 308 134 322 c 128
 143 336 148 354 148 379 c 0
 148 393 144 406 136 420 c 128
 128 434 117 441 102 441 c 0
 87 441 78 439 73 434 c 128
 68 429 66 427 65 427 c 0
 61 427 57 427 54 428 c 128
 51 429 49 432 50 436 c 0
 51 442 54 447 57 452 c 128
 60 457 64 461 69 464 c 128
 74 467 78 469 81 471 c 0
 106 486 123 498 130 508 c 128
 137 518 140 530 140 543 c 0
 140 550 137 556 130 562 c 128
 123 568 115 571 104 571 c 0
 94 571 84 568 75 563 c 128
 66 558 59 552 54 547 c 0
 51 544 50 542 48 540 c 128
 46 538 44 536 43 536 c 0
 40 536 38 538 36 542 c 128
 34 546 32 548 32 551 c 256
 32 554 35 560 42 570 c 128
 49 580 59 590 74 600 c 128
 89 610 109 615 134 615 c 0
 155 615 174 609 192 597 c 128
 210 585 219 569 219 549 c 0
 219 538 214 526 206 513 c 128
 198 500 183 490 161 483 c 0
 160 482 159 482 159 481 c 128
 159 480 160 480 161 480 c 0
 182 480 201 473 216 459 c 128
 231 445 239 424 239 397 c 0
 239 372 232 350 217 332 c 128
 202 314 183 300 160 290 c 128
 137 280 112 275 86 275 c 0
EndSplineSet
EndChar

StartChar: questiondown
Encoding: 191 191 129
Width: 600
Flags: W
LayerCount: 2
Fore
SplineSet
352 307 m 0
 357 307 362 304 368 299 c 128
 374 294 380 286 385 277 c 0
 390 266 395 254 400 239 c 128
 405 224 408 207 408 188 c 0
 408 165 398 145 379 128 c 128
 360 111 330 93 291 75 c 0
 271 66 256 56 244 44 c 128
 232 32 226 17 226 -1 c 0
 226 -20 233 -35 248 -46 c 128
 263 -57 281 -62 302 -63 c 0
 316 -63 327 -62 334 -59 c 128
 341 -56 347 -54 351 -52 c 0
 359 -50 359 -50 367 -48 c 128
 372 -47 378 -46 384 -46 c 0
 394 -46 403 -50 412 -60 c 128
 421 -70 428 -82 434 -95 c 128
 440 -108 443 -121 443 -132 c 0
 443 -144 436 -156 422 -166 c 128
 408 -176 393 -181 375 -181 c 0
 348 -181 323 -174 298 -161 c 128
 273 -148 250 -130 228 -107 c 0
 213 -90 200 -72 188 -53 c 128
 176 -34 167 -14 161 7 c 128
 155 28 152 48 152 67 c 0
 152 94 157 114 167 130 c 128
 177 146 188 157 200 162 c 0
 211 167 221 172 230 178 c 128
 239 184 249 190 259 196 c 128
 269 202 279 207 290 213 c 0
 305 221 315 230 320 240 c 128
 325 250 328 264 330 283 c 0
 331 291 334 297 338 301 c 128
 342 305 346 307 352 307 c 0
353 494 m 256
 373 494 390 487 404 473 c 128
 418 459 425 442 425 422 c 256
 425 402 418 384 404 370 c 128
 390 356 373 349 353 349 c 256
 333 349 316 356 302 370 c 128
 288 384 280 402 280 422 c 256
 280 442 288 459 302 473 c 128
 316 487 333 494 353 494 c 256
EndSplineSet
EndChar

StartChar: AE
Encoding: 198 198 130
Width: 600
Flags: W
LayerCount: 2
Fore
SplineSet
14 -5 m 0
 9 -5 5 -4 2 -2 c 128
 -1 0 -3 5 -3 12 c 256
 -3 19 -2 23 1 26 c 128
 4 29 7 32 11 34 c 0
 24 40 35 48 45 60 c 128
 55 72 63 85 68 98 c 2
 263 599 l 2
 264 602 264 606 264 608 c 128
 264 610 263 611 260 612 c 2
 246 618 l 2
 241 620 237 623 235 627 c 128
 233 631 232 635 232 639 c 0
 232 650 236 655 245 655 c 0
 260 655 276 654 294 652 c 128
 312 650 327 650 340 650 c 0
 359 650 380 650 403 650 c 128
 426 650 448 651 468 652 c 128
 488 653 504 654 518 654 c 128
 532 654 540 654 542 654 c 0
 545 654 548 653 552 650 c 128
 556 647 558 641 559 633 c 0
 562 608 566 584 568 560 c 128
 570 536 571 516 571 498 c 0
 571 491 570 486 568 483 c 128
 566 480 564 478 562 478 c 256
 560 478 558 479 555 482 c 128
 552 485 550 489 548 495 c 0
 542 516 537 535 533 550 c 128
 529 565 524 578 518 587 c 0
 513 594 507 600 500 604 c 128
 493 608 485 609 475 609 c 2
 434 609 l 2
 423 609 415 605 408 597 c 128
 401 589 397 578 397 563 c 2
 397 378 l 2
 397 369 399 364 402 360 c 128
 405 356 409 354 414 354 c 0
 428 354 428 354 442 354 c 128
 456 354 455 354 469 354 c 0
 480 354 489 361 494 374 c 128
 499 387 503 401 507 417 c 0
 509 423 512 427 514 430 c 128
 516 433 518 435 521 435 c 0
 523 435 524 433 526 429 c 128
 528 425 529 419 529 412 c 0
 528 397 527 384 526 370 c 128
 525 356 525 342 525 329 c 256
 525 316 525 302 526 289 c 128
 527 276 527 261 528 246 c 0
 529 236 528 228 527 224 c 128
 526 220 524 218 521 218 c 0
 518 218 515 220 512 225 c 128
 509 230 507 235 506 242 c 0
 502 263 497 280 492 291 c 128
 487 302 481 308 472 308 c 0
 457 308 458 308 442 308 c 128
 426 308 426 308 411 308 c 0
 406 308 402 306 400 302 c 128
 398 298 397 292 397 285 c 2
 397 96 l 2
 397 77 399 64 404 56 c 128
 409 48 418 45 429 45 c 2
 487 45 l 2
 493 45 499 46 504 48 c 128
 509 50 514 52 518 55 c 128
 522 58 527 62 531 66 c 0
 540 77 548 90 554 106 c 128
 560 122 566 139 571 158 c 0
 573 163 575 167 576 170 c 128
 577 173 578 175 581 175 c 0
 588 175 591 170 591 160 c 0
 591 142 589 119 584 90 c 128
 579 61 575 33 570 8 c 0
 569 3 567 0 564 -2 c 128
 561 -4 557 -4 554 -4 c 0
 552 -4 543 -4 528 -4 c 128
 513 -4 495 -3 473 -2 c 128
 451 -1 428 0 404 -0 c 128
 380 0 359 0 340 0 c 0
 331 0 322 0 310 -1 c 128
 298 -2 286 -3 275 -4 c 128
 264 -5 254 -5 245 -5 c 0
 241 -5 238 -3 236 0 c 128
 234 3 233 7 233 11 c 0
 233 21 237 28 246 32 c 0
 261 39 270 46 276 53 c 128
 282 60 285 74 285 95 c 2
 285 235 l 2
 285 239 284 243 283 247 c 128
 282 251 279 253 274 253 c 2
 182 253 l 2
 179 253 176 252 173 250 c 128
 170 248 168 243 166 236 c 0
 159 215 152 193 146 169 c 128
 140 145 135 125 132 109 c 0
 129 97 128 87 128 79 c 0
 128 68 132 59 138 52 c 128
 144 45 154 39 169 34 c 0
 178 31 183 23 183 12 c 0
 183 7 182 4 180 2 c 128
 178 0 174 -2 169 -2 c 0
 154 -2 141 -1 128 -0 c 128
 115 1 101 1 88 1 c 0
 75 1 63 0 52 -2 c 128
 41 -4 28 -5 14 -5 c 0
214 311 m 2
 275 311 l 2
 277 311 280 313 282 316 c 128
 284 319 285 321 285 324 c 2
 285 541 l 2
 285 546 285 550 284 554 c 128
 283 558 281 556 278 547 c 2
 204 329 l 2
 202 324 202 320 203 316 c 0
 204 314 206 313 208 312 c 128
 210 311 212 311 214 311 c 2
EndSplineSet
EndChar

StartChar: Eth
Encoding: 208 208 131
Width: 600
Flags: W
LayerCount: 2
Fore
SplineSet
44 304 m 2
 37 304 33 307 30 314 c 128
 27 321 26 328 26 335 c 0
 26 344 28 352 32 358 c 128
 36 364 41 366 48 366 c 2
 282 366 l 2
 287 366 292 364 295 360 c 128
 298 356 300 352 300 347 c 0
 300 346 300 346 300 345 c 128
 300 344 300 344 300 342 c 0
 299 333 295 324 289 316 c 128
 283 308 276 304 267 304 c 2
 44 304 l 2
300 -7 m 0
 279 -7 258 -6 236 -5 c 128
 214 -4 195 -3 178 -2 c 128
 161 -1 150 0 143 0 c 0
 132 0 120 0 106 -0 c 128
 92 0 78 -1 64 -2 c 128
 50 -3 37 -3 26 -3 c 0
 23 -3 19 -2 16 1 c 128
 13 4 12 7 12 12 c 0
 12 18 13 22 16 26 c 128
 19 30 22 33 27 34 c 0
 47 39 61 46 68 54 c 128
 75 62 78 76 78 97 c 2
 78 551 l 2
 78 572 75 587 68 596 c 128
 61 605 48 612 27 618 c 0
 22 619 19 622 16 626 c 128
 13 630 12 634 12 640 c 0
 12 645 13 648 16 651 c 128
 19 654 23 655 26 655 c 0
 37 655 50 655 64 654 c 128
 78 653 92 653 106 652 c 128
 120 651 132 650 143 650 c 0
 151 650 162 651 176 652 c 128
 190 653 204 653 220 654 c 128
 236 655 252 657 268 658 c 128
 284 659 297 659 307 659 c 0
 344 659 378 652 411 636 c 128
 444 620 472 598 498 569 c 128
 524 540 544 506 558 466 c 128
 572 426 580 383 580 335 c 0
 580 291 574 249 562 208 c 128
 550 167 534 130 510 98 c 128
 486 66 457 41 422 22 c 128
 387 3 346 -7 300 -7 c 0
288 48 m 0
 322 48 350 59 372 80 c 128
 394 101 411 131 422 170 c 128
 433 209 438 254 438 306 c 0
 438 350 435 390 428 426 c 128
 421 462 411 493 398 519 c 128
 385 545 370 566 350 580 c 128
 330 594 307 601 280 601 c 0
 265 601 252 600 242 599 c 128
 232 598 223 594 218 590 c 128
 213 586 211 579 211 568 c 2
 211 134 l 2
 211 113 214 97 219 84 c 128
 224 71 233 62 244 56 c 128
 255 50 270 48 288 48 c 0
EndSplineSet
EndChar

StartChar: multiply
Encoding: 215 215 132
Width: 600
Flags: W
LayerCount: 2
Fore
SplineSet
465 51 m 0
 459 51 453 54 448 59 c 2
 306 200 l 2
 301 206 295 206 289 200 c 2
 154 63 l 2
 151 60 148 58 144 57 c 128
 140 56 138 55 135 56 c 0
 130 56 126 61 120 70 c 128
 114 79 111 89 111 99 c 0
 111 106 113 112 117 116 c 2
 245 243 l 2
 249 247 251 250 251 252 c 128
 251 254 249 258 245 261 c 2
 114 393 l 2
 111 397 109 402 109 407 c 0
 109 415 111 424 116 432 c 128
 121 440 125 446 128 449 c 0
 131 452 134 452 138 452 c 128
 142 452 146 450 149 447 c 2
 290 305 l 2
 293 302 296 300 298 300 c 128
 300 300 303 302 306 305 c 2
 448 447 l 2
 452 451 456 453 461 453 c 0
 465 453 468 452 470 449 c 0
 473 444 477 438 482 430 c 128
 487 422 489 415 489 408 c 0
 489 403 487 398 483 393 c 2
 350 260 l 2
 345 255 345 249 350 244 c 2
 485 112 l 2
 489 107 491 101 491 94 c 256
 491 87 489 78 484 67 c 128
 479 56 472 51 465 51 c 0
EndSplineSet
EndChar

StartChar: Oslash
Encoding: 216 216 133
Width: 600
Flags: W
LayerCount: 2
Fore
SplineSet
62 -14 m 0
 52 -14 43 -10 34 -2 c 128
 25 6 21 14 21 23 c 0
 21 37 26 49 36 60 c 2
 543 656 l 2
 548 663 554 666 562 664 c 128
 570 662 575 658 577 649 c 0
 578 645 579 641 580 636 c 128
 581 631 582 626 582 621 c 0
 582 615 581 609 580 603 c 128
 579 597 576 592 572 587 c 2
 75 -7 l 2
 74 -9 72 -11 70 -12 c 128
 68 -13 66 -14 62 -14 c 0
296 -14 m 0
 259 -14 225 -6 192 10 c 128
 159 26 129 47 103 76 c 128
 77 105 57 140 42 180 c 128
 27 220 20 266 20 315 c 0
 20 360 26 404 38 446 c 128
 50 488 68 524 92 557 c 128
 116 590 146 616 181 635 c 128
 216 654 257 664 304 664 c 0
 341 664 375 656 408 640 c 128
 441 624 471 603 497 574 c 128
 523 545 543 510 558 470 c 128
 573 430 580 384 580 335 c 0
 580 290 574 247 562 205 c 128
 550 163 532 126 508 93 c 128
 484 60 454 34 419 15 c 128
 384 -4 343 -14 296 -14 c 0
311 33 m 0
 339 33 362 44 381 65 c 128
 400 86 414 116 423 154 c 128
 432 192 437 234 437 283 c 0
 437 323 434 363 428 402 c 128
 422 441 414 478 402 510 c 128
 390 542 374 568 355 587 c 128
 336 606 314 616 288 616 c 0
 261 616 238 605 219 584 c 128
 200 563 186 533 177 496 c 128
 168 459 163 416 163 367 c 0
 163 327 166 287 172 248 c 128
 178 209 186 172 198 140 c 128
 210 108 225 82 244 62 c 128
 263 42 285 33 311 33 c 0
EndSplineSet
EndChar

StartChar: Thorn
Encoding: 222 222 134
Width: 600
Flags: W
LayerCount: 2
Fore
SplineSet
42 -3 m 0
 37 -3 32 -2 28 0 c 128
 24 2 22 6 22 11 c 0
 22 22 29 29 44 32 c 0
 69 37 87 44 97 52 c 128
 107 60 112 76 112 97 c 2
 112 551 l 2
 112 572 108 587 100 596 c 128
 92 605 74 613 48 619 c 0
 33 622 26 629 26 640 c 0
 26 645 28 648 32 651 c 128
 36 654 41 655 46 655 c 0
 61 655 77 655 94 654 c 128
 111 653 128 653 144 652 c 128
 160 651 175 650 188 650 c 256
 201 650 217 650 234 651 c 128
 251 652 269 652 287 653 c 128
 305 654 321 654 336 654 c 0
 342 654 347 652 350 650 c 128
 353 648 355 645 355 640 c 0
 355 633 354 629 350 626 c 128
 346 623 340 621 333 619 c 0
 308 612 291 604 282 596 c 128
 273 588 267 576 266 559 c 2
 266 548 l 2
 266 546 266 544 267 542 c 128
 268 540 269 539 272 539 c 0
 273 539 276 539 280 540 c 128
 284 541 288 543 292 544 c 128
 296 545 296 545 295 545 c 1
 307 548 319 551 332 552 c 128
 345 553 359 553 372 553 c 0
 408 553 441 545 472 530 c 128
 503 515 528 493 546 463 c 128
 564 433 573 395 573 349 c 0
 573 302 562 261 538 228 c 128
 514 195 482 171 442 154 c 128
 402 137 360 128 313 128 c 0
 306 128 299 129 292 130 c 128
 285 131 279 131 274 131 c 0
 269 131 266 128 266 122 c 2
 266 98 l 2
 266 79 270 65 280 56 c 128
 290 47 308 39 333 32 c 0
 340 30 346 28 350 25 c 128
 354 22 355 18 355 12 c 0
 355 7 353 4 350 1 c 128
 347 -2 343 -3 337 -3 c 0
 322 -3 306 -3 288 -2 c 128
 270 -1 252 0 235 1 c 128
 218 2 202 2 188 2 c 0
 175 2 159 2 142 1 c 128
 125 0 108 -1 91 -2 c 128
 74 -3 57 -3 42 -3 c 0
305 168 m 0
 346 168 375 183 393 212 c 128
 411 241 420 282 420 335 c 0
 420 370 416 401 409 427 c 128
 402 453 391 474 377 488 c 128
 363 502 346 509 327 509 c 0
 314 509 303 506 294 502 c 128
 285 498 278 491 273 480 c 128
 268 469 266 453 266 433 c 2
 266 234 l 2
 266 206 271 188 280 180 c 128
 289 172 297 168 305 168 c 0
EndSplineSet
EndChar

StartChar: germandbls
Encoding: 223 223 135
Width: 600
Flags: W
LayerCount: 2
Fore
SplineSet
405 -14 m 0
 373 -14 348 -8 332 4 c 128
 316 16 308 30 308 47 c 0
 308 59 310 72 316 86 c 128
 322 100 331 106 342 106 c 0
 347 106 353 104 358 101 c 128
 363 98 369 91 377 82 c 0
 386 71 396 63 405 56 c 128
 414 49 427 46 442 46 c 0
 451 46 462 49 472 56 c 128
 482 63 487 73 487 87 c 0
 487 100 483 112 475 124 c 128
 467 136 456 150 442 162 c 128
 428 174 413 187 396 201 c 0
 378 217 362 232 347 246 c 128
 332 260 321 274 312 288 c 128
 303 302 298 317 298 334 c 0
 298 350 302 364 310 376 c 128
 318 388 329 398 341 408 c 128
 353 418 365 429 377 440 c 0
 392 454 404 470 413 487 c 128
 422 504 427 524 427 546 c 0
 427 581 420 610 404 632 c 128
 388 654 364 665 332 665 c 0
 297 665 270 650 252 621 c 128
 234 592 224 542 224 472 c 2
 224 74 l 2
 224 61 229 51 239 45 c 128
 249 39 261 34 276 31 c 0
 281 30 286 27 290 24 c 128
 294 21 296 16 296 11 c 0
 296 7 294 4 290 1 c 128
 286 -2 282 -3 278 -3 c 0
 265 -3 252 -3 238 -2 c 128
 224 -1 211 0 198 1 c 128
 185 2 173 2 161 2 c 0
 150 2 138 2 126 1 c 128
 114 0 102 -1 90 -2 c 128
 78 -3 65 -3 52 -3 c 0
 49 -3 45 -2 40 0 c 128
 35 2 32 6 32 11 c 0
 32 16 35 21 40 24 c 128
 45 27 50 29 55 31 c 0
 65 34 74 38 82 43 c 128
 90 48 93 57 93 71 c 2
 93 355 l 1
 86 355 79 356 70 356 c 128
 61 356 52 356 41 357 c 0
 37 358 34 361 31 368 c 128
 28 375 27 381 27 386 c 256
 27 391 30 394 36 396 c 0
 45 399 54 403 64 406 c 128
 74 409 84 414 93 419 c 1
 96 472 105 517 122 554 c 128
 139 591 160 620 186 642 c 128
 212 664 240 681 270 691 c 128
 300 701 329 706 357 706 c 256
 385 706 410 700 432 690 c 128
 454 680 471 667 484 650 c 128
 497 633 503 614 503 595 c 0
 503 566 498 542 488 524 c 128
 478 506 465 490 451 475 c 0
 440 462 430 448 423 434 c 128
 416 420 412 400 412 375 c 0
 412 365 416 356 422 346 c 128
 428 336 437 326 448 316 c 128
 459 306 471 296 484 283 c 0
 500 270 514 257 527 244 c 128
 540 231 550 216 558 202 c 128
 566 188 569 173 569 156 c 0
 569 132 563 110 552 90 c 128
 541 70 527 52 510 36 c 128
 493 20 475 8 456 -1 c 128
 437 -10 420 -14 405 -14 c 0
EndSplineSet
EndChar

StartChar: ae
Encoding: 230 230 136
Width: 600
Flags: W
LayerCount: 2
Fore
SplineSet
129 -14 m 0
 111 -14 94 -10 79 -2 c 128
 64 6 51 18 42 32 c 128
 33 46 28 61 28 77 c 0
 28 100 35 120 48 136 c 128
 61 152 82 166 110 177 c 2
 196 211 l 2
 209 217 217 222 220 227 c 128
 223 232 224 240 224 252 c 2
 225 313 l 2
 226 332 223 347 216 358 c 128
 209 369 198 374 183 374 c 0
 175 374 166 372 157 367 c 128
 148 362 142 358 138 353 c 0
 135 348 134 342 134 334 c 0
 134 330 134 326 134 321 c 128
 134 316 135 312 135 308 c 0
 135 303 129 297 118 291 c 128
 107 285 95 280 82 275 c 128
 69 270 57 268 49 268 c 0
 45 268 41 270 38 274 c 128
 35 278 33 283 33 289 c 0
 33 310 47 333 77 358 c 0
 89 368 103 378 121 390 c 128
 139 402 158 412 179 420 c 128
 200 428 219 433 238 433 c 0
 253 433 267 431 280 426 c 128
 293 421 304 413 315 403 c 0
 318 401 320 400 322 400 c 0
 325 400 326 401 329 403 c 0
 343 412 359 418 375 424 c 128
 391 430 409 433 430 433 c 0
 458 433 483 428 505 418 c 128
 527 408 545 394 558 376 c 128
 571 358 578 338 578 315 c 0
 578 304 576 296 572 291 c 128
 568 286 562 282 555 281 c 0
 551 280 540 276 523 271 c 128
 506 266 487 260 465 253 c 128
 443 246 423 240 403 233 c 128
 383 226 369 221 360 218 c 0
 357 217 355 215 353 212 c 128
 351 209 350 205 350 200 c 2
 350 172 l 2
 350 157 354 142 362 128 c 128
 370 114 382 103 396 94 c 128
 410 85 427 80 444 80 c 0
 462 80 480 84 499 92 c 128
 518 100 535 114 549 133 c 0
 552 137 556 139 561 139 c 0
 568 139 572 135 572 126 c 0
 572 123 572 120 571 116 c 128
 570 112 569 107 567 104 c 0
 548 69 526 40 499 18 c 128
 472 -4 435 -14 387 -14 c 0
 361 -14 338 -10 317 -2 c 128
 296 6 275 20 256 39 c 0
 255 40 254 42 252 43 c 128
 250 44 249 45 248 45 c 0
 245 45 243 44 240 41 c 0
 230 31 221 22 211 14 c 128
 201 6 190 -1 177 -6 c 128
 164 -11 148 -14 129 -14 c 0
182 51 m 0
 189 51 195 52 200 55 c 128
 205 58 209 61 213 66 c 0
 216 69 218 74 220 78 c 128
 222 82 222 87 222 93 c 2
 222 154 l 2
 222 160 223 165 222 168 c 128
 221 171 220 172 217 172 c 256
 214 172 210 171 206 169 c 0
 194 164 185 159 176 152 c 128
 167 145 160 138 155 130 c 128
 150 122 146 112 146 101 c 0
 146 82 150 69 158 62 c 128
 166 55 174 51 182 51 c 0
361 267 m 0
 378 272 396 277 412 282 c 128
 428 287 446 292 466 299 c 0
 472 300 475 303 477 307 c 128
 479 311 480 316 480 322 c 0
 480 341 475 356 466 370 c 128
 457 384 441 391 420 391 c 0
 409 391 398 388 388 383 c 128
 378 378 370 371 363 362 c 128
 356 353 352 342 352 329 c 2
 352 275 l 2
 352 272 352 269 354 268 c 128
 356 267 358 266 361 267 c 0
EndSplineSet
EndChar

StartChar: eth
Encoding: 240 240 137
Width: 600
Flags: W
LayerCount: 2
Fore
SplineSet
290 -14 m 0
 250 -14 212 -6 178 12 c 128
 144 30 117 54 96 86 c 128
 75 118 65 154 65 195 c 0
 65 238 76 278 97 314 c 128
 118 350 148 378 185 400 c 128
 222 422 265 433 312 433 c 0
 318 433 323 433 328 432 c 128
 333 431 338 429 342 427 c 0
 344 426 345 426 346 426 c 128
 347 426 348 429 347 432 c 0
 342 449 337 467 330 488 c 128
 323 509 315 527 308 540 c 1
 183 474 l 2
 176 471 170 471 165 475 c 128
 160 479 157 483 157 487 c 0
 157 498 159 506 162 512 c 128
 165 518 170 522 177 526 c 2
 282 579 l 1
 264 602 244 621 221 636 c 128
 198 651 173 662 144 667 c 0
 137 668 130 671 122 674 c 128
 114 677 110 681 110 688 c 256
 110 695 114 699 123 701 c 128
 132 703 142 704 154 704 c 0
 191 704 228 698 265 684 c 128
 302 670 336 650 368 624 c 1
 475 681 l 2
 480 684 487 684 494 683 c 128
 501 682 505 678 505 671 c 0
 505 662 503 654 500 648 c 128
 497 642 490 636 480 631 c 2
 407 591 l 1
 430 566 452 537 470 502 c 128
 488 467 502 428 512 386 c 128
 522 344 528 299 528 250 c 0
 528 221 522 191 512 160 c 128
 502 129 487 100 467 74 c 128
 447 48 422 26 392 10 c 128
 362 -6 329 -14 290 -14 c 0
306 32 m 256
 324 32 338 39 350 52 c 128
 362 65 371 86 378 114 c 128
 385 142 388 179 388 226 c 0
 388 246 386 267 381 290 c 128
 376 313 371 332 365 346 c 1
 354 360 343 370 332 376 c 128
 321 382 308 385 293 385 c 0
 276 385 261 378 248 364 c 128
 235 350 224 332 216 307 c 128
 208 282 205 253 205 220 c 0
 205 189 210 159 219 130 c 128
 228 101 241 78 256 60 c 128
 271 42 288 32 306 32 c 256
EndSplineSet
EndChar

StartChar: divide
Encoding: 247 247 138
Width: 600
Flags: W
LayerCount: 2
Fore
SplineSet
55 254 m 2
 51 254 47 255 43 258 c 128
 39 261 37 263 37 266 c 0
 37 270 38 276 40 283 c 128
 42 290 45 296 50 302 c 128
 55 308 61 311 68 311 c 2
 540 311 l 2
 546 311 551 309 556 306 c 128
 561 303 563 300 563 297 c 0
 563 288 560 278 553 268 c 128
 546 258 538 254 527 254 c 2
 55 254 l 2
304 65 m 0
 285 65 270 72 256 85 c 128
 242 98 235 114 235 133 c 0
 235 153 242 170 256 184 c 128
 270 198 285 204 304 204 c 0
 324 204 340 198 354 184 c 128
 368 170 375 153 375 133 c 0
 375 114 368 98 354 85 c 128
 340 72 324 65 304 65 c 0
303 350 m 0
 284 350 268 357 254 370 c 128
 240 383 234 399 234 418 c 0
 234 438 240 454 254 468 c 128
 268 482 284 489 303 489 c 0
 323 489 340 482 354 468 c 128
 368 454 374 438 374 418 c 0
 374 399 368 383 354 370 c 128
 340 357 323 350 303 350 c 0
EndSplineSet
EndChar

StartChar: oslash
Encoding: 248 248 139
Width: 600
Flags: W
LayerCount: 2
Fore
SplineSet
101 -15 m 0
 94 -15 86 -12 80 -8 c 128
 74 -4 71 1 71 7 c 0
 71 21 75 32 84 39 c 2
 491 424 l 2
 497 430 504 433 512 433 c 0
 523 433 529 425 529 410 c 0
 529 405 528 399 526 392 c 128
 524 385 520 380 515 375 c 2
 125 -5 l 2
 122 -8 118 -10 115 -12 c 128
 112 -14 107 -15 101 -15 c 0
286 -14 m 0
 246 -14 210 -5 178 13 c 128
 146 31 121 56 102 88 c 128
 83 120 73 155 73 195 c 0
 73 227 79 257 91 286 c 128
 103 315 120 340 141 362 c 128
 162 384 187 401 216 414 c 128
 245 427 275 433 308 433 c 0
 349 433 387 423 420 404 c 128
 453 385 480 360 500 328 c 128
 520 296 529 261 529 224 c 0
 529 181 520 142 502 106 c 128
 484 70 456 40 420 18 c 128
 384 -4 340 -14 286 -14 c 0
306 30 m 0
 320 30 332 32 342 38 c 128
 352 44 361 53 368 64 c 0
 376 77 381 95 384 118 c 128
 387 141 389 169 389 200 c 0
 389 236 385 268 377 296 c 128
 369 324 358 347 344 364 c 128
 330 381 312 389 293 389 c 0
 282 389 273 388 264 384 c 128
 255 380 248 375 241 368 c 0
 230 355 222 336 218 311 c 128
 214 286 211 256 211 220 c 0
 211 188 216 157 224 128 c 128
 232 99 244 76 258 58 c 128
 272 40 288 30 306 30 c 0
EndSplineSet
EndChar

